<?xml version="1.0" encoding="UTF-8"?>
<svg id="Layer_1" data-name="Layer 1" xmlns="http://www.w3.org/2000/svg" viewBox="0 0 475.83 485.91">
  <defs>
    <style>
      .cls-1 {
        fill: none;
      }

      .cls-1, .cls-2 {
        stroke: #231f20;
        stroke-miterlimit: 10;
      }

      .cls-3 {
        fill: #231f20;
      }

      .cls-4, .cls-2 {
        fill: #fff;
      }

      .floating-card-1,
      .floating-card-2,
      .floating-card-3,
      .floating-card-4 {
        animation-duration: 7s;
        animation-iteration-count: infinite;
        animation-timing-function: ease-in-out;
        transform-box: fill-box;
        transform-origin: center;
        will-change: transform;
      }

      .floating-card-1 {
        animation-name: float-card-1;
      }

      .floating-card-2 {
        animation-duration: 8.5s;
        animation-name: float-card-2;
      }

      .floating-card-3 {
        animation-duration: 7.8s;
        animation-name: float-card-3;
      }

      .floating-card-4 {
        animation-duration: 9.2s;
        animation-name: float-card-4;
      }

      @keyframes float-card-1 {
        0%, 100% {
          transform: translate(-4px, -2px);
        }

        50% {
          transform: translate(5px, 3px);
        }
      }

      @keyframes float-card-2 {
        0%, 100% {
          transform: translate(4px, -3px);
        }

        50% {
          transform: translate(-5px, 4px);
        }
      }

      @keyframes float-card-3 {
        0%, 100% {
          transform: translate(-3px, 4px);
        }

        50% {
          transform: translate(6px, -4px);
        }
      }

      @keyframes float-card-4 {
        0%, 100% {
          transform: translate(3px, 2px);
        }

        50% {
          transform: translate(-6px, -3px);
        }
      }
    </style>
    <filter id="ink-bleed" x="-30%" y="-30%" width="160%" height="160%">
      <feGaussianBlur in="SourceAlpha" stdDeviation="2.4" result="blur"/>
      <feColorMatrix
        in="blur"
        result="threshold"
        type="matrix"
        values="
          1 0 0 0 0
          0 1 0 0 0
          0 0 1 0 0
          0 0 0 42 -18
        "
      />
      <feComposite in="SourceGraphic" in2="threshold" operator="in" result="inked"/>
      <feComposite in="inked" in2="SourceGraphic" operator="over"/>
    </filter>
  </defs>
  <g filter="url(#ink-bleed)">
  <g class="floating-card-1">
    <g>
      <path class="cls-4" d="M194.78,91.3C125.01,121.5,46.21,102.02.88,47.51,31.85,38.81,58.02,22.12,77.38.69c24.2,20.27,65.02,25.34,99,.55,13.36,26.31,19.92,57.42,18.4,90.06Z"/>
      <path class="cls-1" d="M194.78,91.3C125.01,121.5,46.21,102.02.88,47.51,31.85,38.81,58.02,22.12,77.38.69c24.2,20.27,65.02,25.34,99,.55,13.36,26.31,19.92,57.42,18.4,90.06Z"/>
    </g>
    <g>
      <path class="cls-3" d="M73.24,14.55c.62-.66,1.23-1.33,1.84-2,.98.7,1.97,1.37,3,2.01,1.13-1.43,2.23-2.89,3.28-4.36-.94-.58-1.85-1.18-2.74-1.81.43-.53.84-1.06,1.26-1.59.52.32,1.12.6,1.81.82.69.22,1.39.38,2.1.48.71.1,1.36.13,1.94.12.37.2.75.4,1.12.59-1.52,2.71-3.17,5.37-4.94,7.97,1.04.54,2.09,1.06,3.16,1.55-.47.78-.94,1.55-1.43,2.32-3.69-1.7-7.17-3.74-10.41-6.08Z"/>
      <path class="cls-3" d="M85.89,21.61c.59-1.01,1.17-2.04,1.72-3.07,1.46.59,2.95,1.13,4.47,1.6-.48,1.07-.97,2.13-1.49,3.19-1.6-.52-3.17-1.09-4.71-1.73Z"/>
      <path class="cls-3" d="M14.58,46.27c4.48-1.01,8.84-2.25,13.06-3.7,2.95,3.12,6.06,6.05,9.31,8.78,2.58,2.16,4.61,3.96,6.05,5.54,1.44,1.57,2.26,2.93,2.43,4.12.16,1.18-.39,2.19-1.71,2.99-1.31.79-2.94,1.08-4.87.82-1.93-.26-4.14-1.04-6.55-2.39-2.41-1.36-5.05-3.28-7.8-5.83-3.47-3.22-6.78-6.67-9.9-10.32ZM24.94,53c.82.79,1.64,1.56,2.48,2.32.83.75,1.61,1.37,2.35,1.85.74.49,1.43.84,2.06,1.07.63.23,1.21.35,1.73.35.52,0,.99-.1,1.4-.3.35-.17.71-.34,1.06-.51.41-.2.68-.46.83-.77.14-.31.12-.67-.04-1.1-.17-.42-.5-.9-.98-1.45-.48-.55-1.12-1.16-1.92-1.85-.81-.7-1.61-1.41-2.4-2.13-2.15.9-4.34,1.74-6.57,2.53Z"/>
      <path class="cls-3" d="M53.37,76.85c-2.67-1.33-4.77-2.69-6.33-3.99-1.56-1.3-2.47-2.49-2.76-3.53-.3-1.04.1-1.87,1.16-2.53,1.04-.65,2.35-.9,3.94-.79,1.6.11,3.39.52,5.42,1.19,2.02.67,4.2,1.56,6.57,2.64,2.5,1.14,4.53,2.15,6.06,3.12,1.53.97,2.51,1.88,2.93,2.79.42.91.2,1.81-.68,2.69-.16.16-.32.31-.48.47-5.67-2-11.19-4.41-16.49-7.22-.38.28-.57.59-.57.94,0,.35.26.75.76,1.19.5.44,1.27.92,2.32,1.44.75.37,1.41.64,1.99.83.58.19,1.08.32,1.51.38.43.06.78.06,1.07,0,.28-.05.5-.15.66-.29,2.7,1.18,5.43,2.27,8.21,3.26-.44.43-1.11.73-2,.88-.89.15-1.99.14-3.29-.04-1.31-.18-2.81-.54-4.48-1.1-1.68-.56-3.53-1.32-5.52-2.32ZM54.23,70.61c2.57,1.34,5.19,2.59,7.86,3.74.21-.18.31-.38.31-.59,0-.21-.1-.44-.3-.67-.2-.24-.49-.48-.88-.73-.39-.25-.86-.5-1.42-.76-.88-.41-1.67-.72-2.37-.91-.7-.2-1.3-.3-1.82-.31-.52,0-.98.07-1.38.24Z"/>
      <path class="cls-3" d="M67.36,86.28c3.54-3.3,6.87-6.75,9.96-10.31,2.27.66,4.56,1.25,6.87,1.77-.06.44-.11.88-.17,1.32.1.02.2.05.3.07,1.18-.31,2.44-.45,3.77-.43,1.33.01,2.73.14,4.21.37,2.03.31,3.67.69,4.93,1.2,1.26.5,2.09,1.12,2.47,1.88.38.76.27,1.67-.37,2.71-.63,1.03-1.58,1.85-2.85,2.44-1.27.58-2.81.94-4.61,1.04-1.8.1-3.8-.05-5.97-.47-.87-.17-1.69-.37-2.46-.61-.77-.24-1.43-.5-1.99-.8-.56-.29-.99-.61-1.29-.94-.11-.03-.21-.05-.32-.08-1.06,1.23-2.15,2.44-3.26,3.65-3.11-.83-6.18-1.76-9.22-2.81ZM84.86,85.01c.94.19,1.75.27,2.44.24.68-.03,1.25-.15,1.68-.35.44-.2.77-.47,1.01-.8.2-.28.41-.57.61-.85.24-.33.31-.64.23-.93-.08-.29-.36-.54-.82-.77-.47-.23-1.15-.42-2.06-.59-.91-.17-1.71-.24-2.4-.21-.69.04-1.27.15-1.74.36-.47.2-.84.46-1.09.78-.14.17-.27.34-.41.5-.19.23-.3.47-.32.72-.03.24.06.48.24.71.18.23.5.45.93.66.44.21,1.01.38,1.7.53Z"/>
      <path class="cls-3" d="M114.07,90.19c-2.9.08-5.32-.13-7.24-.55-1.92-.42-3.25-1.04-4-1.81-.75-.77-.8-1.69-.19-2.74.61-1.06,1.67-1.91,3.16-2.57,1.49-.66,3.3-1.16,5.46-1.53,2.16-.37,4.56-.62,7.25-.8,2.69-.18,4.96-.24,6.85-.1,1.88.13,3.27.46,4.15,1.06.88.59,1.16,1.47.78,2.64-.38,1.16-1.29,2.22-2.74,3.15-1.46.93-3.35,1.7-5.65,2.26-2.31.56-4.93.91-7.83.99ZM115.24,87.76c1.11-.04,2.05-.17,2.82-.37.76-.2,1.37-.48,1.81-.8.44-.33.75-.71.93-1.14.14-.35.29-.7.43-1.05.17-.43.16-.79-.02-1.07-.18-.29-.58-.48-1.18-.6-.61-.11-1.44-.13-2.51-.07-1.07.06-1.96.18-2.69.36-.73.19-1.31.43-1.76.74-.45.31-.77.67-.97,1.09-.16.34-.33.68-.5,1.01-.2.42-.23.77-.06,1.06.17.29.55.52,1.14.67.6.15,1.45.21,2.56.17Z"/>
      <path class="cls-3" d="M144.88,85.65c-1.53.42-3.05.74-4.54.98-1.49.23-2.83.34-4.01.33-1.18,0-2.09-.15-2.73-.42-.63-.27-.85-.7-.67-1.28.01-.04.02-.08.04-.12.01-.04.04-.09.09-.15,2.91-.52,5.81-1.15,8.7-1.88-.04.05-.07.09-.08.13,0,.04-.02.07-.02.1-.03.23.12.37.44.44.32.06.77.06,1.36-.02.58-.08,1.23-.22,1.95-.42.44-.12.97-.29,1.59-.49.62-.21,1.17-.44,1.66-.69.49-.25.76-.5.8-.75.04-.22-.2-.3-.72-.25-.52.06-1.22.19-2.09.38-.87.19-1.82.39-2.86.6-1.13.23-2.27.43-3.4.59-1.14.16-2.17.23-3.11.22-.93,0-1.65-.14-2.15-.39-.5-.25-.66-.67-.5-1.26.18-.66.66-1.28,1.43-1.86.77-.59,1.74-1.14,2.92-1.67,1.18-.53,2.48-1.04,3.91-1.54,1.43-.5,2.91-.99,4.44-1.48,1.33-.42,2.63-.81,3.92-1.17,1.29-.35,2.46-.63,3.52-.8,1.06-.18,1.89-.21,2.51-.08.61.13.9.48.84,1.05,0,.04,0,.09-.01.15,0,.06-.02.11-.06.15-2.72,1.12-5.45,2.15-8.21,3.07,0-.05.02-.11.02-.16.03-.2-.1-.31-.4-.33-.3-.02-.68.02-1.17.12-.49.1-.98.23-1.49.39-.18.06-.45.14-.81.26-.36.11-.73.25-1.11.39-.39.15-.71.3-.99.47-.27.16-.43.33-.47.5-.03.15.12.23.45.23.33,0,.78-.05,1.36-.17.58-.11,1.23-.25,1.95-.41,1.13-.26,2.36-.57,3.68-.94,1.31-.37,2.55-.68,3.72-.92,1.16-.24,2.1-.31,2.81-.2.71.12,1.03.55.94,1.31-.08.72-.49,1.46-1.24,2.21-.75.75-1.74,1.49-2.98,2.19-1.24.7-2.66,1.37-4.25,1.99-1.59.61-3.26,1.16-4.98,1.63Z"/>
      <path class="cls-3" d="M162.29,79.34c.38-3.56.62-7.1.73-10.61,2.85-1.36,5.67-2.85,8.45-4.46.13,3.53.13,7.09,0,10.69-3.02,1.59-6.09,3.05-9.18,4.38ZM163.06,67.49c.02-.9.03-1.79.04-2.68,2.76-1.37,5.49-2.86,8.18-4.48.06.89.11,1.79.15,2.69-2.75,1.61-5.54,3.1-8.37,4.47Z"/>
      <path class="cls-3" d="M186.8,65.77c-1.56,1.11-2.96,1.97-4.19,2.6-1.23.63-2.19.93-2.88.93-.69,0-1.04-.37-1.07-1.11-.07-1.8-.16-3.58-.29-5.36-1.03.67-2.07,1.33-3.12,1.97-.04-.91-.1-1.81-.16-2.72,1.13-.71,2.26-1.44,3.37-2.19.48-1.46.94-2.93,1.36-4.39,1.95-1.39,3.87-2.85,5.76-4.38.2,1.06.38,2.12.55,3.19,1.47-1.16,2.93-2.36,4.37-3.6.18.9.35,1.8.52,2.7-1.47,1.24-2.96,2.44-4.47,3.61.19,1.35.36,2.71.52,4.08.05.46.24.7.58.71.34,0,.98-.35,1.93-1.08.78-.6,1.56-1.22,2.33-1.84.11.8.22,1.6.32,2.4-.44.42-.99.93-1.65,1.5-.66.57-1.33,1.12-2,1.65-.67.52-1.27.97-1.79,1.34Z"/>
    </g>
  </g>
  <g class="floating-card-2">
    <g>
      <path class="cls-4" d="M345.12,191.59c-67.01,39.59-151.16,26.19-200.84-29.43,27.52-12.72,51.47-30.44,70.94-51.66,24.22,21.09,64.37,24.61,95.15-.23,16.25,23.99,28.07,51.6,34.76,81.31Z"/>
      <path class="cls-1" d="M345.12,191.59c-67.01,39.59-151.16,26.19-200.84-29.43,27.52-12.72,51.47-30.44,70.94-51.66,24.22,21.09,64.37,24.61,95.15-.23,16.25,23.99,28.07,51.6,34.76,81.31Z"/>
    </g>
    <g>
      <path class="cls-3" d="M210.09,124.05c.19-.2.39-.4.58-.61.34-.36.77-.6,1.29-.75.52-.15,1.09-.23,1.72-.25.63-.02,1.28,0,1.96.03.68.04,1.36.08,2.04.11.7.04,1.35.06,1.94.07.6.02,1.11-.03,1.54-.13.43-.1.75-.32.94-.63.12-.19.17-.39.16-.62,0-.22-.09-.45-.24-.67-.15-.23-.41-.44-.77-.66-.36-.21-.7-.34-1.02-.38-.33-.04-.63,0-.9.12-.28.12-.51.3-.69.56-.07.09-.14.19-.21.28-1.04-.68-2.06-1.41-3.05-2.17.03-.06.07-.12.11-.16.04-.05.08-.09.12-.14.54-.63,1.17-1.03,1.9-1.24.73-.21,1.53-.2,2.42,0,.9.2,1.87.63,2.96,1.27.67.39,1.25.8,1.73,1.23.48.44.85.89,1.11,1.37.26.48.41.96.44,1.46.03.5-.07.99-.32,1.48-.24.48-.57.86-.99,1.14-.42.28-.93.49-1.52.62-.59.13-1.24.21-1.95.24-.71.03-1.48.02-2.3-.04-.42-.02-.77-.05-1.03-.07-.27-.02-.47-.03-.59-.04-.13,0-.21-.01-.25,0,1.98,1.21,4.04,2.29,6.17,3.23-.47.86-.95,1.72-1.44,2.58-4.23-1.9-8.22-4.32-11.86-7.21Z"/>
      <path class="cls-3" d="M224.4,132.29c.53-1.03,1.05-2.07,1.55-3.12,1.52.59,3.06,1.11,4.63,1.56-.41,1.08-.83,2.17-1.27,3.24-1.67-.49-3.31-1.05-4.92-1.69Z"/>
      <path class="cls-3" d="M157.08,160.37c4-1.57,7.91-3.29,11.7-5.16,3.33,3.38,6.86,6.51,10.54,9.37,2.92,2.27,5.28,4.14,7.02,5.79,1.75,1.65,2.86,3.07,3.3,4.36.43,1.28.14,2.41-.96,3.37-1.09.95-2.59,1.39-4.53,1.25-1.93-.14-4.25-.82-6.89-2.14-2.64-1.32-5.61-3.25-8.78-5.91-4-3.36-7.81-7-11.41-10.94ZM168.15,167.2c.94.83,1.89,1.64,2.85,2.43.95.78,1.83,1.42,2.65,1.9.81.49,1.55.83,2.21,1.05.66.21,1.23.3,1.74.26.5-.04.93-.18,1.28-.43.3-.21.6-.43.9-.64.35-.25.56-.55.63-.91.07-.35-.03-.76-.28-1.21-.25-.46-.67-.97-1.25-1.55-.58-.58-1.33-1.23-2.23-1.95-.92-.73-1.83-1.48-2.73-2.24-1.89,1.14-3.81,2.24-5.76,3.3Z"/>
      <path class="cls-3" d="M201.67,191.2c-3.04-1.18-5.49-2.47-7.39-3.74-1.89-1.27-3.1-2.49-3.67-3.59-.57-1.1-.4-2.05.47-2.84.85-.78,2.07-1.14,3.67-1.14,1.6,0,3.48.33,5.66.9,2.18.58,4.58,1.37,7.25,2.34,2.82,1.02,5.14,1.92,6.96,2.8,1.82.88,3.08,1.74,3.77,2.65.69.9.74,1.85.11,2.83-.11.18-.23.35-.34.53-6.37-1.53-12.6-3.6-18.62-6.19-.3.33-.4.68-.3,1.05.1.37.46.78,1.08,1.2.62.43,1.52.88,2.72,1.34.85.33,1.59.56,2.22.72.63.15,1.17.24,1.62.27.44.02.8,0,1.07-.09.27-.08.46-.2.58-.36,3.05,1.01,6.13,1.9,9.25,2.66-.32.49-.9.86-1.75,1.1-.85.24-1.96.34-3.33.27-1.37-.07-2.99-.3-4.83-.74-1.85-.44-3.92-1.08-6.19-1.96ZM200.75,184.47c2.92,1.23,5.88,2.34,8.88,3.33.16-.21.2-.42.14-.65-.06-.22-.23-.45-.49-.68-.26-.23-.63-.46-1.08-.69-.45-.23-1-.46-1.63-.7-1-.36-1.86-.63-2.61-.79-.75-.16-1.38-.22-1.9-.19-.52.03-.95.15-1.3.36Z"/>
      <path class="cls-3" d="M232.87,198.76c-1.64-.17-3.24-.43-4.8-.77-1.56-.34-2.93-.75-4.13-1.21-1.2-.46-2.09-.95-2.67-1.46-.59-.5-.72-1-.43-1.48.02-.03.04-.07.06-.1.02-.04.06-.07.12-.11,3.02.64,6.07,1.17,9.13,1.57-.05.03-.08.06-.1.09-.02.03-.03.06-.04.08-.07.2.05.4.37.58.32.18.78.35,1.38.49.6.14,1.29.25,2.06.33.47.05,1.04.09,1.71.12.67.03,1.27.02,1.82-.03.55-.05.86-.19.96-.41.08-.19-.15-.35-.69-.49-.55-.14-1.28-.27-2.2-.42-.92-.14-1.93-.31-3.02-.5-1.19-.21-2.38-.45-3.56-.73-1.18-.28-2.24-.61-3.17-.98-.94-.37-1.63-.78-2.08-1.21-.45-.43-.53-.89-.24-1.38.32-.56.93-.95,1.81-1.2.89-.25,1.97-.39,3.26-.43,1.29-.04,2.7-.02,4.24.06,1.54.08,3.13.18,4.77.31,1.42.11,2.82.23,4.2.38,1.38.15,2.62.33,3.73.55,1.11.22,1.97.49,2.57.83.6.34.82.76.66,1.26-.01.04-.02.08-.04.13-.02.05-.05.09-.09.12-2.99.07-5.98.02-8.95-.14.02-.05.04-.09.05-.14.07-.17-.04-.32-.34-.45-.3-.13-.7-.23-1.21-.32-.51-.09-1.04-.15-1.59-.2-.19-.02-.48-.04-.87-.07-.39-.03-.79-.05-1.21-.05-.42,0-.78.01-1.09.06-.31.05-.5.14-.57.29-.06.13.07.26.4.39.33.12.8.25,1.41.36.61.11,1.29.23,2.05.35,1.2.18,2.51.34,3.92.48,1.41.14,2.73.3,3.97.5,1.23.19,2.21.46,2.91.82.71.36.96.87.73,1.54-.21.63-.77,1.17-1.67,1.6-.9.43-2.05.76-3.45.98-1.4.21-2.97.33-4.72.33-1.74,0-3.54-.1-5.39-.29Z"/>
      <path class="cls-3" d="M251.9,199.08c.98-3.13,1.86-6.28,2.65-9.42,3.18-.25,6.36-.63,9.53-1.15-.53,3.21-1.15,6.41-1.87,9.62-3.43.46-6.87.78-10.31.95ZM254.83,188.55c.2-.81.38-1.61.57-2.42,3.08-.27,6.16-.67,9.24-1.21-.12.82-.24,1.64-.37,2.46-3.14.52-6.29.91-9.43,1.17Z"/>
      <path class="cls-3" d="M272.09,200.14c-1.27.27-2.43.4-3.46.38-1.04-.01-1.84-.15-2.4-.41-.56-.26-.79-.61-.7-1.05.1-.5.63-1.01,1.58-1.54.95-.53,2-1.01,3.15-1.42-.79-.04-1.39-.17-1.82-.37-.43-.2-.61-.48-.55-.82.08-.49.65-1.02,1.69-1.6,1.04-.59,2.26-1.1,3.65-1.55-1.16,0-2.11-.12-2.86-.35-.75-.23-1.09-.58-1.03-1.04.11-.81.78-1.56,2.01-2.28,1.23-.72,2.82-1.43,4.79-2.16,1.96-.73,4.09-1.48,6.38-2.26.93-.32,1.71-.59,2.35-.81.63-.21,1.2-.4,1.69-.55,1.34-.86,2.25-1.57,2.75-2.11.5-.54.73-.89.72-1.07,2.46-1.06,4.9-2.22,7.31-3.48.08.53-.08,1.07-.46,1.64-.39.56-.99,1.16-1.79,1.76-.81.61-1.79,1.24-2.94,1.88.91-.12,1.63-.13,2.17,0,.54.13.83.39.87.8.07.73-.37,1.56-1.31,2.46-.95.9-2.23,1.81-3.85,2.68-1.62.88-3.4,1.66-5.32,2.32-1.24.43-2.48.84-3.73,1.22-1.11.34-1.92.63-2.4.86-.49.24-.73.43-.75.59-.01.16.18.24.59.23.41,0,1.24-.19,2.5-.57,2.98-.91,5.95-1.94,8.88-3.1,2.99-1.18,5.17-1.87,6.61-1.91,1.43-.05,2.18.37,2.25,1.29.05.7-.42,1.55-1.42,2.52-1.01.98-2.37,1.97-4.09,2.94-1.72.97-3.6,1.83-5.64,2.54-5.08,1.78-10.22,3.21-15.41,4.32ZM278.02,196.72c2.69-.72,5.37-1.54,8.02-2.44.51-.18.97-.37,1.38-.59.41-.22.73-.45.97-.68.24-.23.36-.44.36-.63,0-.29-.26-.42-.77-.39-.52.03-1.14.17-1.88.43-2.62.91-5.25,1.73-7.9,2.46-.75.2-1.38.45-1.92.73-.53.29-.81.57-.85.85-.03.29.19.45.69.5.5.04,1.13-.03,1.89-.24ZM282.37,188.07c1.13-.37,2.03-.78,2.7-1.22.67-.44,1-.87,1-1.29,0-.42-.34-.61-1.01-.56-.66.04-1.54.26-2.65.63-.98.33-1.82.7-2.53,1.11-.71.41-1.07.83-1.09,1.25-.02.27.12.46.4.56.28.1.69.11,1.24.03.55-.08,1.19-.24,1.93-.49Z"/>
      <path class="cls-3" d="M301.87,185.66c-.34-3.29-.77-6.55-1.29-9.78,2.41-1.33,4.79-2.75,7.13-4.28.3.36.6.72.9,1.09.1-.07.2-.13.3-.2.52-.78,1.15-1.56,1.88-2.36.73-.8,1.56-1.6,2.47-2.42.91-.82,1.86-1.62,2.85-2.4,1.73-1.36,3.16-2.4,4.35-3.06,1.18-.66,2.14-.99,2.87-.97.73.03,1.24.41,1.52,1.15.76,2.01,1.49,4.03,2.18,6.08-2.86,2.51-5.79,4.86-8.8,7.05-.48-1.94-1-3.87-1.55-5.78-.06-.21-.18-.34-.35-.4-.18-.06-.39-.07-.65-.02-.26.05-.58.18-.95.37-.38.2-.81.47-1.29.82-.72.51-1.33,1.02-1.83,1.53-.5.51-.88.97-1.14,1.4-.26.43-.35.78-.29,1.06.42,1.89.8,3.79,1.16,5.71-3.1,1.96-6.26,3.76-9.47,5.41Z"/>
    </g>
  </g>
  <g class="floating-card-3">
    <path class="cls-2" d="M268.5,359.93c-53.33-20.31-89.79-60.63-104.22-103.52,43.42,13.9,82.26,1.97,104.22-18.34,21.96,20.31,60.8,32.24,104.22,18.34-14.43,42.89-50.89,83.21-104.22,103.52Z"/>
    <g>
      <path class="cls-3" d="M259.13,256.12c-1.01-.91-1.66-1.77-1.98-2.56-.32-.79-.36-1.49-.15-2.1.21-.61.62-1.1,1.21-1.48.12-.07.23-.15.35-.22.82.8,1.66,1.6,2.53,2.38-.1.07-.21.14-.31.21-.29.19-.41.47-.36.83.05.36.33.78.86,1.26.58.52,1.14.77,1.67.78.52,0,1.01-.15,1.45-.46.28-.19.45-.39.52-.59.07-.2.07-.4,0-.6-.07-.19-.21-.38-.41-.55-.37-.31-.74-.63-1.1-.94.66-.47,1.32-.95,1.96-1.43.28.24.57.48.86.72.2.17.42.29.67.35.24.06.5.07.76.02.26-.05.52-.17.77-.37.22-.17.36-.37.45-.6.08-.23.08-.47-.01-.72-.09-.25-.28-.49-.57-.73-.25-.21-.53-.36-.84-.45-.3-.1-.59-.14-.86-.12-.27.02-.49.1-.67.23-.05.04-.1.08-.15.12-.82-.71-1.63-1.42-2.41-2.15.13-.1.26-.19.38-.29.53-.4,1.16-.63,1.89-.69.73-.06,1.51.06,2.36.36.85.3,1.71.8,2.6,1.5.86.68,1.48,1.35,1.86,2.03.37.68.52,1.32.43,1.93-.09.61-.4,1.13-.92,1.56-.35.29-.75.52-1.21.68-.46.16-.93.24-1.4.25-.48,0-.93-.07-1.37-.23-.02.02-.04.03-.06.05.41.62.55,1.23.41,1.85-.14.62-.56,1.19-1.25,1.7-.63.43-1.37.68-2.22.76-.85.08-1.77-.05-2.74-.4-.97-.35-1.97-.98-2.97-1.88Z"/>
      <path class="cls-3" d="M265.58,261.17c1.15-.78,2.27-1.59,3.37-2.4,1.18.86,2.38,1.71,3.61,2.53-1.1.85-2.22,1.69-3.37,2.51-1.23-.86-2.44-1.74-3.61-2.64Z"/>
      <path class="cls-3" d="M175.09,263.91c5.99,1.29,11.89,2.11,17.65,2.52,1.79,3.41,3.74,6.77,5.86,10.09.48.75.75,1.44.78,2.06.04.62-.14,1.12-.55,1.49-.41.37-1.05.56-1.93.54-.88-.02-1.68-.16-2.4-.41-.72-.26-1.37-.59-1.94-1-.57-.41-1.08-.85-1.52-1.33-.04,0-.07,0-.11,0,.19.54.25,1.02.18,1.44-.07.42-.33.76-.79.99-.46.23-1.18.31-2.17.23-.99-.08-1.99-.37-2.98-.88-.99-.5-1.9-1.14-2.72-1.91-.82-.77-1.47-1.61-1.95-2.51-1.99-3.72-3.8-7.5-5.43-11.3ZM181.77,270.02c.67,1.33,1.36,2.66,2.07,3.98.2.36.5.67.9.92.4.25.89.41,1.46.47.27.03.48,0,.65-.08.16-.08.26-.2.28-.36.02-.17-.03-.36-.16-.6-.73-1.3-1.43-2.61-2.11-3.92-1.03-.13-2.06-.27-3.09-.43ZM188.57,270.85c.63,1.16,1.27,2.32,1.93,3.47.14.24.32.45.55.63.23.18.49.32.8.43.3.11.64.18,1,.2.38.02.64-.08.78-.28.13-.21.11-.47-.08-.78-.67-1.13-1.33-2.27-1.96-3.41-1-.07-2.01-.16-3.02-.25Z"/>
      <path class="cls-3" d="M186.96,286.62c-.95-1.47-1.15-2.52-.63-3.13.51-.62,1.63-.84,3.33-.72,3.1.22,6.16.32,9.18.33,1,1.45,2.04,2.88,3.1,4.3-2.84.07-5.71.05-8.62-.06-.29-.01-.54.01-.75.07-.21.06-.37.14-.47.25-.1.11-.13.26-.1.46.04.19.14.41.31.65.26.38.6.71,1.01,1,.41.29.85.51,1.31.68.46.16.9.25,1.31.26,2.85.05,5.67,0,8.46-.11,1.11,1.4,2.25,2.79,3.43,4.16-4.79.33-9.68.43-14.67.27-.92-1.23-1.83-2.47-2.71-3.72.7-.04,1.39-.08,2.08-.12-.04-.05-.08-.11-.11-.16-.75-.31-1.47-.7-2.18-1.18-.7-.48-1.34-.99-1.89-1.55-.56-.56-1.02-1.12-1.38-1.68Z"/>
      <path class="cls-3" d="M195.25,297.76c5.02.08,9.94-.1,14.75-.51,1.21,1.36,2.45,2.7,3.73,4.03-4.85.54-9.81.85-14.88.91-1.23-1.46-2.43-2.93-3.6-4.42ZM211.68,297.09c1.22-.12,2.44-.25,3.65-.4,1.22,1.31,2.48,2.6,3.77,3.88-1.22.18-2.44.35-3.67.5-1.28-1.31-2.52-2.64-3.74-3.98Z"/>
      <path class="cls-3" d="M201.1,304.8c6.99-.19,13.79-.85,20.35-1.94,1.32,1.26,2.67,2.5,4.05,3.72-6.6,1.27-13.45,2.11-20.5,2.49-1.33-1.41-2.63-2.83-3.9-4.27Z"/>
      <path class="cls-3" d="M211.29,315.74c-1.01-.95-1.55-1.81-1.66-2.54-.11-.74.26-1.34,1.09-1.81.82-.47,2.13-.79,3.91-1,1.76-.2,3.39-.23,4.91-.06,1.52.17,2.92.51,4.21,1.03,1.29.52,2.44,1.2,3.47,2.05.41.34.76.68,1.03,1.03.27.34.45.68.53,1,.08.32.04.62-.13.88.05.04.11.08.16.13,2.33-.48,4.62-1.01,6.89-1.59,1.52,1.13,3.06,2.24,4.63,3.33-6.71,1.89-13.7,3.37-20.92,4.4-1.25-1.04-2.48-2.1-3.7-3.17.64-.18,1.27-.37,1.91-.56-.05-.05-.1-.09-.16-.14-1.3-.25-2.48-.63-3.51-1.15-1.03-.52-1.92-1.13-2.67-1.84ZM216.97,316.5c.45.4.98.72,1.56.93.58.21,1.19.34,1.82.38.63.04,1.24.01,1.85-.09.32-.05.64-.1.96-.16.45-.08.83-.18,1.15-.31.32-.13.55-.29.69-.47.14-.18.17-.4.09-.64-.08-.24-.3-.5-.64-.79-.46-.38-.95-.68-1.48-.87-.53-.2-1.07-.31-1.63-.35-.56-.04-1.14-.01-1.74.07-.51.08-1.02.15-1.53.22-.6.08-1.06.21-1.38.37-.32.17-.47.39-.44.67.03.28.27.63.73,1.03Z"/>
    </g>
  </g>
  <g class="floating-card-4">
    <path class="cls-2" d="M368.61,482.93c-53.33-20.31-89.79-60.63-104.22-103.52,43.42,13.9,82.26,1.97,104.22-18.34,21.96,20.31,60.8,32.24,104.22,18.34-14.43,42.89-50.89,83.21-104.22,103.52Z"/>
    <g>
      <path class="cls-3" d="M359.79,379.3c.81-.51,1.61-1.03,2.4-1.56-1.7-1.48-3.33-2.99-4.88-4.55.83-.52,1.64-1.05,2.44-1.59.82-.05,1.75-.16,2.78-.34,1.02-.18,2.09-.43,3.18-.76,1.1-.32,2.13-.72,3.11-1.18.96.8,1.95,1.58,2.96,2.35-.36.25-.85.48-1.45.69-.6.21-1.28.39-2.03.55-.75.16-1.53.29-2.32.38-.79.09-1.56.15-2.31.19-.75.03-1.41.03-2.01-.01.96.88,1.94,1.74,2.94,2.59.77-.56,1.53-1.12,2.28-1.69.32-.04.69-.1,1.12-.18.43-.08.87-.18,1.32-.28.46-.11.88-.23,1.29-.36.4-.14.73-.27.99-.41.44.33.89.67,1.34.99-1.72,1.49-3.51,2.94-5.38,4.33.51.4,1.03.79,1.55,1.18-.79.6-1.6,1.2-2.42,1.79-.52-.4-1.04-.81-1.55-1.22-.79.55-1.59,1.09-2.4,1.63-1.01-.83-2-1.68-2.96-2.54Z"/>
      <path class="cls-3" d="M365.69,384.17c1.15-.78,2.27-1.59,3.36-2.4,1.18.86,2.38,1.7,3.61,2.53-1.1.85-2.22,1.69-3.37,2.51-1.23-.86-2.44-1.74-3.61-2.64Z"/>
      <path class="cls-3" d="M275.2,386.9c5.99,1.29,11.89,2.11,17.65,2.51,1.16,2.22,2.4,4.41,3.7,6.59,1.03,1.73,1.63,3.15,1.74,4.31.11,1.15-.29,2.03-1.22,2.61-.93.58-2.44.85-4.54.74-2.08-.11-4.02-.56-5.78-1.34-1.76-.78-3.34-1.86-4.7-3.23-1.36-1.37-2.53-3.01-3.48-4.92-1.2-2.41-2.32-4.84-3.37-7.28ZM282.01,393.04c.29.58.59,1.16.88,1.74.3.57.64,1.07,1.04,1.51.4.44.84.81,1.33,1.12.48.3,1.01.54,1.57.72.56.17,1.15.29,1.77.35.53.05,1.06.09,1.58.13.61.05,1.13.02,1.55-.06.41-.09.71-.25.89-.49.18-.23.24-.55.18-.93-.06-.39-.24-.85-.56-1.39-.31-.55-.62-1.1-.92-1.65-3.07-.23-6.18-.57-9.32-1.04Z"/>
      <path class="cls-3" d="M288.65,412.02c-1-1.47-1.55-2.73-1.7-3.77-.15-1.04.16-1.8.91-2.28.75-.49,1.98-.66,3.69-.56,1.67.1,3.23.42,4.68.99,1.46.57,2.8,1.33,4.03,2.28,1.24.95,2.34,2.06,3.33,3.34,1.04,1.35,1.69,2.49,1.92,3.45.23.96,0,1.72-.71,2.26-.71.55-1.93.86-3.7.9-.32,0-.63.01-.95.02-2.3-2.87-4.48-5.8-6.53-8.78-.66-.02-1.17.03-1.54.17-.37.14-.55.38-.56.72,0,.35.19.81.59,1.38.29.41.58.76.9,1.04.31.29.62.52.94.69.32.18.64.31.95.39.32.08.62.12.91.13,1.06,1.43,2.15,2.86,3.27,4.27-.88,0-1.78-.13-2.7-.4-.92-.28-1.83-.69-2.73-1.25-.9-.56-1.78-1.25-2.62-2.09-.84-.83-1.64-1.8-2.39-2.9ZM296.2,409.95c1.01,1.44,2.06,2.86,3.13,4.27.38,0,.69-.05.93-.14.23-.09.39-.22.47-.39.08-.17.09-.37.01-.61-.07-.24-.22-.51-.45-.81-.36-.48-.75-.88-1.19-1.19-.43-.32-.89-.57-1.36-.75-.48-.18-.99-.3-1.54-.37Z"/>
      <path class="cls-3" d="M295.35,420.75c6.89.11,13.6-.26,20.08-1.07,1.23,1.31,2.48,2.6,3.77,3.88-6.53.98-13.3,1.53-20.25,1.61-1.23-1.46-2.43-2.93-3.6-4.42Z"/>
      <path class="cls-3" d="M301.21,427.8c5.09-.14,10.08-.53,14.95-1.15,1.31,1.31,2.65,2.6,4.02,3.87-4.9.75-9.93,1.28-15.07,1.55-1.33-1.41-2.63-2.83-3.9-4.27ZM317.87,426.42c1.24-.17,2.47-.36,3.69-.56,1.32,1.26,2.67,2.5,4.05,3.72-1.23.24-2.47.46-3.71.66-1.37-1.26-2.71-2.53-4.03-3.82Z"/>
      <path class="cls-3" d="M310.49,437.5c3.77-1.83,7.41-3.78,10.93-5.84,1.49,1.36,3.02,2.69,4.58,4-1.23.62-2.47,1.22-3.73,1.81-.2.11-.5.25-.93.43-.43.18-.87.37-1.33.59-.46.21-.89.4-1.29.56.05.05.1.09.15.14.57.02,1.21.05,1.93.08.72.02,1.41.04,2.07.05.66.01,1.19.02,1.59.02,2.02.03,4.02.02,6.02-.03,1.49,1.16,3,2.3,4.55,3.43-6.58.06-13.26-.26-19.99-1-1.55-1.39-3.07-2.8-4.55-4.23Z"/>
      <path class="cls-3" d="M327.54,452.23c-1.57-1.16-2.6-2.23-3.12-3.19-.52-.97-.46-1.79.15-2.46.61-.68,1.86-1.18,3.71-1.54,1.81-.36,3.58-.46,5.34-.3,1.76.16,3.46.53,5.12,1.11,1.66.58,3.23,1.35,4.74,2.31,1.59,1.01,2.68,1.93,3.25,2.8.57.86.59,1.65.02,2.37-.57.72-1.79,1.37-3.66,1.89-.34.09-.67.19-1.01.28-3.45-2.14-6.79-4.37-10.02-6.69-.71.15-1.23.34-1.57.58-.34.23-.46.51-.34.85.12.33.49.73,1.12,1.18.45.32.88.57,1.31.76.43.19.84.33,1.25.41.4.09.78.13,1.15.12.36,0,.7-.05,1.02-.12,1.63,1.1,3.28,2.17,4.96,3.22-.93.25-1.94.37-3.01.35-1.07-.01-2.19-.16-3.34-.46-1.15-.29-2.32-.73-3.51-1.3-1.19-.57-2.37-1.29-3.54-2.16ZM334.84,448.19c1.58,1.11,3.2,2.2,4.83,3.27.41-.11.72-.24.94-.39.22-.15.34-.32.37-.51.03-.19-.04-.39-.2-.6-.16-.21-.42-.43-.77-.66-.55-.36-1.11-.64-1.69-.83-.57-.19-1.15-.31-1.72-.35-.57-.04-1.17-.02-1.78.06Z"/>
      <path class="cls-3" d="M337.69,458.85c5.36-1.3,10.57-2.83,15.63-4.57,1.45.79,2.92,1.56,4.4,2.32-.65.34-1.3.68-1.96,1.02.06.03.13.07.19.1.82-.09,1.62-.11,2.4-.07.78.04,1.52.14,2.22.3.7.17,1.33.38,1.89.64.37.18.67.35.89.52.22.17.36.3.42.39-1.6.64-3.22,1.26-4.86,1.86-.6-.29-1.2-.59-1.79-.89-.6-.3-1.18-.52-1.76-.68-.58-.16-1.16-.25-1.73-.27-.57-.02-1.15.01-1.73.1-.58.09-1.17.22-1.77.41-2.33.74-4.7,1.43-7.09,2.08-1.81-1.06-3.59-2.16-5.34-3.27Z"/>
      <path class="cls-3" d="M346.05,469.31c-.69-.38-1.25-.74-1.71-1.09-.45-.35-.78-.65-.99-.89,1.24-.33,2.47-.67,3.7-1.03.75.41,1.51.82,2.27,1.23.66.35,1.31.58,1.93.68.62.1,1.18.13,1.68.09.49-.04.89-.09,1.2-.16,3.38-2.78,6.62-5.64,9.72-8.58,2.01.93,4.05,1.82,6.11,2.68-1.46,1.14-2.94,2.26-4.44,3.37-.2.16-.47.37-.84.62-.36.25-.72.51-1.1.78-.37.27-.71.49-1.01.69.07.03.14.06.21.09.36-.07.76-.16,1.21-.26.45-.1.92-.2,1.4-.31.49-.11.95-.21,1.38-.31.43-.09.81-.18,1.13-.26,2.68-.64,5.34-1.33,7.96-2.07,1.94.73,3.91,1.43,5.89,2.1-6.81,1.79-13.78,3.22-20.89,4.26-1.36.2-2.69.34-3.99.42-1.3.08-2.57.07-3.8-.03-1.23-.1-2.43-.31-3.6-.64-1.17-.33-2.31-.79-3.41-1.39Z"/>
    </g>
  </g>
  </g>
</svg>
