<?xml version="1.0" encoding="UTF-8"?>
<svg id="Layer_1" xmlns="http://www.w3.org/2000/svg" version="1.1" viewBox="0 0 2000 700">
  <!-- Generator: Adobe Illustrator 30.1.0, SVG Export Plug-In . SVG Version: 2.1.1 Build 136)  -->
  <defs>
    <style>
      .st0, .st1 {
        fill: #f3f3ea;
      }

      .st1 {
        font-family: Helvetica-Bold, Helvetica;
        font-size: 180px;
        font-weight: 700;
        isolation: isolate;
        letter-spacing: -.06em;
      }
    </style>
    <filter id="ink-bleed" x="-30%" y="-40%" width="160%" height="180%">
      <feGaussianBlur in="SourceGraphic" stdDeviation="4" result="blur"/>
      <feColorMatrix
        in="blur"
        result="threshold"
        type="matrix"
        values="1 0 0 0 0
                0 1 0 0 0
                0 0 1 0 0
                0 0 0 35 -12"
      />
      <feComposite in="threshold" in2="SourceGraphic" operator="over"/>
    </filter>
  </defs>
  <g filter="url(#ink-bleed)">
    <text class="st1" transform="translate(60 250)"><tspan x="0" y="0">Handbuilt with</tspan></text>
    <text class="st1" transform="translate(60 500)"><tspan x="0" y="0">passion in Poland</tspan></text>
  </g>
  <path class="st0" d="M1477.7,396.19l-1.83-1.79c-.38-.37-.88-.5-1.42-.39-.4.09-.82.37-1.06.84-.93,1.81-2.71,3.07-4.8,3.07h-4.71c-3.29,0-5.97-2.57-6.32-5.76-.36-3.27,1.73-6.25,4.94-7.05.84-.21,1.48-.87,1.49-1.74v-1.76c.01-.87-.59-1.56-1.42-1.79-1.15-.31-2.19-.82-3.05-1.65-1.95-1.89-2.56-4.71-1.48-7.25.99-2.33,3.31-3.95,5.95-3.95h4.5c2.1,0,3.94,1.21,4.88,3.06.24.48.65.77,1.08.87.53.12,1.05-.03,1.43-.41l1.7-1.68c2.53-2.49,6.56-2.42,9.02.06,2.47,2.49,2.52,6.52,0,9.04l-3.37,3.39c-.61.62-.72,1.58-.08,2.24l3.52,3.56c2.46,2.48,2.36,6.45-.02,8.91-2.41,2.48-6.45,2.68-8.97.21h0ZM1476.09,382.44c0-1.7-1.38-3.08-3.08-3.08s-3.08,1.38-3.08,3.08,1.38,3.08,3.08,3.08,3.08-1.38,3.08-3.08Z"/>
</svg>
