<?xml version="1.0" encoding="UTF-8"?>
<svg id="Layer_1" xmlns="http://www.w3.org/2000/svg" version="1.1" viewBox="0 0 566.95 567">
  <!-- Generator: Adobe Illustrator 30.1.0, SVG Export Plug-In . SVG Version: 2.1.1 Build 136)  -->
  <defs>
    <style>
      .st0 {
        fill: #ffd400;
      }
    </style>
  </defs>
  <path class="st0" d="M369.22,535.11l-33.43-32.77c-6.9-6.77-16.02-9.21-25.93-7.07-7.34,1.59-14.96,6.83-19.34,15.35-17.05,33.16-49.59,56.14-87.83,56.13h-86.25c-60.25-.01-109.22-47.12-115.63-105.44-6.6-59.95,31.62-114.45,90.48-129.14,15.3-3.82,27.13-15.93,27.21-31.92l.17-32.26c.08-15.89-10.99-28.62-26.14-32.78-20.97-5.76-40.04-15.01-55.77-30.26C1.1,170.39-10.02,118.66,9.61,72.28,27.68,29.6,70.14,0,118.48,0h82.45c38.48.02,72.11,22.14,89.31,55.99,4.43,8.72,11.92,14.1,19.82,15.85,9.77,2.16,19.2-.6,26.2-7.5l31.16-30.68c46.27-45.55,120.08-44.27,165.14,1.11,45.29,45.61,46.12,119.28.09,165.46l-61.77,61.98c-11.25,11.29-13.26,29.01-1.46,40.93l64.49,65.13c45,45.45,43.24,118.07-.43,163.03-44.12,45.42-118.08,49.08-164.25,3.81ZM339.76,283.5c0-31.17-25.26-56.43-56.42-56.43s-56.42,25.26-56.42,56.43,25.26,56.43,56.42,56.43,56.42-25.26,56.42-56.43Z"/>
</svg>