<?xml version="1.0" encoding="UTF-8"?>
<svg id="Layer_1" xmlns="http://www.w3.org/2000/svg" version="1.1" viewBox="0 0 469.84 63.14">
  <!-- Generator: Adobe Illustrator 30.1.0, SVG Export Plug-In . SVG Version: 2.1.1 Build 136)  -->
  <defs>
    <style>
      .st0 {
        fill: #ffd400;
      }
    </style>
  </defs>
  <path class="st0" d="M31.35,21.86c-1-2.12-2.62-4.25-2.62-6.75,0-6.62,17.11-14.12,22.86-14.12,2.25,0,3.62,1,3.62,3.37,0,10.74-17.99,16.11-23.86,17.49h0Z"/>
  <path class="st0" d="M86.94,16.24c8.24,0,15.12,6.87,15.12,15.12s-6.87,15.49-15.12,15.49-15.49-6.87-15.49-15.49,6.87-15.12,15.49-15.12h0ZM104.18,5.25C99.18,1.75,93.06,0,86.57,0,69.08,0,55.21,14.12,55.21,31.36s13.87,31.48,31.36,31.48c6.5,0,12.62-1.87,17.61-5.25,2.12-1.37,3-.87,3,1.5,0,2.5,1.25,3.75,3.75,3.75h7.37c3.5,0,5.37-1.87,5.37-5.25V5.75c0-3.37-1.87-5.25-5.37-5.25h-7.74c-2.37,0-3.37,1-3.37,3.5s-1.12,2.62-3,1.25h-.01Z"/>
  <path class="st0" d="M291.07,16.24c8.25,0,15.12,6.87,15.12,15.12s-6.87,15.49-15.12,15.49-15.49-6.87-15.49-15.49,6.87-15.12,15.49-15.12h0ZM308.31,5.25C303.31,1.75,297.19,0,290.7,0,273.21,0,259.35,14.12,259.35,31.36s13.87,31.48,31.35,31.48c6.5,0,12.62-1.87,17.61-5.25,2.12-1.37,3-.87,3,1.5,0,2.5,1.25,3.75,3.75,3.75h7.37c3.5,0,5.37-1.87,5.37-5.25V5.75c0-3.37-1.87-5.25-5.37-5.25h-7.74c-2.37,0-3.37,1-3.37,3.5s-1.12,2.62-3,1.25h-.01Z"/>
  <path class="st0" d="M338.01,31.95h15.55c4.62,0,8.26,3.33,8.26,7.91,0,2.75-1.33,5.24-3.24,6.44,2.75,1.15,4.71,4.4,4.71,7.95,0,4.93-3.73,8.35-8.71,8.35h-16.57s0-30.65,0-30.65ZM345.38,38.84v4.8h6.22c1.33,0,2.4-1.02,2.4-2.4s-1.02-2.4-2.4-2.4c0,0-6.22,0-6.22,0ZM345.38,50.12v5.6h7.29c1.6,0,2.8-1.24,2.8-2.8s-1.2-2.8-2.8-2.8h-7.29Z"/>
  <rect class="st0" x="364.53" y="31.95" width="7.64" height="30.65"/>
  <polygon class="st0" points="375.41 31.95 383.05 31.95 383.05 44.3 392.38 31.95 401.71 31.95 390.25 46.34 402.06 62.6 392.6 62.6 385.36 52.21 383.05 54.83 383.05 62.6 375.41 62.6 375.41 31.95"/>
  <polygon class="st0" points="401.8 31.95 422.32 31.95 422.32 39.15 409.44 39.15 409.44 43.59 420.9 43.59 420.9 50.79 409.44 50.79 409.44 55.41 422.54 55.41 422.54 62.6 401.8 62.6 401.8 31.95"/>
  <path class="st0" d="M423.07,53.27h7.86c0,1.69,1.82,3.06,4.09,3.06,2.04,0,3.73-1.07,3.73-2.44,0-4.13-15.19-2.4-15.19-12.79,0-5.82,4.89-9.68,11.24-9.68s11.33,4.04,11.33,9.46h-7.82c0-1.51-1.55-2.67-3.6-2.67-1.78,0-3.33.89-3.33,2.31,0,4.22,15.24,1.82,15.24,12.48,0,6.13-5.11,10.13-11.68,10.13s-11.86-4.31-11.86-9.86h0Z"/>
  <path class="st0" d="M57.46,57.72c0,2.87-2.25,5.12-4.99,5.12h-5.5c-3.37,0-6-1.25-7.99-4l-8.87-12.12-.75-1c-1.13-1.12-2.63-1.87-4.25-1.87-3.25,0-5.87,2.62-5.87,5.75v8.24c0,3.37-1.63,5-5,5H0V.38h14.24c3.37,0,5,1.62,5,4.99v12c0,3.99,3.25,7.12,7.12,7.12h4.74l25.49,30.23-.03.06c.57.83.9,1.84.9,2.94Z"/>
  <path class="st0" d="M255.34,22.61v35.36c0,3.12-1.5,4.74-4.75,4.74h-7.37c-3.25,0-4.87-1.62-4.87-4.74v-28.74c0-6.74-5.62-12.36-12.37-12.36s-12.61,5.62-12.61,12.36v28.74c0,3.12-1.63,4.74-4.88,4.74h-8.49c-3.12,0-4.75-1.62-4.75-4.74V5.37c0-3.37,1.63-4.99,5-4.99h4.37c2.38,0,4,1.12,6.37,4.74,1.93,3.01,5.35,1.15,6.5.46.02-.02.03-.03.05-.04,3.99-3.31,9.12-5.29,14.69-5.29,12.49,0,22.73,9.87,23.11,22.36Z"/>
  <path class="st0" d="M189.75,22.61v35.36c0,3.12-1.49,4.74-4.74,4.74h-7.37c-3.25,0-4.87-1.62-4.87-4.74v-28.74c0-6.74-5.63-12.36-12.37-12.36s-12.62,5.62-12.62,12.36v28.74c0,3.12-1.62,4.74-4.87,4.74h-8.49c-3.13,0-4.75-1.62-4.75-4.74V5.37c0-3.37,1.62-4.99,5-4.99h4.37c2.37,0,3.99,1.12,6.37,4.74,1.92,3,5.32,1.17,6.48.47,0-.01,0-.01.02-.01,4-3.33,9.14-5.33,14.73-5.33,12.5,0,22.74,9.87,23.11,22.36Z"/>
  <path class="st0" d="M468.95,25.87c-1.19,1.65-3.32,2.36-5.26,1.72-.72-.23-1.36-.63-1.9-1.16l-1.23-1.22c-.26-.25-.61-.34-.96-.28-.7.12-.84.71-1.17,1.18-.73,1.03-1.94,1.71-3.21,1.71h-3.38c-.48,0-1.06-.09-1.51-.24-1.23-.41-2.21-1.29-2.77-2.46-.43-.92-.56-2-.34-3,.34-1.55,1.38-2.78,2.85-3.37.25-.1.49-.17.75-.25.57-.18.99-.67.99-1.28v-1.53c0-.62-.42-1.11-1-1.3-.27-.08-.53-.15-.79-.26-1.42-.59-2.49-1.85-2.8-3.36-.49-2.36.83-4.67,3.1-5.44.44-.15,1.02-.25,1.5-.25h3.35c.39,0,.9.09,1.27.21.81.28,1.5.79,2,1.49.32.45.48,1.06,1.14,1.18.36.07.73-.01.99-.27l1.22-1.2c.55-.54,1.18-.94,1.91-1.18,1.93-.64,4.07.06,5.26,1.7.89,1.22,1.14,2.8.67,4.24-.23.69-.64,1.36-1.15,1.88l-2.53,2.55c-.43.44-.41,1.14.02,1.58l2.56,2.57c.32.32.62.76.82,1.15.8,1.57.65,3.45-.38,4.88ZM460.74,16.45c0-1.25-1.01-2.26-2.26-2.26s-2.26,1.01-2.26,2.26,1.01,2.26,2.26,2.26,2.26-1.01,2.26-2.26Z"/>
</svg>