<?xml version="1.0" encoding="UTF-8"?>
<svg id="Layer_1" xmlns="http://www.w3.org/2000/svg" version="1.1" viewBox="0 0 566.95 567">
  <!-- Generator: Adobe Illustrator 30.1.0, SVG Export Plug-In . SVG Version: 2.1.1 Build 136)  -->
  <defs>
    <style>
      .st0 {
        fill: #606161;
      }

      .st1 {
        fill: #ffd400;
      }

      .st2 {
        fill: #231f20;
      }
    </style>
  </defs>
  <path class="st1" d="M369.22,535.11l-33.43-32.77c-6.9-6.77-16.02-9.21-25.93-7.07-7.34,1.59-14.96,6.83-19.34,15.35-17.05,33.16-49.59,56.14-87.83,56.13h-86.25c-60.25-.01-109.22-47.12-115.63-105.44-6.6-59.95,31.62-114.45,90.48-129.14,15.3-3.82,27.13-15.93,27.21-31.92l.17-32.26c.08-15.89-10.99-28.62-26.14-32.78-20.97-5.76-40.04-15.01-55.77-30.26C1.1,170.39-10.02,118.66,9.61,72.28,27.68,29.6,70.14,0,118.48,0h82.45c38.48.02,72.11,22.14,89.31,55.99,4.43,8.72,11.92,14.1,19.82,15.85,9.77,2.16,19.2-.6,26.2-7.5l31.16-30.68c46.27-45.55,120.08-44.27,165.14,1.11,45.29,45.61,46.12,119.28.09,165.46l-61.77,61.98c-11.25,11.29-13.26,29.01-1.46,40.93l64.49,65.13c45,45.45,43.24,118.07-.43,163.03-44.12,45.42-118.08,49.08-164.25,3.81ZM339.76,283.5c0-31.17-25.26-56.43-56.42-56.43s-56.42,25.26-56.42,56.43,25.26,56.43,56.42,56.43,56.42-25.26,56.42-56.43Z"/>
  <circle class="st0" cx="870.43" cy="283.58" r="283.48"/>
  <path class="st2" d="M1027.92,425.06c-17.89,24.85-49.96,35.43-79.12,25.92-10.75-3.5-20.45-9.51-28.49-17.42l-18.56-18.26c-3.89-3.83-9.18-5.14-14.43-4.28-10.46,1.73-12.58,10.67-17.6,17.74-10.97,15.46-29.2,25.64-48.23,25.67l-50.87.08c-7.21.01-15.96-1.46-22.73-3.74-18.43-6.19-33.27-19.41-41.59-36.96-6.53-13.77-8.43-30.11-5.11-45.03,5.18-23.28,20.75-41.75,42.82-50.66,3.73-1.51,7.44-2.48,11.29-3.71,8.52-2.72,14.84-10,14.85-19.22v-23.05c.02-9.36-6.3-16.75-14.99-19.48-4.06-1.27-7.99-2.32-11.89-3.94-21.32-8.87-37.39-27.83-42.11-50.52-7.39-35.49,12.53-70.25,46.58-81.79,6.69-2.27,15.4-3.76,22.48-3.76h50.36c5.94-.01,13.49,1.32,19.08,3.22,12.23,4.17,22.54,11.87,30,22.39,4.81,6.79,7.22,15.9,17.13,17.74,5.46,1.01,10.93-.21,14.8-4.02l18.36-18.06c8.2-8.07,17.73-14.09,28.66-17.7,29.02-9.59,61.21.89,79.11,25.53,13.34,18.36,17.17,42.05,10.06,63.67-3.4,10.33-9.59,20.5-17.27,28.23l-38,38.27c-6.53,6.57-6.23,17.18.31,23.77l38.42,38.69c4.76,4.79,9.36,11.37,12.39,17.35,11.98,23.61,9.78,51.84-5.68,73.33ZM904.45,283.57c0-18.8-15.24-34.03-34.03-34.03s-34.03,15.24-34.03,34.03,15.24,34.03,34.03,34.03,34.03-15.24,34.03-34.03Z"/>
</svg>