<?xml version="1.0" encoding="UTF-8"?>
<svg id="Layer_1" xmlns="http://www.w3.org/2000/svg" version="1.1" viewBox="0 0 566.95 567">
  <!-- Generator: Adobe Illustrator 30.1.0, SVG Export Plug-In . SVG Version: 2.1.1 Build 136)  -->
  <path d="M530.11,352.14l-44.64-44.58.06-.06c-13.27-13.27-13.27-34.8,0-48.07h-.06s44.64-44.58,44.64-44.58l-.02-.02c49.15-49.15,49.15-128.83,0-177.98-49.15-49.15-128.83-49.15-177.98,0l-.02-.02-19.5,19.56v-.06c-7.49,7.5-18.06,11.07-28.57,9.65-10.51-1.42-19.75-7.65-25-16.87h-.02C261.71,18.76,229.45,0,194.5,0h-.03s-97.23,0-97.23,0C51.43,0,11.83,31.98,2.19,76.76c-9.64,44.78,13.28,90.22,55.03,109.08l-.02.07c24.36,11,40.02,35.25,40.02,61.98v71.19-.03c0,26.73-15.66,50.98-40.02,61.98l.02.07C15.47,399.96-7.46,445.4,2.19,490.18c9.64,44.78,49.24,76.76,95.05,76.76l-.03.06h97.26l.03-.06c34.95,0,67.21-18.76,84.5-49.13h.02c5.25-9.21,14.49-15.45,25-16.87,10.51-1.42,21.08,2.15,28.57,9.65h0s19.5,19.56,19.5,19.56l.02-.08c49.15,49.15,128.83,49.15,177.98,0,49.15-49.15,49.15-128.83,0-177.98l.02.04ZM283.48,340.14c-31.3,0-56.67-25.37-56.67-56.67s25.37-56.67,56.67-56.67,56.67,25.37,56.67,56.67-25.37,56.67-56.67,56.67Z"/>
</svg>