<?xml version="1.0" encoding="UTF-8"?>
<svg id="Layer_1" xmlns="http://www.w3.org/2000/svg" version="1.1" viewBox="0 0 371.23 446.17">
  <!-- Generator: Adobe Illustrator 30.1.0, SVG Export Plug-In . SVG Version: 2.1.1 Build 136)  -->
  <path d="M180.55,312.96c-2.48-3.09-1.76-7.83-5.58-8.17-1.27-.11-3.37.37-4.31,1.36-2.58,2.72-9.06,11.22-10.67,14.24l-5.74,10.73c-.98,1.83-2.34,3.88-2.15,5.92.34,3.75-1.67,7.08-4.59,9.41l-9.68,7.72c-3.83,3.06-6.5,6.91-7.56,11.79l-1.87,8.62c-2.87,13.23-8.54,15.08-10.08,21.94-.84,3.75-2.88,6.13-4.78,9.19l-6.75,10.85c-1.68,2.69-2.81,6.66-5.24,8.74-4.86,4.16-10.26,7.28-15.36,11.11-1.32,3.99-4.69,5.77-8.81,5.77l-57.78-.05c-2.43-.83-4.44-2.7-6.39-4.25-4.24-3.36-10.91.63-10.75-5.71.06-2.37-.02-4.96.5-7.17,1.67-7.15-2.87-10.43-2.89-18.75l-.04-16.86,9.02-3.79,9.44-5.56c4.25.96,8.17,1.34,12.43,1.17.84-2.47,2.83-2.92,5.09-3.19l9.5-1.15,9.94-2.34c6.14-1.45,12.83-.14,19.36-.39l2.33-4.67c1.02-2.05,1.35-4.67,2.29-6.84,1.55-3.58,10.35-10.61,10.65-14.93.59-8.31,2.82-15.3,7.92-21.97,4.75-6.2,5.64-15.9,10.78-20.6,3.05-2.79,4.82-6.21,6.84-9.74,5.11-8.93,11.34-16.66,17.75-24.59l6.32-7.8c1.95-2.41,4.62-5.17,4.63-8.62l.05-19.86c-2.62-3.12-4.72-5.97-6.81-9.34-1.03-1.65-2.91-3.36-5-3.51-1.63-.11-3.28,4.16-4.79,3.65-2.91-.97-2.05-4.24-7.93-1.58-3.99,1.8-9.22,1.92-12.33-1.5-1.64-1.8-.89-5.01-1.82-7.07l-3.34-7.45c-1.4-9.52-2.9-18.5-5.53-27.72-.61-2.15-.66-4.65-1.13-6.92s-1.25-5.16-.55-7.41l2.15-7c2.87-9.34,2.76-15.54,9.35-23.48,1.08-1.3,1.99-2.41,2.94-3.72,9.15-12.5,2.04-6.01,14.43-17.48l6.21-5.76c3.54-3.28,6.37-7.79,10.75-10.05,3.6-1.86,6.85-3.44,10.07-6.03,2.01-1.62,4.94-2.53,7.11-3.93,8.45-5.43,6.35,1.54,12.06-5.9l3.35-4.37-6.36-6.3c-6.53-6.46-12.73-13.94-13.31-23.61l-.33-5.51c-.14-2.42-.26-4.66-1.4-6.79-1.02-1.9-1.03-3.95.43-5.59l5.65-6.39c5.66-6.4,2.46-8.26,7.91-11.5l7.08-4.21,1.83,2.41c1.62-.49,3.37-1.41,4.7-2.49,6.75-5.45,9.46-3.01,16.71-6.99,4.14-2.27,7.63-.41,10.57,2.39,6.13,5.84,12.14,6.58,16.04,8.84,2.99,1.73,6.88.6,9.96,1.63l8.31,2.8c3.78,2.42,9.58,10.67,9.72,14.38l.41,11.43c.13,3.47.48,6.44-.35,9.84-.41,1.67-1.03,4.02-1.12,5.7l-.56,11.58-2.76,1.77c-1.39,3.06-3.46,5.09-5.74,7.32l-7.84,7.65c-1.44,1.41-3.16-.83-4.5-1.03-1.86-.28-7.23,2.1-7.59,2.73-1.41,2.46,2.11,5.66,4.84,6.98l10.84,5.26c14.11,13.65,5.88,1,14.57,16.72,2.19,3.97-1.03,6.28,2.5,8.05,1.98,1,4.83,1.9,6.33,3.59,2.77,3.11,3.96,7.19,5.65,10.88,2.24,4.9,7.19,9.63,9.43,16.9.74,2.4,1.07,4.42,3.19,6,1.27.95,1.97,2.81,1.98,4.53l.13,37.62c0,1.54,1.31,3.64.6,5.07-1.77,3.58-2.52,7.21-3.88,10.8s-3.08,7-3.83,11.03c-.64,3.45-1.68,7.27-4.75,9.21l-5.57,3.51c-8.68,5.48-8.69,6.79-15.68,12.74-4.37,3.72-8.96,6.91-12.33,11.79-1.44,14.06,1.27,11.75,3.89,17.42l4.94,10.68c.61,1.31,1.4,3.88,2.93,4.22,6.57,1.44,8.34-.45,11.6,7.66,2.95,1.98,4.94,4.57,6.9,7.61,6.78,10.5,14.47,19.85,22.88,29.02,5.99,6.54,10.83,13.28,15.01,20.99l8.62,15.91c1.72,3.17,4.44,5.73,6.7,8.98h31.16c2.74.01,5.44-3.03,7.43-.47,2.73,3.51,7.99,6.56,12.48,6.57l-.99,5.84c-.43,2.55.84,4.12,1.89,6.15,1.78,3.46.37,8.68-2.15,11.47-3.58,3.96-7.06,7.2-11.05,10.58-1.73,1.47-4.06,1.83-6.21,2.78-3.36,1.49-6.12,4.16-9.08,6.34-12.31,9.1-10.41,1.9-19.89,4.14-8.34,1.97-8.35,2.64-11.95-1.4-1.94-2.17-4.44-3.69-7.41-3.68l-28.96.06-7.08-8.45c-6.65-7.94-10.72-6.2-14.71-19.88-1.03-3.51-3.41-6.82-5.16-10.13-.83-1.57-3.53-1.68-4.97-2.47-7.75-4.24-9.76-10.97-18.19-18.26-4.8-4.15-8.76-8.78-12.75-13.74-10.92-13.53-5.18-9.38-10.05-16.95-1.7-2.64-3.54-5.44-4.27-8.47-.94-3.86-2.46-6.99-4.1-10.55-.99-2.15-1.42-4.7-2.9-6.54l-8.96-11.19ZM149.76,190.7l.33-7.52.43-9.72.38-6.07c.15-2.44.1-4.91.72-7.22l1.35-5.1,1.84-16.57,1.6-13.64c-1.95.11-11.96,7.82-13.23,8.95-2.37,2.12-3.06,5.96-5.14,8.36s-4.72,4.45-7.26,6.98l-.04,32.8c0,1.91,1.27,2.81,2.57,4.02l6.17,5.79,9.17,8.45c.54-3.47.96-6.25,1.11-9.5ZM248.43,201.94l-.26-5.1c-.12-2.35-.8-4.99.24-7.5,2.66-6.39,3.35-13.89-.65-20-3.07-4.68-9.08-1.84-9.36-8.48-2.69-4.5-5.51-8.49-10.09-12.28l-.06,63.29c1.88,4.56.99,8.55-.25,13.16-.2.76-.83,9.79.63,10.98l3.96-5.83c1.9-2.8,3.24-5.71,4.8-8.76,2.67-5.24,11.31-14.29,11.04-19.49Z"/>
</svg>