<?xml version="1.0" encoding="UTF-8"?>
<svg id="Layer_1" xmlns="http://www.w3.org/2000/svg" version="1.1" viewBox="0 0 2000 700">
  <!-- Generator: Adobe Illustrator 30.1.0, SVG Export Plug-In . SVG Version: 2.1.1 Build 136)  -->
  <defs>
    <style>
      .st0, .st1 {
        fill: #fff;
      }

      .st1 {
        font-family: Helvetica-Bold, Helvetica;
        font-size: 180px;
        font-weight: 700;
        isolation: isolate;
        letter-spacing: -.06em;
      }
    </style>
    <filter id="ink-bleed" x="-30%" y="-40%" width="160%" height="180%">
      <feGaussianBlur in="SourceGraphic" stdDeviation="4" result="blur"/>
      <feColorMatrix
        in="blur"
        result="threshold"
        type="matrix"
        values="1 0 0 0 0
                0 1 0 0 0
                0 0 1 0 0
                0 0 0 35 -12"
      />
      <feComposite in="threshold" in2="SourceGraphic" operator="over"/>
    </filter>
  </defs>
  <g filter="url(#ink-bleed)">
    <text class="st1" transform="translate(60 250)"><tspan x="0" y="0">Ręcznie budowane</tspan></text>
    <text class="st1" transform="translate(60 500)"><tspan x="0" y="0">z pasją w Polsce</tspan></text>
  </g>
  <path class="st0" d="M1367.03,398.41l-1.73-1.69c-.36-.35-.83-.48-1.34-.37-.38.08-.77.35-1,.79-.88,1.71-2.56,2.9-4.54,2.9h-4.46c-3.12,0-5.65-2.44-5.98-5.45-.34-3.1,1.64-5.92,4.68-6.68.79-.2,1.4-.82,1.41-1.65v-1.67c.01-.82-.56-1.48-1.34-1.7-1.08-.3-2.07-.78-2.88-1.56-1.84-1.79-2.42-4.46-1.4-6.86.93-2.21,3.13-3.74,5.63-3.74h4.26c1.99,0,3.73,1.14,4.62,2.9.23.45.62.73,1.02.82.51.11.99-.03,1.35-.39l1.61-1.59c2.39-2.36,6.21-2.29,8.54.06,2.34,2.36,2.38,6.17,0,8.56l-3.19,3.21c-.58.58-.69,1.5-.08,2.12l3.33,3.37c2.33,2.35,2.24,6.11-.02,8.43-2.28,2.35-6.11,2.54-8.49.2h0ZM1365.5,385.4c0-1.61-1.31-2.92-2.92-2.92s-2.92,1.31-2.92,2.92,1.31,2.92,2.92,2.92,2.92-1.31,2.92-2.92Z"/>
</svg>
