<?xml version="1.0" encoding="UTF-8"?>
<svg id="Layer_8" data-name="Layer 8" xmlns="http://www.w3.org/2000/svg" viewBox="0 0 375.51 376.41">
  <defs>
    <style>
      .cls-1, .cls-2 {
        fill: none;
      }

      .cls-3, .cls-4 {
        fill: #231f20;
      }

      .cls-2 {
        stroke: #000;
        stroke-linecap: round;
        stroke-linejoin: round;
      }

      .cls-4 {
        fill-rule: evenodd;
      }
    </style>
    <filter id="soft-ink" x="-15%" y="-15%" width="130%" height="130%">
      <feMorphology in="SourceAlpha" operator="dilate" radius=".45" result="spread"/>
      <feGaussianBlur in="spread" stdDeviation=".9" result="ink-blur"/>
      <feFlood flood-color="#231f20" flood-opacity=".28" result="ink-color"/>
      <feComposite in="ink-color" in2="ink-blur" operator="in" result="ink"/>
      <feMerge>
        <feMergeNode in="ink"/>
        <feMergeNode in="SourceGraphic"/>
      </feMerge>
    </filter>
  </defs>
  <g filter="url(#soft-ink)">
    <g>
      <g>
        <rect class="cls-1" x="26.31" y="345.72" width="9.6" height="8.46"/>
        <rect class="cls-3" x="30.77" y="346.35" width=".96" height="1.57"/>
        <rect class="cls-3" x="30.77" y="349.17" width=".96" height="1.57"/>
        <rect class="cls-3" x="30.77" y="351.97" width=".96" height="1.57"/>
      </g>
      <g>
        <rect class="cls-1" x="26.31" y="320.33" width="9.6" height="8.46"/>
        <rect class="cls-3" x="30.77" y="320.96" width=".96" height="1.57"/>
        <rect class="cls-3" x="30.77" y="323.78" width=".96" height="1.57"/>
        <rect class="cls-3" x="30.77" y="326.58" width=".96" height="1.57"/>
      </g>
      <g>
        <rect class="cls-1" x="26.31" y="294.95" width="9.6" height="8.46"/>
        <rect class="cls-3" x="30.77" y="295.57" width=".96" height="1.57"/>
        <rect class="cls-3" x="30.77" y="298.39" width=".96" height="1.57"/>
        <rect class="cls-3" x="30.77" y="301.2" width=".96" height="1.57"/>
      </g>
      <g>
        <rect class="cls-1" x="26.31" y="269.56" width="9.6" height="8.46"/>
        <rect class="cls-3" x="30.77" y="270.18" width=".96" height="1.57"/>
        <rect class="cls-3" x="30.77" y="273" width=".96" height="1.57"/>
        <rect class="cls-3" x="30.77" y="275.81" width=".96" height="1.57"/>
      </g>
      <g>
        <rect class="cls-1" x="26.31" y="244.17" width="9.6" height="8.46"/>
        <rect class="cls-3" x="30.77" y="244.79" width=".96" height="1.57"/>
        <rect class="cls-3" x="30.77" y="247.61" width=".96" height="1.57"/>
        <rect class="cls-3" x="30.77" y="250.42" width=".96" height="1.57"/>
      </g>
      <g>
        <rect class="cls-1" x="26.31" y="218.78" width="9.6" height="8.46"/>
        <rect class="cls-3" x="30.77" y="219.4" width=".96" height="1.57"/>
        <rect class="cls-3" x="30.77" y="222.22" width=".96" height="1.57"/>
        <rect class="cls-3" x="30.77" y="225.03" width=".96" height="1.57"/>
      </g>
      <g>
        <rect class="cls-1" x="26.31" y="193.39" width="9.6" height="8.46"/>
        <rect class="cls-3" x="30.77" y="194.02" width=".96" height="1.57"/>
        <rect class="cls-3" x="30.77" y="196.83" width=".96" height="1.57"/>
        <rect class="cls-3" x="30.77" y="199.64" width=".96" height="1.57"/>
      </g>
      <g>
        <rect class="cls-1" x="26.31" y="168" width="9.6" height="8.46"/>
        <rect class="cls-3" x="30.77" y="168.63" width=".96" height="1.57"/>
        <rect class="cls-3" x="30.77" y="171.45" width=".96" height="1.57"/>
        <rect class="cls-3" x="30.77" y="174.25" width=".96" height="1.57"/>
      </g>
      <g>
        <rect class="cls-1" x="26.31" y="142.61" width="9.6" height="8.46"/>
        <rect class="cls-3" x="30.77" y="143.24" width=".96" height="1.57"/>
        <rect class="cls-3" x="30.77" y="146.06" width=".96" height="1.57"/>
        <rect class="cls-3" x="30.77" y="148.86" width=".96" height="1.57"/>
      </g>
      <g>
        <rect class="cls-1" x="26.31" y="117.23" width="9.6" height="8.46"/>
        <rect class="cls-3" x="30.77" y="117.85" width=".96" height="1.57"/>
        <rect class="cls-3" x="30.77" y="120.67" width=".96" height="1.57"/>
        <rect class="cls-3" x="30.77" y="123.48" width=".96" height="1.57"/>
      </g>
      <g>
        <rect class="cls-1" x="26.31" y="91.84" width="9.6" height="8.46"/>
        <rect class="cls-3" x="30.77" y="92.46" width=".96" height="1.57"/>
        <rect class="cls-3" x="30.77" y="95.28" width=".96" height="1.57"/>
        <rect class="cls-3" x="30.77" y="98.09" width=".96" height="1.57"/>
      </g>
      <g>
        <rect class="cls-1" x="53.26" y="65.31" width="8.68" height="9.6"/>
        <rect class="cls-3" x="59.69" y="69.77" width="1.61" height=".96"/>
        <rect class="cls-3" x="56.8" y="69.77" width="1.61" height=".96"/>
        <rect class="cls-3" x="53.92" y="69.77" width="1.61" height=".96"/>
      </g>
      <g>
        <rect class="cls-1" x="79.29" y="65.31" width="8.68" height="9.6"/>
        <rect class="cls-3" x="85.72" y="69.77" width="1.61" height=".96"/>
        <rect class="cls-3" x="82.83" y="69.77" width="1.61" height=".96"/>
        <rect class="cls-3" x="79.95" y="69.77" width="1.61" height=".96"/>
      </g>
      <g>
        <rect class="cls-1" x="105.32" y="65.31" width="8.68" height="9.6"/>
        <rect class="cls-3" x="111.75" y="69.77" width="1.61" height=".96"/>
        <rect class="cls-3" x="108.86" y="69.77" width="1.61" height=".96"/>
        <rect class="cls-3" x="105.98" y="69.77" width="1.61" height=".96"/>
      </g>
      <g>
        <rect class="cls-1" x="131.35" y="65.31" width="8.68" height="9.6"/>
        <rect class="cls-3" x="137.78" y="69.77" width="1.61" height=".96"/>
        <rect class="cls-3" x="134.89" y="69.77" width="1.61" height=".96"/>
        <rect class="cls-3" x="132.01" y="69.77" width="1.61" height=".96"/>
      </g>
      <g>
        <rect class="cls-1" x="157.39" y="65.31" width="8.68" height="9.6"/>
        <rect class="cls-3" x="163.81" y="69.77" width="1.61" height=".96"/>
        <rect class="cls-3" x="160.92" y="69.77" width="1.61" height=".96"/>
        <rect class="cls-3" x="158.04" y="69.77" width="1.61" height=".96"/>
      </g>
      <g>
        <rect class="cls-1" x="183.42" y="65.31" width="8.68" height="9.6"/>
        <rect class="cls-3" x="189.84" y="69.77" width="1.61" height=".96"/>
        <rect class="cls-3" x="186.95" y="69.77" width="1.61" height=".96"/>
        <rect class="cls-3" x="184.07" y="69.77" width="1.61" height=".96"/>
      </g>
      <g>
        <rect class="cls-1" x="209.45" y="65.31" width="8.68" height="9.6"/>
        <rect class="cls-3" x="215.87" y="69.77" width="1.61" height=".96"/>
        <rect class="cls-3" x="212.98" y="69.77" width="1.61" height=".96"/>
        <rect class="cls-3" x="210.1" y="69.77" width="1.61" height=".96"/>
      </g>
      <g>
        <rect class="cls-1" x="235.48" y="65.31" width="8.68" height="9.6"/>
        <rect class="cls-3" x="241.9" y="69.77" width="1.61" height=".96"/>
        <rect class="cls-3" x="239.01" y="69.77" width="1.61" height=".96"/>
        <rect class="cls-3" x="236.13" y="69.77" width="1.61" height=".96"/>
      </g>
      <g>
        <rect class="cls-1" x="261.51" y="65.31" width="8.68" height="9.6"/>
        <rect class="cls-3" x="267.93" y="69.77" width="1.61" height=".96"/>
        <rect class="cls-3" x="265.04" y="69.77" width="1.61" height=".96"/>
        <rect class="cls-3" x="262.16" y="69.77" width="1.61" height=".96"/>
      </g>
      <g>
        <rect class="cls-1" x="287.54" y="65.31" width="8.68" height="9.6"/>
        <rect class="cls-3" x="293.96" y="69.77" width="1.61" height=".96"/>
        <rect class="cls-3" x="291.07" y="69.77" width="1.61" height=".96"/>
        <rect class="cls-3" x="288.19" y="69.77" width="1.61" height=".96"/>
      </g>
      <g>
        <rect class="cls-1" x="313.57" y="65.31" width="8.68" height="9.6"/>
        <rect class="cls-3" x="319.99" y="69.77" width="1.61" height=".96"/>
        <rect class="cls-3" x="317.1" y="69.77" width="1.61" height=".96"/>
        <rect class="cls-3" x="314.23" y="69.77" width="1.61" height=".96"/>
      </g>
      <g>
        <rect class="cls-1" x="339.6" y="91.84" width="9.6" height="8.46"/>
        <rect class="cls-3" x="343.78" y="98.1" width=".96" height="1.57"/>
        <rect class="cls-3" x="343.78" y="95.29" width=".96" height="1.57"/>
        <rect class="cls-3" x="343.78" y="92.48" width=".96" height="1.57"/>
      </g>
      <g>
        <rect class="cls-1" x="339.6" y="117.23" width="9.6" height="8.46"/>
        <rect class="cls-3" x="343.78" y="123.49" width=".96" height="1.57"/>
        <rect class="cls-3" x="343.78" y="120.67" width=".96" height="1.57"/>
        <rect class="cls-3" x="343.78" y="117.87" width=".96" height="1.57"/>
      </g>
      <g>
        <rect class="cls-1" x="339.6" y="142.61" width="9.6" height="8.46"/>
        <rect class="cls-3" x="343.78" y="148.88" width=".96" height="1.57"/>
        <rect class="cls-3" x="343.78" y="146.06" width=".96" height="1.57"/>
        <rect class="cls-3" x="343.78" y="143.25" width=".96" height="1.57"/>
      </g>
      <g>
        <rect class="cls-1" x="339.6" y="168" width="9.6" height="8.46"/>
        <rect class="cls-3" x="343.78" y="174.27" width=".96" height="1.57"/>
        <rect class="cls-3" x="343.78" y="171.45" width=".96" height="1.57"/>
        <rect class="cls-3" x="343.78" y="168.64" width=".96" height="1.57"/>
      </g>
      <g>
        <rect class="cls-1" x="339.6" y="193.39" width="9.6" height="8.46"/>
        <rect class="cls-3" x="343.78" y="199.66" width=".96" height="1.57"/>
        <rect class="cls-3" x="343.78" y="196.84" width=".96" height="1.57"/>
        <rect class="cls-3" x="343.78" y="194.03" width=".96" height="1.57"/>
      </g>
      <g>
        <rect class="cls-1" x="339.6" y="218.78" width="9.6" height="8.46"/>
        <rect class="cls-3" x="343.78" y="225.05" width=".96" height="1.57"/>
        <rect class="cls-3" x="343.78" y="222.23" width=".96" height="1.57"/>
        <rect class="cls-3" x="343.78" y="219.42" width=".96" height="1.57"/>
      </g>
      <g>
        <rect class="cls-1" x="339.6" y="244.17" width="9.6" height="8.46"/>
        <rect class="cls-3" x="343.78" y="250.44" width=".96" height="1.57"/>
        <rect class="cls-3" x="343.78" y="247.62" width=".96" height="1.57"/>
        <rect class="cls-3" x="343.78" y="244.81" width=".96" height="1.57"/>
      </g>
      <g>
        <rect class="cls-1" x="339.6" y="269.56" width="9.6" height="8.46"/>
        <rect class="cls-3" x="343.78" y="275.82" width=".96" height="1.57"/>
        <rect class="cls-3" x="343.78" y="273.01" width=".96" height="1.57"/>
        <rect class="cls-3" x="343.78" y="270.2" width=".96" height="1.57"/>
      </g>
      <g>
        <rect class="cls-1" x="339.6" y="294.95" width="9.6" height="8.46"/>
        <rect class="cls-3" x="343.78" y="301.21" width=".96" height="1.57"/>
        <rect class="cls-3" x="343.78" y="298.39" width=".96" height="1.57"/>
        <rect class="cls-3" x="343.78" y="295.59" width=".96" height="1.57"/>
      </g>
      <g>
        <rect class="cls-1" x="339.6" y="320.33" width="9.6" height="8.46"/>
        <rect class="cls-3" x="343.78" y="326.6" width=".96" height="1.57"/>
        <rect class="cls-3" x="343.78" y="323.78" width=".96" height="1.57"/>
        <rect class="cls-3" x="343.78" y="320.98" width=".96" height="1.57"/>
      </g>
      <g>
        <rect class="cls-1" x="339.6" y="345.72" width="9.6" height="8.46"/>
        <rect class="cls-3" x="343.78" y="351.99" width=".96" height="1.57"/>
        <rect class="cls-3" x="343.78" y="349.17" width=".96" height="1.57"/>
        <rect class="cls-3" x="343.78" y="346.36" width=".96" height="1.57"/>
      </g>
      <g>
        <rect class="cls-1" x="313.57" y="371.11" width="8.68" height="9.6"/>
        <rect class="cls-3" x="314.21" y="375.29" width="1.61" height=".96"/>
        <rect class="cls-3" x="317.1" y="375.29" width="1.61" height=".96"/>
        <rect class="cls-3" x="319.98" y="375.29" width="1.61" height=".96"/>
      </g>
      <g>
        <rect class="cls-1" x="287.54" y="371.11" width="8.68" height="9.6"/>
        <rect class="cls-3" x="288.18" y="375.29" width="1.61" height=".96"/>
        <rect class="cls-3" x="291.07" y="375.29" width="1.61" height=".96"/>
        <rect class="cls-3" x="293.95" y="375.29" width="1.61" height=".96"/>
      </g>
      <g>
        <rect class="cls-1" x="261.51" y="371.11" width="8.68" height="9.6"/>
        <rect class="cls-3" x="262.15" y="375.29" width="1.61" height=".96"/>
        <rect class="cls-3" x="265.04" y="375.29" width="1.61" height=".96"/>
        <rect class="cls-3" x="267.92" y="375.29" width="1.61" height=".96"/>
      </g>
      <g>
        <rect class="cls-1" x="235.48" y="371.11" width="8.68" height="9.6"/>
        <rect class="cls-3" x="236.12" y="375.29" width="1.61" height=".96"/>
        <rect class="cls-3" x="239.01" y="375.29" width="1.61" height=".96"/>
        <rect class="cls-3" x="241.89" y="375.29" width="1.61" height=".96"/>
      </g>
      <g>
        <rect class="cls-1" x="209.45" y="371.11" width="8.68" height="9.6"/>
        <rect class="cls-3" x="210.09" y="375.29" width="1.61" height=".96"/>
        <rect class="cls-3" x="212.98" y="375.29" width="1.61" height=".96"/>
        <rect class="cls-3" x="215.85" y="375.29" width="1.61" height=".96"/>
      </g>
      <g>
        <rect class="cls-1" x="183.42" y="371.11" width="8.68" height="9.6"/>
        <rect class="cls-3" x="184.06" y="375.29" width="1.61" height=".96"/>
        <rect class="cls-3" x="186.95" y="375.29" width="1.61" height=".96"/>
        <rect class="cls-3" x="189.82" y="375.29" width="1.61" height=".96"/>
      </g>
      <g>
        <rect class="cls-1" x="157.39" y="371.11" width="8.68" height="9.6"/>
        <rect class="cls-3" x="158.03" y="375.29" width="1.61" height=".96"/>
        <rect class="cls-3" x="160.91" y="375.29" width="1.61" height=".96"/>
        <rect class="cls-3" x="163.79" y="375.29" width="1.61" height=".96"/>
      </g>
      <g>
        <rect class="cls-1" x="131.35" y="371.11" width="8.68" height="9.6"/>
        <rect class="cls-3" x="132" y="375.29" width="1.61" height=".96"/>
        <rect class="cls-3" x="134.88" y="375.29" width="1.61" height=".96"/>
        <rect class="cls-3" x="137.76" y="375.29" width="1.61" height=".96"/>
      </g>
      <g>
        <rect class="cls-1" x="105.32" y="371.11" width="8.68" height="9.6"/>
        <rect class="cls-3" x="105.97" y="375.29" width="1.61" height=".96"/>
        <rect class="cls-3" x="108.85" y="375.29" width="1.61" height=".96"/>
        <rect class="cls-3" x="111.73" y="375.29" width="1.61" height=".96"/>
      </g>
      <g>
        <rect class="cls-1" x="79.29" y="371.11" width="8.68" height="9.6"/>
        <rect class="cls-3" x="79.93" y="375.29" width="1.61" height=".96"/>
        <rect class="cls-3" x="82.82" y="375.29" width="1.61" height=".96"/>
        <rect class="cls-3" x="85.7" y="375.29" width="1.61" height=".96"/>
      </g>
      <g>
        <rect class="cls-1" x="53.26" y="371.11" width="8.68" height="9.6"/>
        <rect class="cls-3" x="53.9" y="375.29" width="1.61" height=".96"/>
        <rect class="cls-3" x="56.79" y="375.29" width="1.61" height=".96"/>
        <rect class="cls-3" x="59.67" y="375.29" width="1.61" height=".96"/>
      </g>
      <g>
        <rect class="cls-3" x="30.7" y="72.65" width=".96" height="1.6"/>
        <polygon class="cls-4" points="30.7 69.77 30.7 71.37 31.67 71.37 31.67 70.73 32.3 70.73 32.3 69.77 30.7 69.77"/>
        <rect class="cls-3" x="33.58" y="69.77" width="1.6" height=".96"/>
      </g>
      <g>
        <rect class="cls-3" x="340.26" y="69.7" width="1.6" height=".96"/>
        <polygon class="cls-4" points="344.74 69.7 343.14 69.7 343.14 70.67 343.78 70.67 343.78 71.3 344.74 71.3 344.74 69.7"/>
        <rect class="cls-3" x="343.78" y="72.58" width=".96" height="1.6"/>
      </g>
      <g>
        <rect class="cls-3" x="343.84" y="371.77" width=".96" height="1.6"/>
        <polygon class="cls-4" points="344.81 376.25 344.81 374.65 343.84 374.65 343.84 375.29 343.21 375.29 343.21 376.25 344.81 376.25"/>
        <rect class="cls-3" x="340.33" y="375.29" width="1.6" height=".96"/>
      </g>
      <g>
        <rect class="cls-3" x="33.65" y="375.35" width="1.6" height=".96"/>
        <polygon class="cls-4" points="30.77 376.32 32.37 376.32 32.37 375.35 31.73 375.35 31.73 374.72 30.77 374.72 30.77 376.32"/>
        <rect class="cls-3" x="30.77" y="371.84" width=".96" height="1.6"/>
      </g>
    </g>
    <g>
      <g>
        <path class="cls-1" d="M6.11,170.79c.08-1.41.27-2.82.45-4.22l.54-4.21-9.51-1.32-.56,4.43c-.19,1.48-.39,2.95-.47,4.44l9.56.88Z"/>
        <polygon class="cls-4" points="1.72 163.89 2.68 164.02 2.88 162.42 1.93 162.29 1.72 163.89"/>
        <polygon class="cls-4" points="1.36 166.78 2.31 166.88 2.51 165.28 1.56 165.17 1.36 166.78"/>
        <path class="cls-4" d="M1.05,169.66l.96.09c.04-.54.07-1.07.15-1.61l-.95-.1c-.08.53-.11,1.07-.15,1.61Z"/>
      </g>
      <g>
        <path class="cls-1" d="M10.23,145.67c.33-1.38.6-2.77.98-4.13l1.16-4.08-9.23-2.64-1.22,4.3c-.4,1.44-.69,2.9-1.04,4.35l9.34,2.21Z"/>
        <polygon class="cls-4" points="6.82 138.23 7.74 138.48 8.18 136.93 7.26 136.67 6.82 138.23"/>
        <path class="cls-4" d="M6.03,141.03l.93.24c.13-.52.29-1.04.43-1.55l-.93-.25c-.14.52-.3,1.04-.44,1.56Z"/>
        <polygon class="cls-4" points="5.38 143.85 6.31 144.07 6.68 142.5 5.74 142.27 5.38 143.85"/>
      </g>
      <g>
        <path class="cls-1" d="M17.81,121.38l1.56-3.95c.51-1.32,1.15-2.59,1.72-3.88l-8.77-3.91c-.6,1.36-1.26,2.7-1.81,4.09l-1.64,4.16,8.94,3.49Z"/>
        <polygon class="cls-4" points="15.45 113.52 16.33 113.9 17 112.43 16.12 112.05 15.45 113.52"/>
        <polygon class="cls-4" points="14.32 116.2 15.21 116.57 15.8 115.07 14.92 114.69 14.32 116.2"/>
        <polygon class="cls-4" points="13.26 118.9 14.15 119.25 14.75 117.75 13.86 117.39 13.26 118.9"/>
      </g>
      <g>
        <path class="cls-1" d="M28.7,98.39c1.44-2.44,2.75-4.95,4.33-7.3l-8.14-5.09c-1.66,2.47-3.05,5.12-4.56,7.68l8.36,4.71Z"/>
        <polygon class="cls-4" points="27.46 90.27 28.28 90.76 29.15 89.41 28.33 88.9 27.46 90.27"/>
        <polygon class="cls-4" points="26 92.78 26.82 93.27 27.63 91.87 26.81 91.37 26 92.78"/>
        <polygon class="cls-4" points="24.55 95.29 25.39 95.76 26.19 94.37 25.36 93.89 24.55 95.29"/>
      </g>
      <g>
        <path class="cls-1" d="M42.7,77.13l2.62-3.34c.87-1.11,1.73-2.24,2.68-3.29l-7.35-6.17c-1,1.11-1.9,2.29-2.82,3.46l-2.76,3.51,7.63,5.83Z"/>
        <path class="cls-4" d="M42.61,68.92l.74.61c.32-.43.68-.83,1.03-1.24l-.74-.61c-.35.41-.71.81-1.04,1.24Z"/>
        <polygon class="cls-4" points="40.81 71.21 41.56 71.8 42.56 70.54 41.81 69.93 40.81 71.21"/>
        <polygon class="cls-4" points="39.02 73.49 39.78 74.07 40.78 72.8 40.02 72.21 39.02 73.49"/>
      </g>
      <g>
        <path class="cls-1" d="M59.51,58.01c2.06-1.94,4.07-3.94,6.17-5.83l-6.43-7.13c-2.21,2-4.33,4.09-6.5,6.14l6.75,6.83Z"/>
        <path class="cls-4" d="M60.57,49.89l.65.71c.39-.37.77-.75,1.17-1.11l-.65-.71c-.4.36-.79.74-1.18,1.11Z"/>
        <polygon class="cls-4" points="58.47 51.9 59.13 52.59 60.3 51.48 59.64 50.78 58.47 51.9"/>
        <polygon class="cls-4" points="56.37 53.9 57.05 54.58 58.21 53.47 57.55 52.78 56.37 53.9"/>
      </g>
      <g>
        <polygon class="cls-1" points="78.8 41.39 85.72 36.47 80.35 28.52 73.06 33.7 78.8 41.39"/>
        <polygon class="cls-4" points="81 33.53 81.55 34.32 82.86 33.38 82.32 32.59 81 33.53"/>
        <polygon class="cls-4" points="78.63 35.21 79.19 35.99 80.5 35.06 79.95 34.27 78.63 35.21"/>
        <polygon class="cls-4" points="76.27 36.89 76.84 37.66 78.15 36.73 77.59 35.95 76.27 36.89"/>
      </g>
      <g>
        <path class="cls-1" d="M100.23,27.64c2.49-1.35,5.03-2.59,7.54-3.9l-4.21-8.62c-2.65,1.37-5.32,2.69-7.94,4.1l4.61,8.42Z"/>
        <polygon class="cls-4" points="103.5 20.16 103.93 21.02 105.36 20.28 104.94 19.42 103.5 20.16"/>
        <polygon class="cls-4" points="100.91 21.48 101.35 22.33 102.79 21.6 102.35 20.75 100.91 21.48"/>
        <polygon class="cls-4" points="98.33 22.81 98.79 23.65 100.22 22.91 99.77 22.07 98.33 22.81"/>
      </g>
      <g>
        <path class="cls-1" d="M123.36,17.03c1.31-.55,2.65-1,3.99-1.44l4.02-1.36-2.96-9.13-4.23,1.43c-1.41.47-2.83.95-4.2,1.52l3.39,8.98Z"/>
        <polygon class="cls-4" points="127.64 10.06 127.94 10.97 129.47 10.45 129.17 9.54 127.64 10.06"/>
        <polygon class="cls-4" points="124.88 10.99 125.2 11.9 126.73 11.38 126.42 10.47 124.88 10.99"/>
        <path class="cls-4" d="M122.16,11.98l.34.9c.5-.19.99-.41,1.51-.57l-.33-.9c-.52.16-1.01.38-1.52.57Z"/>
      </g>
      <g>
        <path class="cls-1" d="M147.74,9.75c1.38-.3,2.75-.68,4.15-.91l4.18-.75-1.66-9.46-4.4.79c-1.47.24-2.91.64-4.37.96l2.1,9.37Z"/>
        <polygon class="cls-4" points="152.95 3.44 153.13 4.38 154.71 4.1 154.55 3.15 152.95 3.44"/>
        <polygon class="cls-4" points="150.09 3.95 150.28 4.89 151.87 4.6 151.68 3.66 150.09 3.95"/>
        <polygon class="cls-4" points="147.26 4.59 147.47 5.53 149.04 5.17 148.84 4.23 147.26 4.59"/>
      </g>
      <g>
        <path class="cls-1" d="M172.91,5.95c2.82-.21,5.64-.48,8.48-.49l-.33-9.59c-2.98.01-5.95.3-8.92.52l.77,9.57Z"/>
        <polygon class="cls-4" points="178.94 .38 178.99 1.34 180.6 1.3 180.56 .34 178.94 .38"/>
        <polygon class="cls-4" points="176.04 .56 176.1 1.52 177.71 1.4 177.66 .44 176.04 .56"/>
        <polygon class="cls-4" points="173.15 .78 173.23 1.74 174.83 1.62 174.77 .66 173.15 .78"/>
      </g>
      <g>
        <path class="cls-1" d="M198.37,5.63c2.82.23,5.65.41,8.47.66l.99-9.55c-2.97-.27-5.94-.47-8.91-.7l-.55,9.58Z"/>
        <polygon class="cls-4" points="205.11 .99 205.02 1.95 206.63 2.07 206.72 1.11 205.11 .99"/>
        <polygon class="cls-4" points="202.21 .77 202.14 1.73 203.74 1.85 203.83 .89 202.21 .77"/>
        <polygon class="cls-4" points="199.32 .55 199.26 1.51 200.87 1.63 200.94 .67 199.32 .55"/>
      </g>
      <g>
        <path class="cls-1" d="M223.62,8.84c2.78.55,5.52,1.25,8.28,1.86l2.32-9.32c-2.91-.65-5.8-1.39-8.72-1.96l-1.88,9.41Z"/>
        <polygon class="cls-4" points="230.93 5.21 230.71 6.15 232.28 6.51 232.51 5.58 230.93 5.21"/>
        <polygon class="cls-4" points="228.1 4.56 227.9 5.5 229.47 5.86 229.68 4.92 228.1 4.56"/>
        <path class="cls-4" d="M225.28,3.92l-.19.94c.53.09,1.05.23,1.57.35l.2-.94c-.53-.12-1.05-.26-1.58-.35Z"/>
      </g>
      <g>
        <path class="cls-1" d="M248.16,15.58c2.7.84,5.3,1.99,7.94,3l3.6-8.9c-2.78-1.06-5.52-2.27-8.36-3.16l-3.18,9.06Z"/>
        <polygon class="cls-4" points="255.92 12.99 255.57 13.88 257.07 14.47 257.43 13.58 255.92 12.99"/>
        <polygon class="cls-4" points="253.21 11.92 252.88 12.82 254.38 13.41 254.72 12.52 253.21 11.92"/>
        <polygon class="cls-4" points="250.49 10.95 250.17 11.85 251.69 12.37 252.02 11.47 250.49 10.95"/>
      </g>
      <g>
        <path class="cls-1" d="M271.52,25.68c1.25.66,2.53,1.26,3.76,1.96l3.68,2.12,4.81-8.31-3.88-2.23c-1.29-.74-2.64-1.38-3.96-2.07l-4.41,8.52Z"/>
        <polygon class="cls-4" points="279.57 24.18 279.1 25.02 280.5 25.82 280.98 24.99 279.57 24.18"/>
        <polygon class="cls-4" points="277.05 22.74 276.59 23.58 277.99 24.38 278.46 23.54 277.05 22.74"/>
        <polygon class="cls-4" points="274.47 21.42 274.03 22.27 275.46 23 275.91 22.16 274.47 21.42"/>
      </g>
      <g>
        <path class="cls-1" d="M293.24,38.93l3.46,2.46c1.13.86,2.23,1.74,3.35,2.61l5.91-7.56c-1.17-.92-2.34-1.85-3.52-2.75l-3.64-2.59-5.56,7.83Z"/>
        <polygon class="cls-4" points="301.44 38.56 300.85 39.33 302.12 40.32 302.71 39.56 301.44 38.56"/>
        <path class="cls-4" d="M299.12,36.81l-.57.77c.44.31.88.61,1.3.96l.58-.77c-.42-.34-.87-.65-1.31-.96Z"/>
        <polygon class="cls-4" points="296.76 35.13 296.2 35.91 297.51 36.84 298.08 36.07 296.76 35.13"/>
      </g>
      <g>
        <path class="cls-1" d="M312.93,55.08c2.05,1.95,4.13,3.88,6.04,5.97l6.9-6.67c-2.02-2.2-4.2-4.22-6.36-6.28l-6.59,6.98Z"/>
        <polygon class="cls-4" points="321.1 55.84 320.42 56.51 321.53 57.68 322.22 57.01 321.1 55.84"/>
        <polygon class="cls-4" points="319.03 53.8 318.36 54.48 319.52 55.59 320.2 54.91 319.03 53.8"/>
        <polygon class="cls-4" points="316.93 51.8 316.27 52.49 317.44 53.6 318.1 52.91 316.93 51.8"/>
      </g>
      <g>
        <path class="cls-1" d="M330.19,73.79l2.62,3.34c.43.56.89,1.11,1.3,1.68l1.23,1.73,7.76-5.65-1.3-1.82c-.44-.6-.91-1.18-1.37-1.77l-2.76-3.51-7.49,6Z"/>
        <polygon class="cls-4" points="338.18 75.66 337.42 76.24 338.35 77.55 339.12 76.98 338.18 75.66"/>
        <polygon class="cls-4" points="336.4 73.37 335.64 73.96 336.63 75.23 337.4 74.65 336.4 73.37"/>
        <polygon class="cls-4" points="334.61 71.09 333.85 71.69 334.85 72.96 335.61 72.37 334.61 71.09"/>
      </g>
      <g>
        <path class="cls-1" d="M344.69,94.7l2.12,3.68c.7,1.23,1.44,2.44,2.05,3.71l8.47-4.51c-.65-1.34-1.42-2.62-2.16-3.91l-2.23-3.87-8.25,4.9Z"/>
        <path class="cls-4" d="M352.33,97.68l-.84.46c.28.46.53.94.77,1.42l.85-.45c-.24-.48-.49-.96-.77-1.43Z"/>
        <polygon class="cls-4" points="350.88 95.16 350.05 95.64 350.85 97.04 351.69 96.57 350.88 95.16"/>
        <polygon class="cls-4" points="349.44 92.65 348.61 93.14 349.41 94.54 350.25 94.06 349.44 92.65"/>
      </g>
      <g>
        <path class="cls-1" d="M356.15,117.43l3.1,7.9,9.02-3.28c-1.06-2.78-2.18-5.55-3.26-8.32l-8.86,3.7Z"/>
        <polygon class="cls-4" points="363.26 121.47 362.36 121.8 362.95 123.3 363.85 122.97 363.26 121.47"/>
        <polygon class="cls-4" points="362.19 118.76 361.3 119.11 361.89 120.61 362.79 120.27 362.19 118.76"/>
        <polygon class="cls-4" points="361.13 116.07 360.24 116.43 360.83 117.93 361.72 117.57 361.13 116.07"/>
      </g>
      <g>
        <path class="cls-1" d="M364.29,141.55c.7,2.74,1.29,5.51,1.94,8.27l9.39-1.99c-.68-2.9-1.31-5.82-2.04-8.7l-9.29,2.42Z"/>
        <polygon class="cls-4" points="370.75 146.54 369.81 146.75 370.18 148.32 371.11 148.12 370.75 146.54"/>
        <polygon class="cls-4" points="370.1 143.71 369.16 143.93 369.53 145.5 370.46 145.29 370.1 143.71"/>
        <polygon class="cls-4" points="369.44 140.88 368.51 141.12 368.88 142.69 369.81 142.46 369.44 140.88"/>
      </g>
      <g>
        <path class="cls-1" d="M368.94,166.57c.43,2.8.53,5.64.77,8.46l9.58-.66c-.25-2.97-.37-5.95-.81-8.9l-9.54,1.1Z"/>
        <polygon class="cls-4" points="374.67 172.41 373.71 172.49 373.84 174.1 374.79 174.03 374.67 172.41"/>
        <polygon class="cls-4" points="374.45 169.51 373.49 169.6 373.62 171.21 374.57 171.13 374.45 169.51"/>
        <polygon class="cls-4" points="374.13 166.63 373.18 166.74 373.38 168.34 374.34 168.24 374.13 166.63"/>
      </g>
      <g>
        <path class="cls-1" d="M370.1,192l-.11,4.25c-.02,1.42-.19,2.82-.28,4.24l9.58.66c.09-1.49.27-2.97.29-4.46l.11-4.47-9.6-.22Z"/>
        <polygon class="cls-4" points="375.01 198.58 374.06 198.52 373.93 200.13 374.89 200.19 375.01 198.58"/>
        <polygon class="cls-4" points="375.15 195.68 374.19 195.64 374.15 197.25 375.11 197.3 375.15 195.68"/>
        <polygon class="cls-4" points="375.22 192.78 374.26 192.75 374.22 194.37 375.18 194.4 375.22 192.78"/>
      </g>
      <g>
        <path class="cls-1" d="M367.78,217.35l-.75,4.18c-.27,1.39-.45,2.8-.8,4.17l9.39,1.99c.37-1.45.57-2.92.85-4.39l.79-4.4-9.47-1.55Z"/>
        <path class="cls-4" d="M371.72,224.54l-.94-.19c-.1.53-.18,1.06-.31,1.58l.94.2c.13-.52.22-1.06.31-1.59Z"/>
        <polygon class="cls-4" points="372.23 221.68 371.28 221.51 371 223.1 371.94 223.28 372.23 221.68"/>
        <polygon class="cls-4" points="372.74 218.83 371.79 218.67 371.51 220.26 372.45 220.42 372.74 218.83"/>
      </g>
      <g>
        <polygon class="cls-1" points="361.97 242.13 359.25 250.17 368.27 253.45 371.13 244.99 361.97 242.13"/>
        <polygon class="cls-4" points="364.8 249.78 363.89 249.47 363.38 250.99 364.28 251.32 364.8 249.78"/>
        <polygon class="cls-4" points="365.73 247.03 364.82 246.73 364.3 248.25 365.21 248.56 365.73 247.03"/>
        <polygon class="cls-4" points="366.66 244.28 365.75 244 365.23 245.52 366.14 245.82 366.66 244.28"/>
      </g>
      <g>
        <path class="cls-1" d="M352.68,265.83c-1.19,2.57-2.55,5.05-3.82,7.58l8.47,4.51c1.34-2.66,2.77-5.28,4.02-7.98l-8.67-4.11Z"/>
        <polygon class="cls-4" points="354.43 273.81 353.58 273.37 352.84 274.8 353.69 275.25 354.43 273.81"/>
        <polygon class="cls-4" points="355.75 271.22 354.89 270.79 354.16 272.23 355.02 272.66 355.75 271.22"/>
        <path class="cls-4" d="M357.05,268.63l-.87-.41c-.21.5-.47.97-.71,1.45l.86.42c.24-.48.51-.96.72-1.45Z"/>
      </g>
      <g>
        <polygon class="cls-1" points="340.18 288 339.03 289.78 337.8 291.51 335.34 294.98 343.1 300.62 345.69 296.98 346.99 295.16 348.2 293.28 340.18 288"/>
        <polygon class="cls-4" points="340.81 296.15 340.03 295.6 339.09 296.91 339.87 297.47 340.81 296.15"/>
        <polygon class="cls-4" points="342.5 293.78 341.7 293.24 340.77 294.55 341.56 295.1 342.5 293.78"/>
        <polygon class="cls-4" points="344.12 291.38 343.32 290.85 342.44 292.21 343.24 292.74 344.12 291.38"/>
      </g>
      <g>
        <path class="cls-1" d="M324.72,308.22c-1.81,2.18-3.81,4.18-5.76,6.24l6.9,6.67c2.05-2.16,4.15-4.28,6.06-6.57l-7.21-6.34Z"/>
        <polygon class="cls-4" points="324.23 316.39 323.53 315.73 322.41 316.9 323.11 317.57 324.23 316.39"/>
        <polygon class="cls-4" points="326.23 314.29 325.52 313.64 324.41 314.81 325.11 315.46 326.23 314.29"/>
        <polygon class="cls-4" points="328.15 312.12 327.43 311.48 326.37 312.7 327.09 313.34 328.15 312.12"/>
      </g>
      <g>
        <path class="cls-1" d="M306.62,326.11c-1.08.92-2.12,1.87-3.23,2.76l-3.34,2.62,5.91,7.56,3.51-2.76c1.16-.93,2.26-1.94,3.4-2.9l-6.26-7.28Z"/>
        <polygon class="cls-4" points="305 334.15 304.4 333.4 303.13 334.39 303.73 335.15 305 334.15"/>
        <path class="cls-4" d="M307.28,332.34l-.61-.74c-.41.35-.84.67-1.26,1.01l.61.74c.42-.34.86-.66,1.27-1.01Z"/>
        <polygon class="cls-4" points="309.47 330.44 308.84 329.71 307.62 330.77 308.24 331.5 309.47 330.44"/>
      </g>
      <g>
        <path class="cls-1" d="M286.21,341.33l-3.57,2.29c-1.21.73-2.45,1.42-3.67,2.13l4.81,8.31c1.29-.75,2.59-1.47,3.87-2.24l3.76-2.41-5.19-8.08Z"/>
        <polygon class="cls-4" points="283.5 349.07 283.01 348.24 281.61 349.05 282.1 349.87 283.5 349.07"/>
        <path class="cls-4" d="M285.99,347.57l-.5-.82c-.46.29-.9.59-1.37.85l.5.82c.47-.26.92-.57,1.38-.86Z"/>
        <polygon class="cls-4" points="288.43 346.01 287.91 345.2 286.56 346.07 287.07 346.88 288.43 346.01"/>
      </g>
      <g>
        <path class="cls-1" d="M263.89,353.56c-2.58,1.15-5.13,2.39-7.79,3.37l3.6,8.9c2.8-1.04,5.48-2.33,8.2-3.55l-4.01-8.72Z"/>
        <polygon class="cls-4" points="260.13 360.86 259.76 359.97 258.26 360.56 258.63 361.45 260.13 360.86"/>
        <polygon class="cls-4" points="262.8 359.69 262.41 358.81 260.94 359.48 261.32 360.36 262.8 359.69"/>
        <polygon class="cls-4" points="265.44 358.5 265.04 357.62 263.57 358.29 263.96 359.16 265.44 358.5"/>
      </g>
      <g>
        <path class="cls-1" d="M240.09,362.55l-4.08,1.16c-1.36.38-2.72.8-4.1,1.09l2.32,9.32c1.46-.31,2.89-.74,4.32-1.14l4.3-1.22-2.75-9.2Z"/>
        <path class="cls-4" d="M235.34,369.24l-.24-.93c-.51.16-1.04.28-1.56.4l.23.93c.53-.12,1.05-.24,1.57-.4Z"/>
        <polygon class="cls-4" points="238.14 368.45 237.88 367.52 236.33 367.96 236.58 368.89 238.14 368.45"/>
        <polygon class="cls-4" points="240.92 367.66 240.65 366.74 239.1 367.18 239.36 368.1 240.92 367.66"/>
      </g>
      <g>
        <polygon class="cls-1" points="215.26 368.14 206.83 369.21 207.83 378.76 216.69 377.63 215.26 368.14"/>
        <polygon class="cls-4" points="209.61 374.04 209.5 373.08 207.9 373.29 208 374.24 209.61 374.04"/>
        <polygon class="cls-4" points="212.5 373.67 212.37 372.72 210.77 372.92 210.89 373.88 212.5 373.67"/>
        <polygon class="cls-4" points="215.37 373.31 215.23 372.36 213.63 372.56 213.76 373.51 215.37 373.31"/>
      </g>
      <g>
        <polygon class="cls-1" points="189.88 370.15 187.75 370.21 185.63 370.15 181.38 370.05 181.05 379.64 185.52 379.75 187.75 379.81 189.99 379.75 189.88 370.15"/>
        <polygon class="cls-4" points="183.47 375.24 183.49 374.28 181.88 374.24 181.85 375.2 183.47 375.24"/>
        <polygon class="cls-4" points="186.38 375.31 186.39 374.35 184.77 374.31 184.76 375.27 186.38 375.31"/>
        <polygon class="cls-4" points="189.27 375.31 189.27 374.35 187.65 374.38 187.65 375.34 189.27 375.31"/>
      </g>
      <g>
        <path class="cls-1" d="M164.46,368.68l-4.21-.53c-1.4-.22-2.79-.49-4.18-.73l-1.66,9.46c1.47.26,2.93.54,4.4.77l4.43.56,1.21-9.52Z"/>
        <polygon class="cls-4" points="157.41 372.87 157.57 371.92 155.98 371.64 155.82 372.58 157.41 372.87"/>
        <path class="cls-4" d="M160.28,373.33l.14-.95c-.53-.07-1.07-.12-1.6-.23l-.15.95c.53.11,1.07.16,1.6.23Z"/>
        <polygon class="cls-4" points="163.16 373.69 163.28 372.74 161.68 372.54 161.55 373.49 163.16 373.69"/>
      </g>
      <g>
        <polygon class="cls-1" points="139.5 363.71 135.42 362.55 133.38 361.97 131.37 361.29 128.4 370.42 130.52 371.13 132.67 371.75 136.97 372.97 139.5 363.71"/>
        <polygon class="cls-4" points="131.93 366.9 132.21 365.98 130.69 365.47 130.39 366.38 131.93 366.9"/>
        <polygon class="cls-4" points="134.72 367.7 134.99 366.77 133.44 366.33 133.16 367.25 134.72 367.7"/>
        <polygon class="cls-4" points="137.51 368.49 137.77 367.56 136.22 367.12 135.95 368.04 137.51 368.49"/>
      </g>
      <g>
        <path class="cls-1" d="M115.48,355.31c-2.57-1.19-5.18-2.29-7.72-3.54l-4.21,8.62c2.67,1.32,5.42,2.48,8.12,3.73l3.81-8.81Z"/>
        <path class="cls-4" d="M107.55,357.36l.41-.87c-.49-.23-.99-.43-1.46-.68l-.42.86c.48.26.98.45,1.47.68Z"/>
        <polygon class="cls-4" points="110.2 358.56 110.6 357.68 109.13 357.02 108.73 357.89 110.2 358.56"/>
        <polygon class="cls-4" points="112.84 359.75 113.23 358.87 111.76 358.21 111.37 359.08 112.84 359.75"/>
      </g>
      <g>
        <polygon class="cls-1" points="92.87 343.62 85.72 339.03 80.35 346.99 87.87 351.81 92.87 343.62"/>
        <polygon class="cls-4" points="84.75 344.52 85.28 343.72 83.92 342.84 83.39 343.64 84.75 344.52"/>
        <polygon class="cls-4" points="87.2 346.09 87.71 345.28 86.36 344.41 85.83 345.21 87.2 346.09"/>
        <polygon class="cls-4" points="89.64 347.65 90.14 346.83 88.78 345.96 88.27 346.77 89.64 347.65"/>
      </g>
      <g>
        <path class="cls-1" d="M72.12,328.87c-2.17-1.81-4.29-3.7-6.44-5.54l-6.43,7.13c2.26,1.94,4.49,3.92,6.77,5.83l6.09-7.42Z"/>
        <polygon class="cls-4" points="63.95 328.64 64.59 327.91 63.37 326.86 62.73 327.57 63.95 328.64"/>
        <polygon class="cls-4" points="66.15 330.54 66.77 329.81 65.55 328.75 64.93 329.48 66.15 330.54"/>
        <polygon class="cls-4" points="68.34 332.44 68.95 331.7 67.73 330.64 67.12 331.37 68.34 332.44"/>
      </g>
      <g>
        <path class="cls-1" d="M53.61,311.39c-1-1-1.89-2.11-2.83-3.17l-2.78-3.21-7.35,6.17,2.93,3.38c.98,1.12,1.92,2.28,2.98,3.33l7.06-6.51Z"/>
        <polygon class="cls-4" points="45.55 310.03 46.28 309.4 45.22 308.18 44.49 308.8 45.55 310.03"/>
        <polygon class="cls-4" points="47.46 312.23 48.17 311.59 47.12 310.37 46.39 311 47.46 312.23"/>
        <path class="cls-4" d="M49.38,314.39l.71-.65c-.38-.38-.73-.79-1.08-1.2l-.71.64c.35.41.71.82,1.09,1.2Z"/>
      </g>
      <g>
        <polygon class="cls-1" points="37.7 291.51 36.47 289.78 35.33 288 33.04 284.42 24.9 289.52 27.31 293.28 28.52 295.16 29.81 296.98 37.7 291.51"/>
        <polygon class="cls-4" points="29.9 289.06 30.71 288.54 29.84 287.18 29.03 287.69 29.9 289.06"/>
        <polygon class="cls-4" points="31.47 291.5 32.27 290.97 31.4 289.62 30.6 290.14 31.47 291.5"/>
        <polygon class="cls-4" points="33.1 293.9 33.89 293.36 32.96 292.04 32.16 292.58 33.1 293.9"/>
      </g>
      <g>
        <path class="cls-1" d="M24.71,269.63c-1.34-2.49-2.47-5.09-3.63-7.67l-8.77,3.91c1.23,2.71,2.42,5.45,3.83,8.08l8.57-4.31Z"/>
        <polygon class="cls-4" points="17.32 266.11 18.19 265.71 17.52 264.24 16.65 264.64 17.32 266.11"/>
        <polygon class="cls-4" points="18.51 268.76 19.38 268.35 18.72 266.88 17.85 267.29 18.51 268.76"/>
        <polygon class="cls-4" points="19.82 271.35 20.68 270.92 19.94 269.49 19.08 269.91 19.82 271.35"/>
      </g>
      <g>
        <polygon class="cls-1" points="14.9 246.15 13.54 242.13 12.38 238.05 3.15 240.69 4.38 244.99 5.81 249.22 14.9 246.15"/>
        <polygon class="cls-4" points="8.06 241.64 8.97 241.36 8.53 239.81 7.61 240.08 8.06 241.64"/>
        <path class="cls-4" d="M8.89,244.42l.92-.29c-.18-.51-.35-1.02-.48-1.54l-.92.28c.14.52.31,1.03.49,1.55Z"/>
        <polygon class="cls-4" points="9.82 247.17 10.73 246.86 10.22 245.34 9.3 245.63 9.82 247.17"/>
      </g>
      <g>
        <path class="cls-1" d="M8.47,221.53l-.75-4.18c-.12-.7-.26-1.39-.36-2.09l-.27-2.11-9.51,1.32.28,2.22c.1.74.25,1.47.38,2.2l.79,4.4,9.44-1.77Z"/>
        <polygon class="cls-4" points="2.29 216.11 3.24 215.96 3.04 214.37 2.09 214.5 2.29 216.11"/>
        <polygon class="cls-4" points="2.8 218.97 3.74 218.81 3.46 217.23 2.51 217.38 2.8 218.97"/>
        <polygon class="cls-4" points="3.3 221.82 4.25 221.65 3.97 220.06 3.02 220.23 3.3 221.82"/>
      </g>
      <g>
        <polygon class="cls-1" points="5.51 196.25 5.3 187.75 -4.3 187.75 -4.07 196.69 5.51 196.25"/>
        <polygon class="cls-4" points=".22 190.02 1.18 190.01 1.14 188.4 .18 188.4 .22 190.02"/>
        <polygon class="cls-4" points=".29 192.92 1.25 192.9 1.21 191.29 .25 191.3 .29 192.92"/>
        <polygon class="cls-4" points=".36 195.82 1.32 195.78 1.28 194.17 .32 194.2 .36 195.82"/>
      </g>
    </g>
  </g>
  <g>
    <g>
      <path class="cls-2" d="M46.59,123.24c-.59-.17-1.24-.58-1.78-.47-2.23.49-4.44,1.13-6.63,1.76-.38.11-.69.49-1.03.74.42.26.86.74,1.27.72,1.7-.07,3.4-.39,5.1-.45,2.38-.08,4.77.11,7.14-.05,3.32-.23,6.62.48,10.01-.82,2.12-.81,4.94-.35,7.32.15,7.52,1.61,14.94,3.68,22.47,5.2,3.04.61,6.27.26,9.42.34.93.02,1.88-.1,2.8.02,3.66.48,7.13-.17,10.75-.84,3.31-.61,6.95.38,10.41.84,5.97.8,11.91,1.24,17.86-.25,1.4-.35,2.88-.42,4.33-.53,3.33-.25,5.89.91,7.41,4.06,1.37,2.84,2.87,5.62,4.33,8.42.19.37.5.68.76,1.02"/>
      <path class="cls-2" d="M215.77,140.84c-.28,3.28-.83,6.47-2.37,9.46-.52,1.01-.33,2.36-.58,3.54-1.25,6.04-2.4,12.11-3.88,18.09-.7,2.85-.4,5.34.8,7.93,1.15,2.49,2.07,5.09,3.09,7.64.04.1.24.17.24.26-.11,6.82,4.02,12.8,3.86,19.64-.05,2.21.12,4.42.24,6.63.32,5.7,1.09,11.4.9,17.08-.2,6.33-.66,12.69-2.4,18.89-1.08,3.85-1.79,7.8-2.56,11.73-.18.94,0,1.8.61,2.87,2.09,3.65,3.64,7.61,5.49,11.4,1.27,2.6,2.27,5.51,4.17,7.56,2.54,2.74,3.14,6,3.95,9.28,1.37,5.58,2.3,11.3,5.88,16.06.95,1.26,1.64,2.85,2.85,3.77,5.18,3.93,7.88,9.71,11.45,14.84,1.81,2.6,3.87,5.02,5.57,7.68,2.82,4.43,4.86,9.17,5.45,14.51.25,2.19,1.05,4.6,3.52,5.31,2.88.82,5.66.39,7.63-2.24,2.43-3.25,5.51-4.83,9.7-4.69,1.68.06,3.54-.84,5.07-1.73,2.62-1.53,4.62-3.76,5.92-6.56.04-.1.48-.01.74-.01"/>
      <path class="cls-2" d="M314.07,123.24c-2.38.26-4.79.36-7.13.8-4.95.92-9.88,1.93-14.79,3.05-4.88,1.12-9.7,2.32-14.8,2.07-2.88-.14-5.78.39-8.67.42-2.04.02-4.08-.41-6.12-.45-3.57-.08-7.22-.5-10.69.08-6.15,1.02-12.2,1.33-18.39.48-3.09-.42-6.28-.17-9.42-.04-1.71.07-2.86,1.13-3.6,2.76-.91,2.01-2,3.93-3.04,5.87-.38.71-.84,1.36-1.27,2.04"/>
      <path class="cls-2" d="M58.57,70.71c-1.19-.94-2.4-1.85-3.56-2.81-.55-.46-1.21-.93-1.5-1.54-.49-1.04-1.33-2.81-.95-3.18,1.18-1.17,1.62.64,2.45,1.14,1.56.93,3.13,1.99,4.85,2.52,3.92,1.2,5.8,4.39,7.91,7.44.36.53.95.94,1.52,1.28,6.29,3.76,12.88,6.85,20.14,8.14,8.4,1.49,16.11,4.46,22.66,10.01,2.06,1.75,4.43,2.41,6.92,2.74,5.99.78,11.66,2.5,17.09,5.12.72.35,1.63.9,2.27.72,8.6-2.35,16.37.3,23.98,3.89,2.29,1.08,4.56,2.22,6.12,4.33"/>
      <path class="cls-2" d="M314.83,69.18c1.95-1.28,4.03-2.41,5.82-3.88.95-.78,1.47-2.12,2.04-3.28.14-.27-.22-.89-.5-1.22-.1-.12-.74.03-.97.24-2.45,2.25-5.8,2.92-8.43,4.83-.94.68-2.27,1.16-2.74,2.07-3.03,5.99-8.72,8.42-14.38,10.59-5.53,2.12-11.35,3.52-17.05,5.18-5.86,1.71-11.27,4.2-15.83,8.4-3.13,2.89-7.3,3.13-11.21,3.81-5.52.95-10.43,3.36-15.27,5.94-.81.43-1.38,1.33-2.06,2.01"/>
      <path class="cls-2" d="M157.25,257.64c1.61,5.61,3.23,11.22,4.84,16.83.14.49.28,1.02.25,1.53-.23,3.74-.5,7.48-.75,11.22-.02.25-.04.52,0,.76.95,4.84-.55,9.44-1.6,14.01-2.02,8.77-1.98,17.26,1.27,25.8,2.64,6.92,4.6,14.1,6.99,21.13.84,2.47,1.34,4.79.55,7.43-.65,2.14.55,4.16,1.46,6.1"/>
      <path class="cls-2" d="M323.25,114.83c1.4-2.71,2.95-4.96,6.64-4.73.96.06,2.19-1.43,3.01-2.45.85-1.06.01-1.37-.97-1.23-2.98.41-5.96.77-8.92,1.3-1.31.23-2.85.48-3.78,1.3-4.82,4.26-10.78,4.38-16.63,4.75-6.42.4-12.77-.49-19.13-1.41-5.93-.86-11.66.74-17.35,2.41-2.26.66-4.77.93-7.11.75-3.43-.27-6.79-1.36-10.21-1.62-2.86-.22-5.79.13-8.66.48-1.61.2-2.84-.03-4.38-.73-8-3.61-16.27-5.28-24.95-2.4-2.69.89-4.92-.6-7.1-1.84-.36-.2-12.15,1.46-7.18-1.08"/>
      <path class="cls-2" d="M175.87,105.9c-.33,2.53-9.2,6.79-11.72,5.85-8.79-3.29-17.44-1.83-25.39,2.04-3.64,1.77-6.75,1.19-10.05.93-2.99-.24-5.88-.25-8.67.66-5.29,1.73-10.43.96-15.57-.55-5.56-1.63-11.17-.99-16.83-.6-5.75.39-11.55.12-17.33.06-1.45-.01-2.92-.59-4.33-.43-3.17.36-5.73-.97-8.14-2.64-1.9-1.31-3.63-2.13-6.16-1.89-2.49.23-5.08-.72-7.64-1.12-.5-.08-1.02-.01-1.53-.01.17.51.24,1.08.53,1.52.88,1.36,2.08,2.05,3.81,2.09,3.45.08,5.14,2.48,6.38,5.32"/>
      <path class="cls-2" d="M217.43,209.19c4.63,11.82,11.4,22.74,14.57,35.18,1.42,5.55,2.2,11.14,2.6,16.84.15,2.08,1.23,4.1,1.97,6.12.61,1.64,1.47,3.2,2,4.86.87,2.77,1.31,5.7,2.4,8.38.9,2.2,2.45,4.13,3.75,6.15,4.58,7.09,7.75,14.84,10.73,22.69,2.43,6.42,4.95,12.81,7.69,19.11,1.07,2.46,2.7,4.71,4.31,6.88,1.32,1.79,3.1,2.83,5.57,2.92,2.23.08,4.41,1.04,6.64,1.4,1.41.22,2.88.04,4.33.04"/>
      <path class="cls-2" d="M212.84,264.27c-2.21,5.36-4.43,10.71-6.62,16.07-.19.47-.28,1.02-.26,1.52.23,5.8-1.3,11.23-3.3,16.59-.29.77-.27,1.69-.27,2.54-.02,5.7.18,11.4-.06,17.08-.33,8-1.12,15.98-1.43,23.98-.18,4.66.31,9.38,2.1,13.72.65,1.57,2.47,2.8,3.99,3.83,3.48,2.34,7.11,4.46,10.68,6.67"/>
      <path class="cls-2" d="M179.29,343.58c-.35,11.72,5.28,16.8,6.28,28.8,1,1-2,2-4,2-1,0-1-1-2-1-4,1-8,1-11-1-3-4,1-8,3.47-12.47"/>
      <path class="cls-2" d="M182.62,222.72c2.98.78,2.18,10.44,1.81,12.98-.84,5.78-2.54,11.39-3.25,17.23-1.35,11.06-.35,22.84-3.37,33.58-1.65,5.87-3.86,11.73-2.06,17.8"/>
      <path class="cls-2" d="M135.32,256.62c-3.06,5.1-6.02,10.27-9.23,15.27-1.32,2.06-3.05,3.91-4.82,5.62-7.96,7.68-12.35,17.19-14.8,27.81-1.52,6.59-3.32,13.11-5.11,19.63-.3,1.1-1.25,2.01-1.72,3.08-1.33,3-3.62,5.4-4.85,8.57-.75,1.94-3.67,3.47-5.93,4.28-1.97.7-3.16,1.46-3.52,3.46"/>
      <path class="cls-2" d="M124.36,113.81c-5.1-2.21-10.03-5.49-15.34-6.35-6.31-1.02-11.41-4.47-17.25-6.28-3.3-1.02-6.17-3.42-9.22-5.22-5.45-3.22-10.84-6.54-16.36-9.63-1.21-.68-2.88-.47-4.29-.85-1.81-.49-3.7-.93-5.34-1.8-4.57-2.42-9.03-5.06-13.54-7.6-.33-.19-.8-.26-1-.53-.57-.8-1.04-1.68-1.55-2.53.85.17,1.7.36,2.55.5.33.06.68,0,1.02,0-.17-.34-.25-.8-.52-1-1.59-1.15-3.36-2.08-4.78-3.39-.81-.75-1.6-2.26.71-2.49"/>
      <path class="cls-2" d="M329.88,72.75c1.1-.51,2.2-1.06,3.32-1.51.47-.19,1.01-.19,1.52-.27-.09.6.04,1.42-.3,1.74-.8.74-1.8,1.28-2.77,1.82-4.41,2.48-8.85,4.9-13.25,7.42-2.31,1.32-4.76,1.7-7.4,1.86-1.73.1-3.58.82-5.08,1.74-6.44,3.97-12.8,8.07-19.14,12.21-3.65,2.38-7.57,4.07-11.73,5.38-9,2.85-18.05,5.6-26.28,10.42"/>
      <path class="cls-2" d="M154.96,207.66c-3.23,5.78-6.72,11.43-9.63,17.37-4.7,9.59-7.69,19.78-9.5,30.32-.47,2.73-1.01,5.44-1.52,8.16"/>
      <path class="cls-2" d="M160.82,154.61c.93,4.08,1.43,8.33,2.91,12.2,2.06,5.4,2.29,10.43-.89,15.33-2.24,3.45-2.21,7.63-3.86,11.21-2.28,4.99-3.21,10.14-3.33,15.58-.06,2.64-.7,5.29-1.23,7.9-1.21,6-1.44,12.08-.68,18.1.88,6.93,2.33,13.78,3.46,20.67.09.55-.15,1.3-.5,1.76-3.57,4.82-7.14,9.62-10.2,14.79-2.29,3.87-4.8,7.6-8.63,10.24-2.17,1.5-2.6,4.13-3.56,6.36-1.62,3.79-2.87,7.74-4.69,11.43-1.34,2.73-3,5.46-5.1,7.62-4.1,4.22-6.77,9.39-10.12,14.1-2.34,3.28-4.65,6.6-5.36,10.71-.2,1.18-.14,2.46-.56,3.55-.68,1.77-1.52,3.5-2.54,5.1-1.33,2.09-1.72,4.2-1.35,6.67.14.92-.75,2.16-1.47,3-.61.71-1.65,1.06-2.5,1.57"/>
      <path class="cls-2" d="M194.23,222.7c1.19,4.42,2.21,8.89,3.61,13.25,2.71,8.48,7.56,15.82,12.72,22.96.57.79,1.19,1.53,1.78,2.3"/>
      <path class="cls-2" d="M179.44,220.15c-1.87,3.91-3.71,7.83-5.61,11.73-4.23,8.66-9.82,16.38-16.31,23.46"/>
      <path class="cls-2" d="M182.24,105.9c1.02,3.23,2.04,6.46,3.06,9.69.14.44.22.98.53,1.25.6.52,1.34.88,2.02,1.3.34-.6.79-1.15,1-1.79.73-2.28,1.38-4.58,2.06-6.88"/>
      <path class="cls-2" d="M146.03,124.26c-4.25.43-8.49.91-12.75,1.25-2.54.21-5.1.19-7.65.28"/>
      <path class="cls-2" d="M313.3,121.2c1.16,2.7,4.46,3.96,8.16,3.34,4.3-.72,8.6-1.63,13.01-.58.95.22,2.05-.02,3.04-.25.64-.14,1.2-.64,1.79-.98-.68-.34-1.33-.85-2.05-.99-2.19-.43-4.41-.71-6.62-1.05"/>
      <path class="cls-2" d="M189.89,142.63c.98,8.03,9.45,13.34,17.07,11.89,1.99-.38,3.76-1.94,5.63-2.96"/>
      <path class="cls-2" d="M135.83,115.85c1.95.68,3.87,1.5,5.87,2.01,4.7,1.2,7.74,4.78,11.17,7.73,2.27,1.95,4.18,4.32,6.12,6.62.52.62.55,1.67.81,2.52"/>
      <path class="cls-2" d="M209.27,111.77c-1.77,1.98-4.34,1.99-6.64,2.5-2.93.65-5.95.86-8.91,1.36-.8.14-1.54.65-2.3.99"/>
      <path class="cls-2" d="M184.79,145.18c-1.72,5.76-8.53,10.37-15.3,9.68-.94-.1-1.87-.33-2.81-.5"/>
      <path class="cls-2" d="M328.6,122.22c1.41-2.56,3.64-3.03,6.38-2.87,2.28.14,4.59-.23,6.88-.49.46-.05.85-.64,1.28-.98-.51-.34-.99-.89-1.54-.98-1.77-.28-3.56-.38-5.35-.55"/>
      <path class="cls-2" d="M182.75,116.61c-3.91-.85-7.82-1.7-11.73-2.55-.85-.18-1.7-.34-2.55-.51"/>
      <path class="cls-2" d="M260.27,101.82c-4.17,3.56-8.91,5.98-14.28,7.14"/>
      <path class="cls-2" d="M241.91,125.28c-4.42-.51-8.84-1.02-13.26-1.53"/>
      <path class="cls-2" d="M44.55,114.57c-2.29-.09-4.59-.3-6.88-.22-2.13.08-4.26.44-6.37.76-.37.05-.98.51-.96.73.05.45.35,1.01.73,1.24.5.32,1.17.53,1.76.52,2.55-.02,5.1-.14,7.65-.23"/>
      <path class="cls-2" d="M333.19,108.45c2.46.26,4.94.45,7.39.8.71.1,1.37.64,2.05.98-.51.43-1.15.76-1.51,1.29-1.62,2.41-3.7.94-5.63.75"/>
      <path class="cls-2" d="M39.19,62.8c2.72,1.28,5.45,2.52,8.15,3.84.82.4,1.56.98,2.3,1.52q2.13,1.54,3.83-.77"/>
      <path class="cls-2" d="M43.27,110.49c-2.72.17-5.44.34-8.16.51-.25.02-.56-.09-.76.02-.7.38-1.37.83-2.05,1.26l1.53,1.53"/>
      <path class="cls-2" d="M230.69,117.63c-6.36,3.3-11.47,7.97-15.3,14.03"/>
      <path class="cls-2" d="M169.75,210.72c.76.77,1.39,1.86,2.32,2.24,5.02,2.09,8.04,5.96,10.22,10.75.56,1.24,1.66,2.23,2.51,3.34"/>
      <path class="cls-2" d="M140.93,268.61c-.09,1.37.63,2.69-.46,4.12-2.26,2.97-3.53,3.27-6.68.98"/>
      <path class="cls-2" d="M228.14,368.83c.75,2.03-.18,3.95-2.3,4.03-4.24.17-8.5.05-12.75.05-2.38,0-4.76.03-7.14,0-2.3-.04-4.59-.19-6.89-.23-.93-.01-1.87.2-2.8.23-3.48.11-6.97.18-10.45.26"/>
      <path class="cls-2" d="M203.66,211.99c-3.34-.34-4.86,1.94-6.39,4.33-2.15,3.35-4.3,6.71-6.66,9.92-1.2,1.64-2.94,2.54-5.06,1.31"/>
      <path class="cls-2" d="M256.7,334.92c.59,2.21.93,4.54,1.89,6.58.53,1.12,2.11,1.75,3.21,2.6"/>
      <path class="cls-2" d="M337.02,62.55c-3.13,3.39-7.28,5.23-11.22,7.4-.53.3-1.02.67-1.53,1.01"/>
      <path class="cls-2" d="M140.42,274.73c-1.19,2.75-4.17,3.46-6.15,5.32-.84.79-2.01,1.22-3.03,1.82"/>
      <path class="cls-2" d="M192.95,354.3c-.08.85-.07,1.73-.27,2.55-.73,2.89.32,5.16,2.31,7.15"/>
      <path class="cls-2" d="M243.95,109.47l-9.94,2.3"/>
      <path class="cls-2" d="M317.89,70.71c-.51,1.62-.79,3.36-1.59,4.81-.95,1.73-3.06.68-4.53,1.31"/>
      <path class="cls-2" d="M278.88,348.43c-1,2.36-3.56,2.4-5.39,3.52-1.02.62-2.35.73-3.54,1.07"/>
      <path class="cls-2" d="M43.53,61.27c1.78.94,3.55,1.92,5.36,2.79,1.23.59,2.54,1.04,3.82,1.55"/>
      <path class="cls-2" d="M206.21,145.69c2.07,1.72,4.12,1.15,4.59-1.28.29-1.51-.51-2.23-2.55-2.3"/>
      <path class="cls-2" d="M218.96,266.06c1.47,3.29,3.31,6.21,7.14,7.14"/>
      <path class="cls-2" d="M197.03,290.54c.04,2.56-.45,5.21,1.5,7.42.37.42.37,1.16.54,1.76"/>
      <path class="cls-2" d="M166.94,142.12c-1.16-.62-1.79-.1-2.02,1.02-.11.57-.26,1.37.02,1.75,1.65,2.24,2.43,2.33,4.55.79"/>
      <path class="cls-2" d="M216.41,132.94c-.15-1.24-.49-1.96-1.53-.51-1.44,2.02-.91,6.33,1.02,8.29"/>
      <path class="cls-2" d="M40.98,118.4c-2.04.26-4.08.48-6.12.78-.97.14-1.93.41-3.21.7,2.22,1.68,8.8,2.2,13.41,1.33"/>
      <path class="cls-2" d="M160.06,191.59c1.77,2.99,4.22,5.22,7.39,6.63"/>
      <path class="cls-2" d="M196.52,255.86c-1.02,2.89-2.04,5.78-3.06,8.67"/>
      <path class="cls-2" d="M138.13,112.79c-2.8-.6-5.61-1.19-8.41-1.79"/>
      <path class="cls-2" d="M58.83,73.26c.09,4.07,1.33,5.83,5.1,6.63"/>
      <path class="cls-2" d="M196.77,104.37c-.34.17-.9.26-.99.52-.82,2.36-1.56,4.75-2.33,7.13"/>
      <path class="cls-2" d="M154.19,127.07c-2.55.09-5.1.27-7.65.23-2.72-.05-5.44-.31-8.16-.48"/>
      <path class="cls-2" d="M176.63,289.01c-1.27,2.72-2.55,5.44-3.82,8.16"/>
      <path class="cls-2" d="M134.81,264.53c-.85,1.7-2.04,3.33-2.43,5.13-.27,1.23-.75,1.9-1.65,2.52"/>
      <path class="cls-2" d="M213.09,193.12c-1.57,2.15-2.6,4.8-5.36,5.86-.32.12-.68.18-1.02.26"/>
      <path class="cls-2" d="M312.28,119.67c-2.55.34-5.1.68-7.65,1.02"/>
      <path class="cls-2" d="M158.78,135.23c2.1-1.49,1.58.44,1.49,1.27-.21,1.88-.74,3.73-.95,5.62-.16,1.51-.29,3.11.03,4.57.45,2.04,1.9,3.85,1.03,6.16-.12.31.78.99,1.2,1.5"/>
      <path class="cls-2" d="M335.74,64.84c.55.53,1.28.97.26,1.8-2.15,1.75-4.26,3.56-6.38,5.34"/>
      <path class="cls-2" d="M201.62,279.83c-1.62,2.68-4.09,4.44-6.63,6.12"/>
      <path class="cls-2" d="M199.32,372.66c.42-.43.87-1.24,1.27-1.21,3.15.17,6.4-.83,9.44.7"/>
      <path class="cls-2" d="M291.89,341.04c-.63-1.11,1.36-2.79-.77-3.57-1.9-.69-3.49-.14-4.84,1.27"/>
      <path class="cls-2" d="M207.23,210.72c-1.39-.12-2.32.59-3.36,1.48-1.98,1.7-4.21,3.11-6.33,4.64"/>
      <path class="cls-2" d="M173.57,192.1c.2,2.46.73,4.79,2.55,6.63"/>
      <path class="cls-2" d="M148.58,267.84c-2.21,1.45-4.42,2.89-6.63,4.34"/>
      <path class="cls-2" d="M323.76,113.55c-1.79,2.67-3.71,5.17-7.39,5.1"/>
      <path class="cls-2" d="M275.57,120.18c-2.21-.34-4.42-.68-6.63-1.02"/>
      <path class="cls-2" d="M307.18,79.89l-6.12,3.06"/>
      <path class="cls-2" d="M211.31,159.71c-1.7,1.96-3.4,3.91-5.1,5.87"/>
      <path class="cls-2" d="M231.71,125.79c-3.57.43-7.14.87-10.71,1.26-.49.05-1.02-.15-1.53-.24"/>
      <path class="cls-2" d="M68.52,82.95c2.04,1.19,4.08,2.38,6.12,3.57"/>
      <path class="cls-2" d="M239.87,297.17c1.19,2.04,2.38,4.08,3.57,6.12"/>
      <path class="cls-2" d="M219.98,128.34c-1.52,1.76-2.38,3.8-2.55,6.12"/>
      <path class="cls-2" d="M191.42,156.91c2.04,1.53,4.08,3.06,6.12,4.59"/>
      <path class="cls-2" d="M177.14,105.39c1.39.92,2.44,1.89,1.59,3.85-.34.79-.06,1.85-.06,2.78"/>
      <path class="cls-2" d="M166.43,290.54c-.39,2.26.43,4.23,1.53,6.12"/>
      <path class="cls-2" d="M176.63,284.93c.06,2.66-1.64,4.21-3.57,5.61"/>
      <path class="cls-2" d="M205.19,203.32c-1.19,2.04-2.38,4.08-3.57,6.12"/>
      <path class="cls-2" d="M70.05,122.22c-1.87-.17-3.74-.34-5.61-.51"/>
      <path class="cls-2" d="M180.71,253.82c.42,1.76-.88,3.77.76,5.36"/>
      <path class="cls-2" d="M320.95,72.24c.17,1.87.34,3.74.51,5.61"/>
      <path class="cls-2" d="M186.83,221.68c.08,1.96.17,3.91.25,5.87"/>
      <path class="cls-2" d="M142.46,263.51c.34,1.87.68,3.74,1.02,5.61"/>
      <path class="cls-2" d="M234.26,280.85c.17.6.17,1.35.54,1.76,1.1,1.19,2.35,2.24,3.54,3.35"/>
      <path class="cls-2" d="M202.13,299.21c-1.55,1.35-1.7,3.27-2.04,5.1"/>
      <path class="cls-2" d="M129.71,273.71c-.51,1.7-1.02,3.4-1.53,5.1"/>
      <path class="cls-2" d="M37.92,64.84c2.46,1.96,4.92,3.92,7.41,5.84.21.16.67.07,1,0,.11-.02.17-.32.26-.49-.51-.17-1.02-.34-1.53-.51"/>
      <path class="cls-2" d="M231.71,105.9l-4.59,4.59"/>
      <path class="cls-2" d="M99.11,346.14c-1.11,1.27-3.58,1.18-3.57,3.57"/>
      <path class="cls-2" d="M207.23,118.14c-1.42-1.76-3.34-.98-5.1-1.02"/>
      <path class="cls-2" d="M183.26,157.42c-1.7,1.36-3.4,2.72-5.1,4.08"/>
      <path class="cls-2" d="M135.58,284.93c-1.61.85-3.23,1.7-4.84,2.55"/>
      <path class="cls-2" d="M175.87,105.9c.66,1.7.69,3.34-.51,4.85"/>
      <path class="cls-2" d="M178.42,107.43c-.09.26-.28.71-.24.74,2.14,1.17,2.31,3.44,3.04,5.38"/>
      <path class="cls-2" d="M253.13,325.22c.34,1.53.68,3.06,1.02,4.59"/>
      <path class="cls-2" d="M142.97,106.41c1.36,1.45,2.72,2.89,4.08,4.34"/>
      <path class="cls-2" d="M345.18,114.57c-1.87.26-3.74.5-5.61.77-1.11.16-2.21.34-3.32.51"/>
      <path class="cls-2" d="M335.23,116.1c-1.02,0-2.05-.07-3.05.05-.29.04-.52.63-.77.97"/>
      <path class="cls-2" d="M70.56,119.16h-4.59"/>
      <path class="cls-2" d="M68.01,120.69c-1.53-.17-3.06-.34-4.59-.51"/>
      <path class="cls-2" d="M69.54,81.93c1.53.68,3.06,1.36,4.59,2.04"/>
      <path class="cls-2" d="M316.11,69.18c1.67,1.19.07,2.4-.06,3.56-.1.89-.79,1.71-1.21,2.56"/>
      <path class="cls-2" d="M56.79,73.77c.68,1.53,1.36,3.06,2.04,4.59"/>
      <path class="cls-2" d="M340.84,112.53c1.44.34,2.89.68,4.33,1.02"/>
      <path class="cls-2" d="M166.94,116.61c-1.36,1.02-2.72,2.04-4.08,3.06"/>
      <path class="cls-2" d="M216.41,136c-.17,1.57-.34,3.15-.51,4.72"/>
      <path class="cls-2" d="M232.22,270.14c-.17,1.36-.34,2.72-.51,4.08"/>
      <path class="cls-2" d="M173.57,277.28c1.02,1.36,2.04,2.72,3.06,4.08"/>
      <path class="cls-2" d="M229.16,277.28c.85,1.36,1.7,2.72,2.55,4.08"/>
      <path class="cls-2" d="M167.45,280.85c-.17,1.36-.34,2.72-.51,4.08"/>
      <path class="cls-2" d="M193.46,292.07v4.08"/>
      <path class="cls-2" d="M208.25,156.4c-1.36,1.19-2.72,2.38-4.08,3.57"/>
      <path class="cls-2" d="M50.67,115.08c2.21,1.7,4.42,3.4,6.63,5.1"/>
      <path class="cls-2" d="M93.51,343.33c-1.1.43-2.21.85-3.31,1.28.17.43.34.85.51,1.28"/>
      <path class="cls-2" d="M226.61,370.62c-1.88-3.93-5.42-3.7-8.92-3.57-.59.02-1.19,0-1.78,0"/>
      <path class="cls-2" d="M241.14,282.13c.09,1.28.17,2.55.25,3.83"/>
      <path class="cls-2" d="M334.98,112.28l-3.82.77"/>
      <path class="cls-2" d="M207.74,144.67c.77.65,1.56.75,1.97-.28.1-.25-.61-.82-.95-1.25"/>
      <path class="cls-2" d="M113.39,118.14c-1.19.68-2.38,1.36-3.57,2.04"/>
      <path class="cls-2" d="M46.84,70.71c1.19.6,2.38,1.19,3.57,1.79"/>
      <path class="cls-2" d="M109.82,128.34c-1.19.17-2.38.34-3.57.51"/>
      <path class="cls-2" d="M166.43,143.14c-1.5,2.32.46,1.67,1.53,1.79"/>
      <path class="cls-2" d="M162.86,156.91c.85,1.02,1.7,2.04,2.55,3.06"/>
      <path class="cls-2" d="M128.69,110.49c-1.19-.34-2.38-.68-3.57-1.02"/>
      <path class="cls-2" d="M192.95,265.55c-.34,1.19-.68,2.38-1.02,3.57"/>
      <path class="cls-2" d="M172.55,270.14v3.57"/>
      <path class="cls-2" d="M167.45,286.46c.85,1.19,1.7,2.38,2.55,3.57"/>
      <path class="cls-2" d="M189.89,300.23c.68,1.19,1.36,2.38,2.04,3.57"/>
      <path class="cls-2" d="M163.37,318.59v3.57"/>
      <path class="cls-2" d="M275.31,348.43c-.98-1.68-2.19-.41-3.31-.26"/>
      <path class="cls-2" d="M284.49,340.78c.34-.26.75-.46,1-.78.2-.26.19-.66.28-1-.42.08-1.09.03-1.23.28-.39.69-.56,1.5-.81,2.27"/>
      <path class="cls-2" d="M334.72,109.98c.17,1.36.31,2.72.52,4.08.11.69.33,1.36.5,2.04"/>
      <path class="cls-2" d="M176.63,368.58c-.08,1.11-.17,2.21-.25,3.32"/>
      <path class="cls-2" d="M161.08,150.79c1.53,1.11,3.06,2.21,4.59,3.32"/>
      <path class="cls-2" d="M232.22,275.75c1.02.68,2.04,1.36,3.06,2.04"/>
      <path class="cls-2" d="M195.75,106.67c.25,1.11.51,2.21.76,3.32"/>
      <path class="cls-2" d="M162.86,155.12c1.53,1.96,3.06,3.91,4.59,5.87"/>
      <path class="cls-2" d="M176.12,212.76c.51,1.11,1.02,2.21,1.53,3.32"/>
      <path class="cls-2" d="M288.06,337.72c.42,1.02.85,2.04,1.27,3.06"/>
      <path class="cls-2" d="M158.02,132.17c-.3,2.08.44,3.82,1.78,5.36"/>
      <path class="cls-2" d="M163.12,277.79c.42,1.02.85,2.04,1.27,3.06"/>
      <path class="cls-2" d="M199.07,289.52c1.02.68,2.04,1.36,3.06,2.04"/>
      <path class="cls-2" d="M326.05,119.16c-.17,1.02-.34,2.04-.51,3.06"/>
      <path class="cls-2" d="M336,61.02c-1.02.34-2.04.68-3.06,1.02"/>
      <path class="cls-2" d="M40.47,112.53c.08.51.29,1.03.24,1.53-.46,4.08-.48,4.08,3.33,4.08"/>
      <path class="cls-2" d="M138.13,102.59c.93.77,1.87,1.53,2.8,2.3"/>
      <path class="cls-2" d="M45.06,113.04c-.17,1.62-.34,3.23-.51,4.85"/>
      <path class="cls-2" d="M96.56,345.63c-.51-.26-1.26-.86-1.49-.71-1.19.81-2.25,1.81-3.35,2.75"/>
      <path class="cls-2" d="M176.12,338.49c.17,1.02.34,2.04.51,3.06"/>
      <path class="cls-2" d="M262.82,118.14c-.93-.43-1.87-.85-2.8-1.28"/>
      <path class="cls-2" d="M163.88,153.34c.17.51.34,1.02.51,1.53,1.27-.7,2.16-.47,2.55,1.02.17-.43.34-.85.51-1.28"/>
      <path class="cls-2" d="M329.11,71.98c-.29.49-1.7,1.02-2.27,1.32-.71.39-1.31,1.08-1.78,1.76-.33.48-.37,1.17-.54,1.76"/>
      <path class="cls-2" d="M50.41,76.83c.17.94.34,1.87.51,2.81"/>
      <path class="cls-2" d="M125.12,273.96c-.17.94-.34,1.87-.51,2.81"/>
      <path class="cls-2" d="M172.55,298.45c-.17.94-.34,1.87-.51,2.81"/>
      <path class="cls-2" d="M47.61,116.1c.51.85,1.02,1.7,1.53,2.55"/>
      <path class="cls-2" d="M114.92,123.75c-.85-.17-1.7-.34-2.55-.51"/>
      <path class="cls-2" d="M124.61,125.28h-2.55"/>
      <path class="cls-2" d="M172.81,208.68c.51.85,1.02,1.7,1.53,2.55"/>
      <path class="cls-2" d="M130.73,288.5c-.85.68-1.7,1.36-2.55,2.04"/>
      <path class="cls-2" d="M247.01,310.43c.34.85.68,1.7,1.02,2.55"/>
      <path class="cls-2" d="M180.97,370.11c1.07.2,2.15.41,3.22.61.03-.23.06-.46.09-.69-.85-.64-1.64-.82-2.29.33"/>
      <path class="cls-2" d="M305.65,79.38c-.85.34-1.7.68-2.55,1.02"/>
      <path class="cls-2" d="M340.33,111.51c-1.19.09-2.38.17-3.57.26"/>
      <path class="cls-2" d="M321.72,65.35c.85,1.53,1.7,3.06,2.55,4.59"/>
      <path class="cls-2" d="M313.05,113.3c.08.77.17,1.53.25,2.3"/>
      <path class="cls-2" d="M153.68,124.26c.7.62,1.43,1.22.76,2.3"/>
      <path class="cls-2" d="M154.19,130.38c-.25-.43-.48-.88-.79-1.25-.06-.08-.48.15-.74.23"/>
      <path class="cls-2" d="M181.73,219.13c.08.77.17,1.53.25,2.3"/>
      <path class="cls-2" d="M187.6,294.37c.34.68.68,1.36,1.02,2.04"/>
      <path class="cls-2" d="M284.49,345.37l-2.29.77"/>
      <path class="cls-2" d="M171.02,368.58c-.34.68-.81,1.33-.98,2.05-.17.73-.04,1.52-.04,2.29"/>
      <path class="cls-2" d="M173.57,368.07c-.08,1.79-.17,3.57-.25,5.36"/>
      <path class="cls-2" d="M223.04,367.81v1.02h1.02"/>
      <path class="cls-2" d="M98.6,347.41c.59.51,1.19,1.02,1.78,1.53"/>
      <path class="cls-2" d="M93.76,346.14c.68.43,1.36.85,2.04,1.28"/>
      <path class="cls-2" d="M260.27,345.12c.51.68,1.02,1.36,1.53,2.04"/>
      <path class="cls-2" d="M175.61,334.92v2.04"/>
      <path class="cls-2" d="M243.95,304.31c.34.68.68,1.36,1.02,2.04"/>
      <path class="cls-2" d="M168.47,297.68v2.04"/>
      <path class="cls-2" d="M233.75,290.03l2.04,2.04"/>
      <path class="cls-2" d="M165.92,284.42v2.04"/>
      <path class="cls-2" d="M186.32,187.26c2.41-1.03,1.27.98,1.53,1.79"/>
      <path class="cls-2" d="M201.11,178.84v2.04"/>
      <path class="cls-2" d="M205.19,151.81l-1.53,1.53"/>
      <path class="cls-2" d="M319.42,69.69v2.04"/>
      <path class="cls-2" d="M57.04,69.69c-.08.68-.17,1.36-.25,2.04"/>
      <path class="cls-2" d="M308.2,118.14h-2.04"/>
      <path class="cls-2" d="M311.77,117.63h-2.04"/>
      <path class="cls-2" d="M324.52,116.61c-.34.68-.68,1.36-1.02,2.04"/>
      <path class="cls-2" d="M327.07,115.08c-.17.68-.34,1.36-.51,2.04"/>
      <path class="cls-2" d="M186.32,114.57c.34.68.68,1.36,1.02,2.04"/>
      <path class="cls-2" d="M165.41,112.28c.51.6,1.02,1.19,1.53,1.79"/>
      <path class="cls-2" d="M240.89,112.02c-.68.17-1.36.34-2.04.51"/>
      <path class="cls-2" d="M180.71,369.09v4.34"/>
      <path class="cls-2" d="M176.89,373.42c-.54-1.95-.91-2.16-2.29-1.28"/>
      <path class="cls-2" d="M318.91,77.08v1.79"/>
      <path class="cls-2" d="M327.58,74.02c-.59.09-1.19.17-1.78.26"/>
      <path class="cls-2" d="M166.69,173.99c.42.6.85,1.19,1.27,1.79"/>
      <path class="cls-2" d="M155.72,130.89c.34.51.68,1.02,1.02,1.53"/>
      <path class="cls-2" d="M214.88,128.85c-.34.51-.68,1.02-1.02,1.53"/>
      <path class="cls-2" d="M207.23,154.87c-.34.51-.68,1.02-1.02,1.53"/>
      <path class="cls-2" d="M165.41,164.56l1.53,1.53"/>
      <path class="cls-2" d="M168.47,167.11l1.53,1.53"/>
      <path class="cls-2" d="M260.78,122.73c-.51.17-1.02.34-1.53.51"/>
      <path class="cls-2" d="M331.15,62.8c-1.88-.45-2.72,1.04-3.82,2.04"/>
      <path class="cls-2" d="M210.29,193.63c-.17.51-.34,1.02-.51,1.53"/>
      <path class="cls-2" d="M209.78,119.67c.51.34,1.02.68,1.53,1.02"/>
      <path class="cls-2" d="M184.79,119.67c.51.34,1.02.68,1.53,1.02"/>
      <path class="cls-2" d="M130.22,270.14c-.17.51-.34,1.02-.51,1.53"/>
      <path class="cls-2" d="M329.11,70.2v3.06"/>
      <path class="cls-2" d="M179.95,280.85c-.3.91-2.3.97-1.27,2.55"/>
      <path class="cls-2" d="M46.84,71.98c-.25.85-.51,1.7-.76,2.55"/>
      <path class="cls-2" d="M199.58,286.46l-1.53,1.53"/>
      <path class="cls-2" d="M326.05,113.55c-.17.51-.34,1.02-.51,1.53"/>
      <path class="cls-2" d="M128.69,292.58l-1.53,1.53"/>
      <path class="cls-2" d="M174.85,111.26l-1.27,1.28"/>
      <path class="cls-2" d="M108.8,306.35c-.17.51-.34,1.02-.51,1.53"/>
      <path class="cls-2" d="M113.39,320.12c-.09.94-.17,1.87-.25,2.81"/>
      <path class="cls-2" d="M310.24,80.4l.76,2.3"/>
      <path class="cls-2" d="M330.9,113.55c.17.68.34,1.36.51,2.04"/>
      <path class="cls-2" d="M313.81,75.3l-.76.77"/>
      <path class="cls-2" d="M87.9,344.1c.42.26.85.51,1.27.77"/>
      <path class="cls-2" d="M157.76,136.51l.76.77"/>
      <path class="cls-2" d="M280.41,340.78c-.42.09-.85.17-1.27.26"/>
      <path class="cls-2" d="M165.16,155.12c.25.43.51.85.76,1.28"/>
      <path class="cls-2" d="M210.8,157.93c-.34.34-.68.68-1.02,1.02"/>
      <path class="cls-2" d="M310.5,82.19v1.02"/>
      <path class="cls-2" d="M172.55,297.17c-.09.26-.17.51-.25.77.25-.17.51-.34.76-.51"/>
      <path class="cls-2" d="M172.81,371.64h-2.04"/>
      <path class="cls-2" d="M245.48,110.49c-.34.17-.68.34-1.02.51"/>
      <path class="cls-2" d="M60.61,77.59c.17.17.34.34.51.51"/>
      <path class="cls-2" d="M64.95,82.95l-.51,1.02"/>
      <path class="cls-2" d="M200.09,198.22l-.51,1.02"/>
      <path class="cls-2" d="M49.65,115.59c.34.34.68.68,1.02,1.02"/>
      <path class="cls-2" d="M307.69,75.3c.17.34.34.68.51,1.02"/>
      <path class="cls-2" d="M165.92,169.66c.17.34.34.68.51,1.02"/>
      <path class="cls-2" d="M170.51,117.12c-.34-.17-.68-.34-1.02-.51"/>
      <path class="cls-2" d="M322.99,119.67c-.34.34-.68.68-1.02,1.02"/>
      <path class="cls-2" d="M168.47,156.4c.34.17.68.34,1.02.51"/>
      <path class="cls-2" d="M221.25,130.13c.17-.17.34-.34.51-.51"/>
      <path class="cls-2" d="M165.92,150.28c.34.34.68.68,1.02,1.02"/>
      <path class="cls-2" d="M162.1,149.51c.17.17.34.34.51.51"/>
      <path class="cls-2" d="M154.19,131.92c.17.34.34.68.51,1.02"/>
      <path class="cls-2" d="M86.11,342.82c.34.17.68.34,1.02.51"/>
      <path class="cls-2" d="M44.55,73c.17.34.3.71.52,1.01.21.29.5.52.75.77"/>
      <path class="cls-2" d="M147.56,127.58c.17.26.34.51.51.77"/>
      <path class="cls-2" d="M100.13,346.65c.17.17.34.34.51.51"/>
      <path class="cls-2" d="M46.08,121.2c.17.17.34.34.51.51"/>
      <path class="cls-2" d="M105.74,338.49c-.17.17-.34.34-.51.51"/>
      <path class="cls-2" d="M57.81,119.16c-.25.09-.51.17-.76.26"/>
      <path class="cls-2" d="M191.42,363.99c.17.17.34.34.51.51"/>
      <path class="cls-2" d="M228.65,272.18l-.51.51"/>
      <path class="cls-2" d="M162.1,296.41c.08.26.17.51.25.77"/>
      <path class="cls-2" d="M178.93,282.38c-.25.68-.51,1.36-.76,2.04"/>
      <path class="cls-2" d="M189.96,373.14c-2.17-1.52-3.05-4.41-2.86-7.05s1.87-7.14,2.95-9.57"/>
      <path class="cls-2" d="M184.09,241.64c-.15,6.21,2.61,12.14,3.04,18.34.5,7.26-2.21,14.47-1.72,21.73.3,4.37,1.75,8.56,3.19,12.7.92,2.64,1.84,5.29,2.76,7.93"/>
      <path class="cls-2" d="M185.37,283.4c.84,5.12.17,9.05-1.28,16.32-.66,3.29-2.4,10.92-2.61,13.26-.59,6.53.61,13.56,4.33,18.95"/>
      <path class="cls-2" d="M184.73,330.31c4.1,4.17,4.49,16.75,5.33,25.08"/>
    </g>
    <path class="cls-2" d="M186.05,308.76c3.77,14.7,2.66,26.07,3.38,41.22"/>
    <path class="cls-2" d="M168.85,308.41c0,6.76,0,13.52,0,20.27"/>
    <path class="cls-2" d="M175.45,348.14c-.21-6.06-.21-12.12.01-18.18"/>
    <path class="cls-2" d="M171.67,304.23c.4,1.19,1.18,2.21,1.67,3.37.49,1.16.68,2.43.86,3.68,1.17,8.14,2.35,16.4,1.32,24.57-.07.52-.14,1.04-.38,1.51"/>
    <g>
      <path class="cls-2" d="M200.3,78.52c.54-.59.36-1.31-.17-1.56-1.1-.53-2.3-.88-3.49-1.18-.59-.15-1.26.02-1.89-.03-2.19-.17-4.37-.51-6.56-.55-3.45-.06-6.9.02-10.35.16-.79.03-1.58.5-2.33.85-1.62.75-3.21,1.55-4.82,2.32"/>
      <path class="cls-2" d="M203.66,78.08c-.15-.34-.33-.67-.43-1.02-.39-1.34-1.22-2.03-2.62-2.37-3.46-.84-6.96-1.25-10.51-1.44-4.88-.25-9.74-.23-14.58.47-1.81.26-3.61.62-5.39,1.02-1.82.41-2.15,2.02-2.63,3.49"/>
      <path class="cls-2" d="M195.2,57.52c-1.3-2.24-3.5-3-5.84-3.46-.34-.07-.79.55-1.16.51-1.89-.19-3.78.33-5.72-.3-1.03-.33-2.53.14-3.58.69-1.22.64-2.17,1.78-3.24,2.71"/>
      <path class="cls-2" d="M175.66,75.75c-1.72-.39-3.24.22-4.65,1.04-.94.55-.43,1.65-.54,2.46-.26,1.87.23,3.98-.45,5.64-1.12,2.73.27,4.68,1.11,6.91.4,1.07,1.05,2.14.06,3.38-.52.65.67,2.26,1.53,3.06,1.51,1.4,3.25,2.68,3.41,5.07.12,1.81.46,3.6.71,5.4"/>
      <path class="cls-2" d="M196.07,76.19c1.26.73,2.5,1.52,3.8,2.16.8.39.7.86.79,1.62.26,2.39-.04,4.84.88,7.18.25.65-.25,1.65-.53,2.45-.31.9-.79,1.74-1.14,2.63-.36.91-.7,1.77-.04,2.79.61.93-.07,1.88-.73,2.42-1.27,1.04-1.94,2.39-2.63,3.81-.38.78-1.49,1.31-1.64,2.07-.27,1.42-1.36,2.13-2.17,3-.73.78-1.18,1.87-2.55,2.18-1.18.27-1.5-.04-1.77-.96"/>
      <path class="cls-2" d="M201.03,87.13c-.49.49-1.04.93-1.44,1.47-.3.41-.42.95-.6,1.44-.29.75-.36,1.6-1.45,1.8-.4.07-.95.7-.99,1.12-.29,2.85-1.75,5.03-3.68,7-1.35,1.38-2.44,3.09-4.53,3.48-.96.18-1.94.19-2.91.31-1.47.18-2.9.36-4.24-.58-1.04-.73-2.15-1.26-2.67-2.62-.36-.93-1.21-1.68-1.85-2.5-.06-.08-.23-.17-.28-.14-1.59.96-1.86-.68-2.63-1.32"/>
      <path class="cls-2" d="M191.7,63.07c-.63,1.22-1.28,2.42-1.87,3.66-.05.1.28.55.41.54,1.56-.1,3.12-.23,4.66-.45.19-.03.3-.64.44-.98"/>
      <path class="cls-2" d="M201.47,86.69c2.61-2.4,2.84-5.68,3.38-8.89.36-2.11-1.24-3.39-1.8-5.1-.08-.25-.44-.5-.71-.58-2.62-.76-5.24-1.5-7.88-2.18-.62-.16-1.31-.02-1.96-.02"/>
      <path class="cls-2" d="M178.79,69.77c-.12.15-.28.44-.36.42-2.32-.53-4.38.25-6.42,1.19-.14.06-.29.15-.44.14-2.9-.11-4.07,2-5.24,4.09-.09.17-.15.39-.14.58.08,2.83.54,5.58,1.76,8.16.29.61.85,1.08,1.29,1.61"/>
      <path class="cls-2" d="M176.24,102.29c1.17.87,2.47,1.62,3.44,2.68.48.52.91.83,1.52.96,2.04.45,4.09.85,6.12,1.33,1.02.24,1.75-.07,2.35-.88.18-.24.48-.4.72-.59"/>
      <path class="cls-2" d="M169.83,86.69c1.23,1.15,2.07,2.66,3.63,3.53,2,1.12,4.08,1.93,6.29,2.42.3.07.78-.07,1-.29.68-.68,1.26-1.46,1.92-2.16.61-.66,1.18-1.39,1.91-1.86.66-.42,1.52-.48,2.16.25.77.88,1.56,1.74,2.33,2.63,1.49,1.72,2.41,1.88,4.96.72,1.58-.72,3.12-1.55,4.67-2.32"/>
      <path class="cls-2" d="M201.91,67.51c1.45-2.95.94-5.66-1.28-7.55-.94-.81-1.71-1.81-2.96-2.12-.55-.14-1.16-.02-1.74-.02"/>
      <path class="cls-2" d="M175.37,57.82c-1.47-.41-2.7.13-3.78,1.04-.65.55-1.14,1.29-1.77,1.87-.97.88-1.39,1.9-1.32,3.22.07,1.39-.87,2.46-1.42,3.65-.25.54-.31,1.16-.45,1.74"/>
      <path class="cls-2" d="M187.83,59.86c-.12,1.51-.21,3.02-.39,4.52-.04.32-.42.78-.71.84-.66.13-1.35.07-2.03.03-1.13-.06-1.01-.74-.92-1.6.08-.76-.31-1.55-.29-2.33.02-.73.1-1.88.52-2.1.76-.38,1.8-.25,2.72-.21.35.01.68.36,1.02.55"/>
      <path class="cls-2" d="M174.64,64.52c-.39-.34-.75-.73-1.18-1.01-.49-.32-.45-1.42-1.63-.81-.82.43-1.85.31-1.74,1.67.04.43-.25.87-.26,1.31-.06,2.03-.7,3.08-2.65,3.6-.79.21-1.13.64-1.28,1.22-.42,1.68-1.21,3.43.41,4.95"/>
      <path class="cls-2" d="M183.68,104.19c.53.24,1.05.57,1.61.71,1.49.39,3.01.7,4.52,1.04"/>
      <path class="cls-2" d="M201.03,64.67c.1.29.29.59.28.87-.12,1.97.91,3.17,2.65,3.76.74.25.95.62,1.2,1.33.63,1.8,1.1,3.49-.34,5.12"/>
      <path class="cls-2" d="M187.62,59.42c-.05-.67.22-1.39-.87-1.64-1.11-.25-2.11-.23-3.05.37-.12.08.07.64.12.98"/>
      <path class="cls-2" d="M198.12,62.63c-.88-1.03-2.99-1.41-4.08-.72-.17.11-.34.26-.43.44-.41.72-.78,1.46-1.18,2.18-.44.8-.07,1.36.88,1.47,2.08.24,3.23-1.16,4.36-2.51.86-1.02,2.47-1.19,3.2-.11.19.28.25.92.07,1.12-1.49,1.63-1.43,3.88-2.38,5.71"/>
      <path class="cls-2" d="M172.89,91.79c.78-.05,1.39-.02,1.64,1.01.41,1.68,1.03,3.31,1.57,4.97"/>
      <path class="cls-2" d="M170.41,64.52c.68,1.9,1.36,3.79,2.04,5.69"/>
      <path class="cls-2" d="M177.41,62.77c-.34,0-.68.01-1.02,0-1.75-.08-2.04.32-1.46,2.04.57,1.68,1.3,2.23,3.06,2.33.78.04,1.56.08,2.33.15.85.07,1.13-.32.71-1.01-.55-.92-.32-2.28-1.58-2.8-.09-.04-.12-.27-.15-.42-.44-1.9-.87-3.79-1.32-5.68-.09-.35-.28-.68-.43-1.02"/>
      <path class="cls-2" d="M178.28,63.79c-.15-.15-.4-.28-.42-.44-.27-1.79-1.59-1.72-2.93-1.77-1.02-.04-1.66.24-1.75,1.33"/>
      <path class="cls-2" d="M182.37,91.21c.61,1.45,2.18,1.42,3.22,1.47,1.02.05,2.58-.03,3.2-1.47"/>
      <path class="cls-2" d="M198.12,91.94c-.21,2.29.05,4.57-1.98,6.48-2.07,1.95-3.72,4.36-5.42,6.67-.56.76.45,1.37.84,2.01"/>
      <path class="cls-2" d="M193.59,56.36c-.15.19-.37.37-.42.59-.36,1.6-.58,3.24-1.08,4.8-.32.98-.13,1.71.33,2.49"/>
      <path class="cls-2" d="M183.68,69.34c.98,1.24,2.82,1.18,4.08-.15"/>
      <path class="cls-2" d="M178.72,64.38c.21,1.59.04,1.77-1.46,1.61-.48-.05-.97,0-1.46,0"/>
      <path class="cls-2" d="M187.91,97.77c-1.41.84-2.86,1.09-4.37.29"/>
      <path class="cls-2" d="M198.41,58.4c-.46,1.29-.93,1.4-1.9.44-.47-.46-.94-.93-1.48-1.28-.12-.08-.75.31-.8.55-.06.3.19.92.4.96.66.13,1.35.05,2.03.05"/>
      <path class="cls-2" d="M183.39,62.19c-.92-.24-1.84-.52-2.77-.71-.47-.09-.97-.02-1.45-.02"/>
      <path class="cls-2" d="M182.37,56.21c.1,1.07.15,2.15.32,3.2.04.28.46.49.7.73"/>
      <path class="cls-2" d="M172.16,89.6c.24,1.12.45,2.25.74,3.35.45,1.75.96,3.48.14,5.25"/>
      <path class="cls-2" d="M192.14,69.77c-2.56-.87-5.22-.98-7.87-.84-1.76.1-3.5.55-5.25.84"/>
      <path class="cls-2" d="M193.74,62.77s.1.14.15.14q2.15-.23,2.63,1.61"/>
      <path class="cls-2" d="M191.84,61.32c-.73.1-1.46.17-2.19.3-.59.11-1.17.28-1.75.43"/>
      <path class="cls-2" d="M190.09,96.31c-.44,0-.93.13-1.3-.02-1.27-.55-2.54-.11-3.8-.09-1.31.02-2.63.26-3.94.41"/>
      <path class="cls-2" d="M202.93,65.4c.5,1.33,1.56,2.43,1.6,3.94"/>
      <path class="cls-2" d="M188.78,56.21c-.24,1.17-.49,2.33-.73,3.5,0,0-.1.02-.14,0-.06-.03-.1-.09-.15-.14"/>
      <path class="cls-2" d="M175.66,98.5c.65,1.13,1.29,2.27,2.77,2.48"/>
      <path class="cls-2" d="M183.97,63.5c.98.83,2.01.81,3.06.15"/>
      <path class="cls-2" d="M204.53,77.65c-1.1.82-2.08,1.91-3.65,1.75"/>
      <path class="cls-2" d="M166.62,77.94c.68.39,1.33.84,2.05,1.15.49.21,1.06.22,1.59.31"/>
      <path class="cls-2" d="M190.39,69.48c-.17,1.5.04,1.6,1.75.87"/>
      <path class="cls-2" d="M180.76,69.63c-.08,1.19-.21,1.24-1.75.73"/>
      <path class="cls-2" d="M174.64,70.79c.29.92.58,1.85.87,2.77"/>
      <path class="cls-2" d="M172.74,58.4c.74,1.33.96,1.39,1.89.43.34-.35.59-.77.88-1.16"/>
      <path class="cls-2" d="M196.51,70.79c-.29.92-.58,1.85-.87,2.77"/>
    </g>
  </g>
</svg>
