<?xml version="1.0" encoding="UTF-8"?>
<svg xmlns="http://www.w3.org/2000/svg" xmlns:xlink="http://www.w3.org/1999/xlink" viewBox="0 0 375.51 376.41">
  <defs>
    <style>
      
      .cls-1, .cls-2, .cls-3 {
        fill: none;
      }

      .cls-4 {
        filter: url(#drop-shadow-1);
      }

      .cls-5 {
        filter: url(#drop-shadow-3);
      }

      .cls-6 {
        filter: url(#drop-shadow-2);
      }

      .cls-7 {
        filter: url(#drop-shadow-5);
      }

      .cls-8 {
        filter: url(#drop-shadow-4);
      }

      .cls-14 {
        filter: url(#drop-shadow-6);
      }

      .cls-9 {
        fill: #fed402;
      }

      .cls-10 {
        font-size: 12px;
      }

      .cls-10, .cls-11, .cls-12, .cls-13 {
        fill: #231f20;
      }

      .cls-10, .cls-13 {
        font-family: HiraKakuStd-W8-83pv-RKSJ-H, 'Hiragino Kaku Gothic Std';
      }

      .cls-2 {
        stroke: #000;
      }

      .cls-2, .cls-3 {
        stroke-linecap: round;
        stroke-linejoin: round;
      }

      .cls-12 {
        fill-rule: evenodd;
      }

      .cls-3 {
        stroke: #fed402;
        stroke-width: 2px;
      }

      .cls-13 {
        font-size: 2.29px;
      }
    </style>
    <filter id="drop-shadow-1" x="214.27" y="115.82" width="116.4" height="45.6" filterUnits="userSpaceOnUse">
      <feOffset dx="0" dy="0"/>
      <feGaussianBlur result="blur" stdDeviation="1.56"/>
      <feFlood flood-color="#231f20" flood-opacity=".25"/>
      <feComposite in2="blur" operator="in"/>
      <feComposite in="SourceGraphic"/>
    </filter>
    <filter id="drop-shadow-2" x="180.91" y="225.74" width="66.48" height="153.84" filterUnits="userSpaceOnUse">
      <feOffset dx="0" dy="0"/>
      <feGaussianBlur result="blur-2" stdDeviation="1.56"/>
      <feFlood flood-color="#231f20" flood-opacity=".25"/>
      <feComposite in2="blur-2" operator="in"/>
      <feComposite in="SourceGraphic"/>
    </filter>
    <filter id="drop-shadow-3" x="49.63" y="57.98" width="142.32" height="321.6" filterUnits="userSpaceOnUse">
      <feOffset dx="0" dy="0"/>
      <feGaussianBlur result="blur-3" stdDeviation="1.56"/>
      <feFlood flood-color="#231f20" flood-opacity=".25"/>
      <feComposite in2="blur-3" operator="in"/>
      <feComposite in="SourceGraphic"/>
    </filter>
    <filter id="drop-shadow-4" x="155.47" y="226.22" width="40.56" height="70.56" filterUnits="userSpaceOnUse">
      <feOffset dx="0" dy="0"/>
      <feGaussianBlur result="blur-4" stdDeviation="1.56"/>
      <feFlood flood-color="#231f20" flood-opacity=".25"/>
      <feComposite in2="blur-4" operator="in"/>
      <feComposite in="SourceGraphic"/>
    </filter>
    <filter id="drop-shadow-5" x="100.75" y="117.02" width="61.92" height="262.8" filterUnits="userSpaceOnUse">
      <feOffset dx="0" dy="0"/>
      <feGaussianBlur result="blur-5" stdDeviation="1.56"/>
      <feFlood flood-color="#231f20" flood-opacity=".25"/>
      <feComposite in2="blur-5" operator="in"/>
      <feComposite in="SourceGraphic"/>
    </filter>
    <filter id="drop-shadow-6" x="150" y="16" width="78" height="112" filterUnits="userSpaceOnUse">
      <feOffset dx="0" dy="0"/>
      <feGaussianBlur result="blur-6" stdDeviation="1.56"/>
      <feFlood flood-color="#231f20" flood-opacity=".25"/>
      <feComposite in2="blur-6" operator="in"/>
      <feComposite in="SourceGraphic"/>
    </filter>
  </defs>
  <g id="Layer_7" data-name="Layer 7">
    <g>
      <path class="cls-2" d="M211.62,194.32c-1.37,1.35.12,2.68.06,4.04-.15,3.7-.05,7.42-.57,11.1-.69,4.91-.26,9.8.55,14.63,1.11,6.65.6,13.3.41,19.95-.18,6.56-1.13,13.04-2.68,19.45-.94,3.88-2.07,7.69-3.65,11.32-1.52,3.5-1.9,6.91-1.25,10.64.52,2.99-.58,5.84-1.72,8.57-2.63,6.29-3.07,12.79-2,19.44,1.24,7.72,1.18,15.47.47,23.22-.6,6.66-.13,13.15,2.28,19.44,1.01,2.63,2.52,4.67,5.31,5.55,1.99.63,3.87,1.65,5.51,2.83,3.24,2.33,6.76,3.26,10.64,3.21,1.44-.02,2.57.33,3.32,1.75.4.74,1.13,1.54,2.23.78"/>
      <path class="cls-2" d="M323.42,64.33c-3.15.56-6.05,1.6-8.08,4.29-.31.41-.95.64-1.27.69-3.78.65-6.38,2.72-8.1,6.1-.4.78-1.22,1.24-2.21,1.6-3.28,1.21-6.56,2.4-9.65,4.16-3.45,1.97-7.52,1.97-11.32,2.83-4.44,1-8.61,2.45-12.7,4.65-4.46,2.4-8.96,4.5-12.6,8.17-1.05,1.05-2.98,1.18-4.48,1.26-6.5.35-12.11,3.17-17.63,6.19-1.09.6-1.54.71-2.61,0-1.27-.84-2.88-1.15-4.5-1.09-3.51.14-7.37-.56-10.26,1.64-2.76,2.09-5.86,2.85-8.92,3.91-1.25.43-2.33.94-2.77,2.29"/>
      <path class="cls-2" d="M165.19,109.76c-2.49-1.79-5.08-3.21-8.33-3.1-.66.02-1.53-.14-2.3-.64-4.23-2.75-8.8-2.44-13.33-1-1.36.43-2.37.54-3.56-.29-5.91-4.09-12.57-5.8-19.67-6.11-1.48-.07-2.92-.46-4.06-1.71-2.91-3.2-6.37-5.53-10.56-6.9-3.21-1.05-5.84-3.45-9.34-4.06-1.85-.32-3.69-.8-5.57-.9-4.4-.25-8.63-1.02-12.64-3.01-2.42-1.21-4.6-3-7.55-3.12-1.51-.06-2.39-1.65-2.68-2.75-.73-2.83-2.83-4.31-4.95-5.7-.96-.62-1.75-1.35-2.42-2.14-.83-.99-1.53-.69-2.31-.2-.85.53-.48,1.09-.04,1.77.66,1.03.25,1.57-.98,1.5-.99-.06-1.85.26-2.52,1"/>
      <path class="cls-2" d="M161.91,275.08c-1.21-.28-.91.65-1.01,1.26-.87,5.28-1.65,10.56-2.05,15.9-.45,6.1-2.68,11.87-3.54,17.92-.98,6.84-.46,13.42,2.57,19.69,1.67,3.45,1.99,7.3,3.26,10.86,1.38,3.86,3.12,7.52,5.54,10.86,1.81,2.5,2.9,5.23,1.51,8.31-.65,1.45,1.02,2.32.74,3.53-.3,1.34-2.08,1.8-2.22,3.29-.06.67-.24,1.49.74,1.77"/>
      <path class="cls-2" d="M333.26,126.17c-.41.44-.87.76-1.51.76-4.6,0-9.14.57-13.62,1.53-1.48.32-2.91.48-4.29-.27-.65-.35-1.38-.38-2.01-.22-5.56,1.39-11.38.73-16.89,2.08-3.88.95-7.77,1.91-11.65,2.87-4.05,1-8.23.04-12.34-.24-1.26-.09-2.53-.05-3.79-.19-.69-.08-1.36.17-2.05-.47-2.15-1.99-4.84-1.43-7.28-.97-3.31.62-6.56.4-9.86.23-1.85-.09-3.67-.03-5.59.6-2.87.95-5.99,1.06-9.04.57-.2-.03-.87-.1-.76-.71"/>
      <path class="cls-2" d="M238.12,275.84c1.31,1.72,1.24,3.94,2.17,5.86.8,1.64,1.55,3.36,2.67,4.71,7.72,9.21,12.04,20.05,15.68,31.31,1.65,5.11,2.8,10.47,6.17,14.96,1.56,2.07,3.78,3.58,4.88,6,.11.23.33.6.74.51,3.75-.78,7.62,1.7,11.45-.87,1.44-.96,3.83-.94,5.99-.23,2.91.96,3,.7,3,3.62"/>
      <path class="cls-2" d="M190.17,299.82c3.42,5.03,4.3,10.84,4.72,16.66.44,6.03.97,12.1.09,18.17-.67,4.56-1.75,9.05-2.26,13.63-.47,4.2-1.44,8.37.11,12.66.57,1.57.06,3.55,1.37,5.01"/>
      <path class="cls-2" d="M338.31,114.81c.22-.39,1.21-.59.26-1.27-2.2-1.57-4.76-2.05-7.32-1.95-3.03.11-6.06.45-9.09.17-2.36-.22-4.31.51-6.07,2.03-1.09.94-2.31,1.74-3.52,2.54-.39.26-.75.49-1.26.51-7.83.34-15.56,1.2-23.5-.07-7.34-1.17-15.01-1.21-22.16,1.85-2.03.87-3.94.8-5.8-.08-1.32-.62-2.68-.99-4.06-.93-4.21.18-8.4-.35-12.63.11-2.1.22-3.44,2.04-5.54,1.9-.41-.03-.72.56-1.28,0-1.62-1.64.91-.63.78-1.28,1.58.29,2.48-2.31,4.29-1.01"/>
      <path class="cls-2" d="M327.45,73.42c-1.63,1.1-3.51,1.77-5.07,2.99-.41.32-.92.55-.69,1.03.28.58.83.79,1.48.28,1.64-1.29,3.55-2.16,5.34-3.22.35-.21,1.37-.95,2,.17.52.93.13,1.49-.53,2.03-1.81,1.46-3.86,2.68-5.86,3.66-3.58,1.75-6.2,5.55-10.05,5.99-4.36.49-7.32,3.56-11.31,4.56-4.26,1.07-7.83,3.74-11.34,6.28-4.38,3.16-9.02,5.59-14.13,7.36-3.29,1.14-6.27,3.21-9.87,3.44-7.21.47-13.08,4.3-19.2,7.54-.78.41-1.33.84-1.74,1.56"/>
      <path class="cls-2" d="M45.32,119.35c-.98-.41-2.14-.39-3-1.04-.22-.17-1.01-.28-.54-.98.29-.44.62-.27,1.02-.28.69,0,1.9.49,1.93-.48.04-1.14-.21-2.66-1.93-2.76-1.51-.08-3.03-.03-4.54-.01-1.01.01-2.14-.47-2.17-1.27-.04-1.09,1.19-1.29,2.17-1.25,3.66.16,7.47-.67,10.85,1.51.26.16.35.57.76.51,4.07-.62,7.1,1.42,10.13,3.74,1.57,1.21,3.65.67,5.52.82,7.13.55,14.09-1.5,21.2-1.32,2.81.07,5.48,1.18,8.33.82,2.42-.3,4.84-.7,7.32-.55,1.48.09,2.76.37,4.07,1.23,2.6,1.69,5.25,2.53,8.59,1.17,4.45-1.81,9.34-1.32,14.09-1.42,2.59-.06,4.61,1.26,6.79,2.13,2.07.82,3.97,1.74,6.33,1.83,1.62.06,3.23,1.1,4.33,2.63.54.75.95,1.71,1.97,2.07.23.08.69.39.5.72-1.76,2.91,1.79,4.9,1.28,7.58,2.6,3.29,3.12,7.74,6.04,10.86.63.68.62,1.7.72,2.52.9,7.56,2.58,14.88,6.08,21.71.29.57.57,1.41.25,1.99-1.63,2.92-1.19,6.38-2.52,9.34-.72,1.62-.77,3.3-.15,4.77.59,1.4.29,2.41-.32,3.57-1.05,1.98-1.73,4.03-2.11,6.29-.65,3.83-2.01,7.52-2.76,11.36-.5,2.56-2.35,4.62-3.72,6.83-2.13,3.43-4.76,6.54-6.36,10.33-.84,1.99-1.38,4.03-1.98,6.08-1.32,4.51-3.68,8.62-5.05,13.12-.65,2.15-1.39,4.38-1.18,6.56.5,5.21-1.82,9.05-5.41,12.33-.7.64-1.29,1.25-1.73,2.06-4.34,8.02-11.37,13.92-16.72,21.15-3.12,4.22-5.66,8.69-6.92,13.7-1.18,4.69-2.62,9.28-4.13,13.86-1.52,4.6-1.81,9.43-2.74,14.14-.45,2.29-1.04,4.43-2.52,6.33-1.59,2.04-2.23,4.71-4.54,6.34-1.25.88-2.49,1.1-3.82.93-2.57-.34-2.88-.13-3.31,2.55-.08.53-.48,1.01-.73,1.52"/>
      <path class="cls-2" d="M132.88,287.7c-2.9,5.93-3.72,12.73-7.76,18.22-.85,1.16-1.6,2.49-2.63,3.44-2.32,2.16-3.77,4.76-5.05,7.6-1.5,3.33-3.91,6.14-6.05,9.08-2.01,2.76-2.83,5.81-3.28,9.11-.37,2.68-.75,5.39-2.7,7.61-1.22,1.39-1.36,3.34-.97,5,.7,2.98-.17,4.99-2.84,6.33"/>
      <path class="cls-2" d="M230.04,287.7c7.07,4.86,10.93,12.2,14.87,19.44,4.51,8.3,7.4,17.23,10.13,26.23,1.07,3.52,2.06,7.06,3.01,10.61"/>
      <path class="cls-2" d="M210.36,260.95c2.9,3.44,4.67,7.5,6.27,11.63.76,1.96,1.34,3.92,2.79,5.56,1.76,2,2.46,4.57,3.32,7.04,1.84,5.31,3.52,10.67,4.8,16.15,1.23,5.26,4.02,9.58,8.32,12.86,1.56,1.19,2.48,2.59,3.09,4.53,1.78,5.68,5.13,10.44,9.8,14.12,2.9,2.29,4.92,5.2,6.47,8.4,1.25,2.6,3.69,3.93,5.36,6.03.41.51,1.11.79,1.27,1.51"/>
      <path class="cls-2" d="M69.04,88.81c4.58,2.11,7.84,5.97,11.85,8.85,4.59,3.3,9.25,6.36,14.89,7.59,1.65.36,3.27.96,4.81,1.72,2.46,1.21,4.97,1.98,7.82,1.84,3.38-.17,6.1,2.05,9.04,3.33,1.61.7,3.16,1.22,4.84,1.39,3.03.31,5.56,1.77,8.07,3.3.3.18.26.47.25.76"/>
      <path class="cls-2" d="M183.36,251.86c.27,5.85,1.66,11.58,2,17.42.19,3.3-.63,6.55-.82,9.84-.09,1.63-.11,3.21.09,4.8.44,3.37-.39,6.58-.97,9.85-1.13,6.3-2.32,12.6-3.34,18.92-1.09,6.76.8,12.77,4.3,18.43.7,1.13,2.03,1.17,3.03,1.77"/>
      <path class="cls-2" d="M160.9,302.34c1.73,2.94,1.66,6.26,1.16,9.32-1.14,7.09-.32,14.01.85,20.97.63,3.75.99,7.56,2.53,11.1"/>
      <path class="cls-2" d="M185.12,332.13c-.65,6.98.26,13.78,3.09,20.16,2.43,5.48,2.81,10.92,1.5,16.7-.91,4.04.05,5.03,3.99,5.04,4.29,0,8.58,0,12.87-.24.51-.03.88-.24,1.26-.52"/>
      <path class="cls-2" d="M69.04,125.16c-1.69.02-3.38-.12-5.04.26-.82.19-1.76.4-1.75,1.5.01.9.68,1.21,1.48,1.55,2.31.97,4.74.45,7.09.62,3.03.22,6.02.71,8.8,1.7,5.48,1.95,10.96,2.74,16.69,1.69.33-.06.67-.03,1.01,0,4.22.28,8.36-.14,12.36-1.54.5-.18,1.09-.65,1.5-.45,3.32,1.58,6.75.34,10.11.41,2.71.05,5.29.43,7.82,1.33,3.94,1.39,8.08,1.67,12.1,1.13,3.01-.4,5.79-.52,8.6.63"/>
      <path class="cls-2" d="M185.63,231.92c.55,5.24-.42,10.33-1.54,15.39-.93,4.2-3.07,8-4.28,12.12-.69,2.35-.57,4.77-.18,7.06.9,5.21.43,10.33-.63,15.4-.57,2.74-2.29,5.18-2.48,8.09-.18,2.69-.86,5.11-3.5,6.6-1.34.76-.2,2.82-1.54,3.75"/>
      <path class="cls-2" d="M212.63,229.9c4.78,6.07,9.28,12.33,12.83,19.2.52,1,.95,2.07,1.58,2.99,2.47,3.62,2.5,7.77,2.75,11.88"/>
      <path class="cls-2" d="M155.6,208.45c.25.17.25.34.26.5.32,5.04,1.29,10.07.73,15.14-.88,7.93-.52,15.83.29,23.73.23,2.27,1.17,4.87.3,6.73-.99,2.1-1.86,4.3-2.76,6.43-1.43,3.38-3.96,5.76-6.39,8.29-1.23,1.28-2.22,2.65-3.13,4.24-1.66,2.9-4.49,4.89-6.95,7.14-1.65,1.51-3.27,3.06-4.07,5.28-.66,1.84-2.78,2.37-3.84,3.99-.87,1.32-2.09,2.45-2.95,3.84"/>
      <path class="cls-2" d="M210.36,188.51c-.04.51.51.7.55,1.26.15,2.09.82,3.96,1.91,5.85,2.3,4,3.2,8.55,3.26,13.09.05,4.19,2,7.48,3.92,10.83,2.21,3.86,5.2,7.25,6.54,11.63,1.16,3.8,2.49,7.52,2.03,11.62-.19,1.68.56,3.34.47,5.04"/>
      <path class="cls-2" d="M110.93,123.65c3.22,3.17,7.44,4,11.62,4.46,4.08.45,8,1.17,11.87,2.55,2.48.89,5.14,1.17,7.81,1.06"/>
      <path class="cls-2" d="M196.23,255.9c-.29,3.88-2.09,7.27-3.86,10.56-2.31,4.31-3.09,8.47-.68,12.91.38.69.29,1.3.02,2.03-.59,1.6-.33,3.08.98,4.28"/>
      <path class="cls-2" d="M182.85,219.56c.81,2.3-1.92,3.46-1.77,5.55-2.85,1.73-3.19,5.05-4.8,7.57-3.16,4.91-6.59,9.6-11.35,13.13-2.7,2-4.93,4.48-7.32,6.82"/>
      <path class="cls-2" d="M192.95,219.81c-1.11,1.26-.28,2.55.02,3.78.56,2.29.79,4.52,0,6.83-.73,2.13.75,3.9,1.29,5.78,2.15,7.48,7.01,13.29,12.08,18.93,1.24,1.38,2.4,2.82,3.52,4.3"/>
      <path class="cls-2" d="M174.02,296.28c.79,1.01-.02,1.94-.31,2.76-1.36,3.91.1,7.47,1.05,11.13,1.7,6.47,2.48,12.94.07,19.46-.25.67.16,1.65.54,2.56,1.32,3.14,1.84,6.65,1.57,10.03-.34,4.36.38,8.25,2.84,11.89,1.24,1.84,3.04,3.77,2.64,6.01-.25,1.44.29,2.21.61,3.32.91,3.14,3.26,4.8,5.86,6.29"/>
      <path class="cls-2" d="M111.94,296.28c-.86,3.45-2.88,6.39-4.28,9.6-1.98,4.54-3.82,9.15-5.26,13.89-.29.94-.45,1.23-1.31.74"/>
      <path class="cls-2" d="M172.76,304.87c-1.04,2.03-.67,4.26-.43,6.3.7,5.97,1.26,11.96,1.94,17.93"/>
      <path class="cls-2" d="M113.96,102.95c4.36,5.54,10.61,7.99,16.91,10.34,1.96.73,3.93,1.4,5.55,2.79"/>
      <path class="cls-2" d="M258.31,102.95c-4.75,5.23-10.94,8.04-17.42,10.33-1.33.47-2.8.59-3.78,1.78"/>
      <path class="cls-2" d="M172.25,265.49c-.08,2.2-.74,4.07-2.5,5.58-2.5,2.13-3.39,4.79-2.33,8.07.44,1.35.64,2.86.03,4.27-1.24,2.9.01,5.18,1.78,7.32.66.8,1.61,1.38,1.76,2.53"/>
      <path class="cls-2" d="M217.43,253.88c.01,2.78-.38,5.55-.24,8.33.13,2.64,1.23,4.88,3.28,6.55,1.57,1.28,3.09,2.58,3.75,4.57.39,1.17,1.42,1.46,2.29,1.43.9-.03,1.09-1.03,1.31-1.93.39-1.6.75-3.22,1.21-4.81"/>
      <path class="cls-2" d="M288.84,123.39c-4.07-1.25-8.14-1.1-12.09.3-1.62.58-3.02.34-4.57,0-.88-.19-1.81-.5-2.77-.3"/>
      <path class="cls-2" d="M157.36,255.65c.77,6.52,2.46,12.84,4.04,19.18"/>
      <path class="cls-2" d="M148.78,115.32c-1.59-.14-2.04.46-1.54,2.03.58,1.84,1.5,3.46,2.55,5.04,2.37,3.56,4.94,6.98,7.57,10.35"/>
      <path class="cls-2" d="M229.03,241.01c2.92,4.94,4.26,10.06,3.17,15.93-.45,2.43.34,5.41,1.94,7.49,3.43,4.47,4.14,9.36,3.22,14.69"/>
      <path class="cls-2" d="M224.24,112.79c-3.8.55-7.58.4-11.36-.23-1.58-.26-3.22.03-4.52,1.01-1.63,1.23-3.35,1.23-5.31,1.36-3.96.26-7.91.39-11.87.34-.91-.01-1.24.6-1.77,1.04"/>
      <path class="cls-2" d="M259.82,126.17c-5.96,1.52-12.22.92-18.17,2.52"/>
      <path class="cls-2" d="M185.12,134.75c1.29,2.02.95,6.38-.78,6.67-1.58.26-2.35,1.79-4.02,1.71-2.04-.09-3.6,1.5-5.52,2.08-1.92.58-3.74.18-5.59.37-1.64.17-3.15-.39-4.54-1.24"/>
      <path class="cls-2" d="M188.66,323.54c.3,2.47-.22,4.89-.5,7.32-.78,6.85.17,13.48,2.52,19.94"/>
      <path class="cls-2" d="M56.42,86.04c.96,1.84,3.01,2.47,4.56,2.63,3.73.4,6.38,3.05,9.81,4,1.95.55,3.72,1.76,5.83,1.94"/>
      <path class="cls-2" d="M114.46,288.21c-3.55,4.68-5.13,10.24-7.03,15.66-.14.39-.66.51-.54,1"/>
      <path class="cls-2" d="M186.64,145.35c.97,2.55-.05,4.42-2.78,4.77-3.13.4-6.36.28-8.86,2.77-.51.5-1.2.82-1.48,1.55"/>
      <path class="cls-2" d="M223.99,117.08c-1.4.39-1.46,1.79-1.99,2.79-1.1,2.05-2.45,3.97-3.88,5.73-1.79,2.2-3.05,4.61-4.22,7.13"/>
      <path class="cls-2" d="M122.29,303.1c-2.59,4.42-4.81,9.04-7.01,13.66-.43.91-1.21,1.68-1.32,2.75"/>
      <path class="cls-2" d="M236.1,304.36c2.05,3.91,3.74,7.91,4.37,12.36.21,1.5,1.48,2.75,2.7,3.8"/>
      <path class="cls-2" d="M178.56,252.87c-.97,4.85-1.92,9.7-4.22,14.17-.25.5-.87.83-.83,1.48"/>
      <path class="cls-2" d="M190.17,109.01c-1.47.4-1.28,1.73-1.49,2.78-.31,1.55-.57,3.1-1.27,4.55-.33.68-.72,1.03-1.53,1.02-.96-.01-.74-.78-1.07-1.24-.91-1.27-.63-2.78-1.2-4.08"/>
      <path class="cls-2" d="M36.74,120.87c-1.08.88-2.35.39-3.53.49-.77.07-1.57-.11-1.78,1.02-.25,1.31.68,1.68,1.54,1.99.52.19,1.17.08,1.75.02.85-.08,1.95-1.14,2.43.05.29.72-.94.77-1.64,1.04-1.21.46-.18,1.04.24,1.44.79.75,1.82.48,2.77.52,3.62.15,7.26-.4,10.85.49,2,.49,3.96,1.08,6.04,1.35,2.51.32,4.76.19,6.82-1.34"/>
      <path class="cls-2" d="M194.46,219.81c1.79,5.09,3.17,10.36,6.31,14.89"/>
      <path class="cls-2" d="M292.63,85.28c-4.4.61-7.66,3.28-10.85,6.06-1.3,1.13-2.3,2.59-3.79,3.53"/>
      <path class="cls-2" d="M180.33,115.57c-4.2-.35-8.42-.38-12.61-.18-1.66.08-3.09.05-4.56-.81-3.29-1.92-6.7-2.41-10.35-.83-1.38.6-2.97.39-4.53.09-2.79-.53-3.23-.03-3.29,2.73-.04,1.94.29,3.89-.24,5.81"/>
      <path class="cls-2" d="M190.68,218.8c-.4,1.98-.29,3.87.45,5.83.55,1.45.82,3.08-.41,4.55-.46.55-1.27,1.28-.54,2.24"/>
      <path class="cls-2" d="M143.23,269.03c.88.44,1.08,1.57.7,1.97-1.72,1.82-3.17,4.2-6.25,3.84-1.43-.17-2.73.28-4.04.76"/>
      <path class="cls-2" d="M138.18,260.95c-.85,2.06-2.21,3.7-3.63,5.43-1.36,1.65-1.64,4.31-1.67,6.69"/>
      <path class="cls-2" d="M168.47,192.8c1.59,4.62,3.3,9.17,7.57,12.12"/>
      <path class="cls-2" d="M257.05,344.74c.82,2.38,1.44,4.82,1.75,7.32.31,2.51,2.11,3.69,4.05,4.79"/>
      <path class="cls-2" d="M182.09,141.57c-4.32,0-8.6.21-12.9.83-1.31.19-3.75-.11-4.77-2.09"/>
      <path class="cls-2" d="M225.25,112.54c3.42.4,6.85.59,10.12,1.96,1.59.67,3.03,1.52,4.52,2.33"/>
      <path class="cls-2" d="M204.3,192.3c-1.06,4.12-2.94,7.85-5.3,11.36"/>
      <path class="cls-2" d="M185.38,219.56c-.05,2.36.23,4.76-.52,7.06-.27.83.32,1.41.58,2,.33.76,1.13,1.31.95,2.3"/>
      <path class="cls-2" d="M236.1,120.11c-4.4.88-8.17,2.86-11.1,6.31"/>
      <path class="cls-2" d="M144.75,114.56c-3.12-.51-5.67,1.16-8.3,2.34-.95.43-2.13.72-2.8,1.7"/>
      <path class="cls-2" d="M203.04,73.17c-1.43-1.4-1.41-1.29-3.54-.8-1.18.27-1.83-.66-2.27-1.72-1.57-3.73-4.24-4.1-7.05-1.01"/>
      <path class="cls-2" d="M193.96,64.33c.67-.41,1.39-.47,2.01.01.88.67,1.84,1.26,2.7,1.87,1.92,1.37,4.09,2.42,5.83,3.99,1.03.93.3,2.64.48,3.99.21,1.55.87,1.36,1.84.99.2-.08.35-.32.51-.49.85-.92,1.86-.47,2.77-.21.44.13.38.64.36,1.22-.06,1.41-1.61.84-1.86,1.76-1.12-1.26-2.55.22-3.8-.48-2.34-1.32-2.42-2.09-.24-4.32"/>
      <path class="cls-2" d="M107.14,120.11c.33,3.62.17,7.28,1.01,10.85"/>
      <path class="cls-2" d="M44.05,114.81c-3.3,1.44-6.76,2.07-10.35,2.02-1.21-.02-2.26.44-3.28,1.01"/>
      <path class="cls-2" d="M174.78,332.13c-1.19,1.18-.04,2.36.03,3.53.12,2.21.38,4.42.98,6.56"/>
      <path class="cls-2" d="M166.45,291.24c-.52,1.92-.53,3.63,1.5,4.81,1.94,1.13.5,3.27,1.27,4.78"/>
      <path class="cls-2" d="M198.25,283.66c-.02,1.01-1.05.91-1.55,1.2-3.06,1.78-3.96,3.44-1.23,7.63"/>
      <path class="cls-2" d="M174.02,184.22c-1.88,3.73-.83,6.85,2.02,9.59"/>
      <path class="cls-2" d="M309.28,123.65c-3.17.66-6.35,1.08-9.59.5"/>
      <path class="cls-2" d="M94.27,95.88c-2.09-.7-3.73-2.11-5.26-3.57-1.28-1.22-2.69-1.99-4.33-2.48"/>
      <path class="cls-2" d="M328.46,72.91c.89-1,2.21-1.32,3.31-1.97,1.01-.59,1.4-1.58,1.15-2.29-.44-1.22-1.47-.75-2.45-.31-1.66.74-3.23,1.62-4.82,2.49-.98.54-2.4,1.16-3.46.27-1.08-.9-2.08-2.12-1.5-3.72.16-.45.12-.86.21-1.28"/>
      <path class="cls-2" d="M233.58,105.22c-1.69,2.08-4.47,2.59-6.37,4.49-1.7,1.71-3.05,3.08-2.83,5.87.28,3.5-.44,7.06.11,10.59"/>
      <path class="cls-2" d="M149.29,127.68c2.04,3.61,5.22,6.2,8.08,9.09"/>
      <path class="cls-2" d="M215.66,207.44c-1.61,2.45-1.3,5.44-2.25,8.08-.11.31-.16.52-.52.5"/>
      <path class="cls-2" d="M180.58,225.87c.36.55.24,1.17.25,1.77.06,3.57.09,3.77,3.79,3.72,2.04-.03,3.96.76,6.08.49.77-.1,1.07-.81,1.75-.67"/>
      <path class="cls-2" d="M162.16,275.59c1.14,1.34.35,3.05.87,4.59.45,1.33.48,2.98.64,4.5"/>
      <path class="cls-2" d="M240.64,129.2c-4.39.74-8.54,2.38-13.1,2.76-2.98.24-6.45,1.77-7.63,5.56-.35,1.14-.9,2.31-1.98,3.04"/>
      <path class="cls-2" d="M139.19,276.09c-.9,1.55-2.27,2.34-4.04,2.53-1.62.17-3.05.95-4.54,1.51"/>
      <path class="cls-2" d="M184.87,288.71c2.47,1.23,1.81,3.83,2.46,5.83.22.66.37,1.48.31,2.25"/>
      <path class="cls-2" d="M182.35,91.59c-3.27,1.98-3.86,4.77-2.27,7.57.15.26.65.38.49.75-1.02,2.35.89,2.91,2.28,3.79"/>
      <path class="cls-2" d="M326.95,124.4c1.37-.7,2.56-1.4,4.34-.61,1.27.56,2.98.17,4.49.09,1.05-.06,1.89.35,1.95,1.29.06.91-.99.84-1.7,1.02-2.22.56-2.62.3-2.53-1.78"/>
      <path class="cls-2" d="M145.25,123.65c-.58,2.93-.09,5.89-.25,8.83"/>
      <path class="cls-2" d="M139.7,105.72c2.15,2.24,4.97,3.74,6.84,6.29.31.42.56.76.48,1.28"/>
      <path class="cls-2" d="M318.12,74.18c1.42,2.71.74,5.74,1.26,8.58"/>
      <path class="cls-2" d="M162.66,287.7c-.64,1.89.19,3.56.7,5.32.29,1.01.05,2.17.05,3.27"/>
      <path class="cls-2" d="M159.63,141.31c-.29,3.25.74,6.08,2.78,8.58"/>
      <path class="cls-2" d="M45.32,123.9c.29-.8.26-1.45-.17-2.31-.42-.86-.07-2.26.95-2.65.82-.32,1.87-.24,2.8.61.78.71.52,1.67,1.18,2.36,2.02,2.13,4.4,3.29,7.35,3.26"/>
      <path class="cls-2" d="M198.25,79.98q-3.12-1.64-2.02-4.54c.54-1.42-.31-5.12-1.53-5.77-1.89-1.02-2.89.33-3.77,1.73"/>
      <path class="cls-2" d="M320.39,113.55c1.56,1.05,3.37-.18,5.1.64.89.42,2.12.69,3.22.88"/>
      <path class="cls-2" d="M329.98,115.06c4.28-.12,8.51.16,12.62,1.51"/>
      <path class="cls-2" d="M323.67,120.11c-1.49,1.7-3.85,1.9-5.6,3.22-.64.49-1.77-.41-2.73-.19"/>
      <path class="cls-2" d="M212.88,365.95c1.79,1.16,3.78,1.88,5.8,2.54,1.03.34,1.84.42,2.28-.78"/>
      <path class="cls-2" d="M150.3,249.84c-1.8,2.58-3.18,5.57-6.56,6.56"/>
      <path class="cls-2" d="M318.12,76.19c-.74,2.01-2,3.61-3.78,4.8-1.27.85-2.76-.19-4.04.5"/>
      <path class="cls-2" d="M227.27,275.08c1.81,2.57,2.15,6.01,4.79,8.08"/>
      <path class="cls-2" d="M49.35,68.12c-.64,1.14-.37,2.45-.16,3.52.38,1.93-1.21,1.47-1.55,1.21-1.26-.93-2.89-.93-4.15-1.86-.23-.17-1.39-1.33-1.91-.07-.25.6-.22,1.39.44,2.02.99.94,2.05,1.77,3.31,2.22,1.38.5,2.51,1.38,3.78,2.05"/>
      <path class="cls-2" d="M195.97,74.18c-.42-.17-1.34.84-1.25-.5.08-1.15-.63-2.09-1.51-1.95-3.31.54-6.56-1.29-9.86-.09-.95.34-1.73-.02-2.55-.71-1.75-1.48-3.14-1.41-4.77-.03-.78.66-1.19,1.24-1,1.51.71,1,1.53,1.64,2.77.76.25-.18.35-.57.76-.51"/>
      <path class="cls-2" d="M172.76,73.92c-1.3-.77-2.78-.83-4.01-.19-1.43.74-2.85.74-4.32.68-1.39-.05-2.12.43-2.87,1.73-.77,1.32.13,1.6.56,2.35.21.36.82.67.54,1.23-.25.5-.73.52-1.25.52-3.41.04-3.98,1.18-2.27,4.53"/>
      <path class="cls-2" d="M200.52,83.26c-.11.87-.25,1.72-1.26,2.01-.16.05-.33,0-.5,0,.09,3.24-3.44,5.12-3.23,8.33.11,1.62-.8,3.2-.06,4.8"/>
      <path class="cls-2" d="M190.68,64.08c-2.69,0-5.38-.01-8.08,0-2.1.01-4.19-.2-6.31-.12-2.1.08-2.82,1.34-3.79,2.63-.34.46-.36.83,0,1.27.29.36,1.02.77.47,1.2-.36.29-1.16.17-1.72.04-3.17-.77-4.58.63-3.8,3.81.08.34.43.61.27,1.01"/>
      <path class="cls-2" d="M221.21,129.7c-.2,2.79-2.29,4.89-2.78,7.57"/>
      <path class="cls-2" d="M207.84,372.76c-2.4-.45-4.85-1.67-7.07.5"/>
      <path class="cls-2" d="M161.4,116.58c.59.72,1.61.54,2.25,1.03,1.37,1.06,2.18,2.49,1.76,4.26-.44,1.88-1.62,3.26-3.52,3.75-.63.16-1.3.49-2.01.3"/>
      <path class="cls-2" d="M198.5,186.49c.75,2.91-.35,5.24-2.27,7.32"/>
      <path class="cls-2" d="M218.18,136.01c-.43-.45-.54-.29-.78.24-1.01,2.23-2.27,4.31-4.01,6.07"/>
      <path class="cls-2" d="M202.79,97.14c2.21,1.51,2.29,1.98.5,3.78-.67.67-1.81.98-1.51,2.28"/>
      <path class="cls-2" d="M155.34,248.83c-1.73,2.37-3.93,4.07-6.81,4.8"/>
      <path class="cls-2" d="M244.18,322.03c1.84,2.37,3.99,4.48,5.55,7.07"/>
      <path class="cls-2" d="M51.63,114.81c-.48-.13-.53.63-1.01.51-2-.5-4.04-.07-6.06-.25"/>
      <path class="cls-2" d="M163.93,102.19c-1.44,1.6.02,3.18.42,4.49.38,1.25,2.36.34,3.62.56"/>
      <path class="cls-2" d="M185.38,69.13c-1.1-2.59-3.29-3.7-6.31-2.02"/>
      <path class="cls-2" d="M187.65,152.92c1.8-3.07,5.58-3.67,8.56-1.23,1.14.93,2.27,1.95,3.05,3.25"/>
      <path class="cls-2" d="M132.38,268.27c-2.11,2.28-3.5,4.79-3.09,8.08.1.81-.47,1.73-.95,2.52"/>
      <path class="cls-2" d="M175.28,91.34c.74.24,1.3.78,1.23,1.51-.19,1.89.33,3.6,1.03,5.31.18.44-.14.84-.24,1.26"/>
      <path class="cls-2" d="M206.07,94.37c-.7-.29-1.17-.9-2.01-1.05-2.1-.38-2.82.15-3.04,2.56"/>
      <path class="cls-2" d="M194.97,99.92c-1.71-.17-2.76,1.15-3.72,2.09-1.47,1.45-2.91,1.31-4.62.97-1.37-.27-2.68-.1-3.28,1.49"/>
      <path class="cls-2" d="M189.16,77.2c-2.16.54-4.36.56-6.56.5"/>
      <path class="cls-2" d="M189.67,373.77c-1.66,1.37-3.45,2.06-5.55,1.01-.68-.34-1.38-.4-2.01.01-1.51.97-2.79.41-4.04-.51"/>
      <path class="cls-2" d="M93.77,343.23c-1.48-.58-2.85-.37-3.21,1.28-.28,1.26-1.9,1.42-1.84,2.76"/>
      <path class="cls-2" d="M193.45,102.95c.61,2.66-.96,4.57-2.27,6.56"/>
      <path class="cls-2" d="M207.08,120.62c.34.34.73.64.98,1.03.13.19.86.19.3.76-.35.36-.63.41-1.03.23-1.93-.87-4-1.17-6.06-1.51"/>
      <path class="cls-2" d="M183.1,120.11c1.8,1.62,3.25,3.39,2.52,6.06"/>
      <path class="cls-2" d="M188.91,99.16c-2.13-1.8-3.87-1.8-6.06,0"/>
      <path class="cls-2" d="M70.3,128.95c-.01-.72.2-1.5-1.01-1.54-1.44-.05-2.82-.66-4.29-.48"/>
      <path class="cls-2" d="M229.29,251.11c.38,2.21,1.01,4.32,2.52,6.06"/>
      <path class="cls-2" d="M60.96,83.51c-.6-.71-1.62-.22-2.27-.76-.44-.37-.99-.46-1.24.02-.49.95.4.92.95,1.29,1.83,1.24,3.38-.49,5.08-.29"/>
      <path class="cls-2" d="M174.27,76.19c.63-.65,1.22-1.27,2.27-1.29.84-.02,1.37.65,1.21,1.02-1.52,3.47,1.62,2.76,3.08,3.56.57.32,1.17.22,1.77.25"/>
      <path class="cls-2" d="M194.71,294.27c-.67.7.08,1.36.31,1.73,1.05,1.65,1.59,3.41,1.71,5.34"/>
      <path class="cls-2" d="M183.1,210.47c.14,1.42,1.07,2.36,2.02,3.28.83.81.95,1.74.5,2.78"/>
      <path class="cls-2" d="M194.71,107.49c-1.16,1.88.12,4.17-1.01,6.06"/>
      <path class="cls-2" d="M173.26,106.48c1.16,1.91.21,3.32-.98,4.82-.97,1.22-2.93,1.58-3.06,3.51"/>
      <path class="cls-2" d="M70.3,121.12c0,2.02,0,4.04,0,6.06"/>
      <path class="cls-2" d="M215.15,143.84c.2,2.38-1.05,4.21-2.27,6.06"/>
      <path class="cls-2" d="M159.63,152.17c.34,2.01.98,3.93,1.77,5.81"/>
      <path class="cls-2" d="M210.61,140.81c-1.28-.55-2.38.37-3.51.62-1.29.28-2.53.36-3.81.39"/>
      <path class="cls-2" d="M230.55,277.61c1.51.35,3.24.15,4.07,2.01.31.69.98.08,1.48.01"/>
      <path class="cls-2" d="M206.32,162.01c-.71,2.32-2.09,3.97-4.54,4.54"/>
      <path class="cls-2" d="M174.78,170.34c.16,1.94-1.08,3.99.5,5.81"/>
      <path class="cls-2" d="M200.52,107.74c1.51,2.07,4.2,2.25,6.09,3.75.32.26.62.57.98.79"/>
      <path class="cls-2" d="M307.52,80.74c1.53,1.66,2.44,3.65,3.03,5.81"/>
      <path class="cls-2" d="M203.55,83.26c-.42.66-.47,1.18.23,1.8.62.55.9.48,1.57.02.83-.57,1.85-1.63,2.9.11.15.24,2.34-.02,3.64.29,3.06.72,3.52,1.48,2,4.09-.15.26-.57.35-.5.76"/>
      <path class="cls-2" d="M246.19,115.06c-1.99-.02-3.86.43-5.55,1.51"/>
      <path class="cls-2" d="M162.92,138.79c.25,1.29.25,2.54,1.46,3.59,1.46,1.25-.01,2.05-.97,2.7-.89.61-1.02-.15-.98-.74.08-1.12-.16-2.2-.22-3.29-.13-2.29-2.24-2.86-3.33-4.29"/>
      <path class="cls-2" d="M166.2,111.53c-.31,1.11-1.11,1.97-1.51,3.03"/>
      <path class="cls-2" d="M211.12,92.1c.63.74,2.03,1.13,1.25,2.52-.64,1.15-1.41,2.07-3.02,1.8-1.94-.32-2.71.56-2.01,2.49"/>
      <path class="cls-2" d="M194.71,210.47c1.18,1.45,1.66,2.93.26,4.55-.58.67-.99,1.46-1.02,2.39"/>
      <path class="cls-2" d="M35.47,118.6c1.16,2.28,3.22,3.11,5.05,2.02"/>
      <path class="cls-2" d="M200.52,76.95c-.73-.25-.3-1.67-1.24-1.44-.49.12-1.18.71-1.27,1.44-.12.93.51,1.66,1.25,1.71,2.11.14,2.33,1.5,2.24,3.08-.03.54-.26,1.27-.98,1.23-.63-.03-1.05-.51-1.01-1.23.05-.87.08-1.72-1.01-2.02"/>
      <path class="cls-2" d="M215.91,135.76c-.6,1.93-1.74,3.53-3.03,5.05"/>
      <path class="cls-2" d="M47.34,78.47c-.74-1.25-2.29-1.03-3.26-1.79-.64-.5-.83.03-1,.3-.15.24-.18.8,0,.96.72.71,1.29,1.58,2.24,2.05,3.57,1.77,7.23,3.4,10.58,5.58.69.45,1.38.19,2.07.38,1.06.3,1.39.61.98,1.61"/>
      <path class="cls-2" d="M192.69,81.49c.17-.25.4-.22.5-.27,1.26-.67,2.73.04,2.91.81.45,1.81-1.59.43-2.17,1.21-.1.13-.55-.03-.73.27"/>
      <path class="cls-2" d="M189.92,85.03c-.46,1.4.44,1.77,1.51,2.02"/>
      <path class="cls-2" d="M195.97,103.96c.47,2.16,1.83,2.65,3.79,2.02"/>
      <path class="cls-2" d="M160.14,96.64c-1.47,2.3-1.01,3.78,1.52,3.95,1.5.1,2.12,2.13,3.78,1.35"/>
      <path class="cls-2" d="M199.76,169.58c.07.84,1.03.99,1.3,1.75.45,1.26.08,2.13-1.06,2.51-1.51.5-1.55-.76-1.76-1.73"/>
      <path class="cls-2" d="M208.84,85.79c0,1.07.03,2.11-.74,3.04-1.69,2.03-1.31,4.84-2.54,7.06"/>
      <path class="cls-2" d="M66.51,85.28c1.23,1.35,3.51.82,4.54,2.52"/>
      <path class="cls-2" d="M281.52,347.77c.01.28.02.54-.25.76-.79.66-9.18,4.36-10.35,4.54"/>
      <path class="cls-2" d="M165.94,111.03c-2.32-.43-3.65,1.12-5.05,2.52"/>
      <path class="cls-2" d="M307.27,83.77c-1.93.05-3.08,2.06-5.05,2.02"/>
      <path class="cls-2" d="M210.11,76.95c-.42,1.49-.53,1.71-.99,1.48-1.58-.81-2.55.33-2.69,1.32-.19,1.36-2.25,2.98.14,4.28"/>
      <path class="cls-2" d="M188.4,135.51c.43,1.66.56,3.42,1.76,4.8.44.5.42.52,1.27-.51"/>
      <path class="cls-2" d="M126.07,271.55c-.05,2.74-1.45,5.07-2.31,7.56-.12.35-.16.68-.21,1.02"/>
      <path class="cls-2" d="M137.93,117.08c1.26,1.77,3.42,2.63,4.54,4.54"/>
      <path class="cls-2" d="M30.43,118.85c1.46,1.73,3.29.97,5.05.76"/>
      <path class="cls-2" d="M42.04,64.84c2.58.66,5.04,1.61,7.33,3.01.74.45,1.68.51,2.51.78"/>
      <path class="cls-2" d="M310.8,118.09c.34,3.19-.2,6.42.5,9.59"/>
      <path class="cls-2" d="M176.54,64.33c-.17.34.77.77,0,.99-1.58.46-2.64,1.51-3.53,2.8"/>
      <path class="cls-2" d="M327.96,63.57c.64,1.41-.11,2.07-1.23,2.82-1.2.8-1.85.31-2.55-.55"/>
      <path class="cls-2" d="M62.22,124.65c-.17-1.24.58-1.3,1.51-1.27,1.43.04,2.86.01,4.29.01"/>
      <path class="cls-2" d="M205.31,155.45c-.73,1.85-1.78,3.31-4.04,3.28"/>
      <path class="cls-2" d="M340.32,119.35c.31,1.88-.53,2.44-3.03,2.56-2.39.12-4.84.1-7.07,1.22"/>
      <path class="cls-2" d="M54.65,76.95c-.52,1.26-.75,2.47-.03,3.8.63,1.16.18,2.51.28,3.77"/>
      <path class="cls-2" d="M174.78,104.46c1.18,1.13,1.37,2.29.54,3.8-1.08,1.96.42,3.84.47,5.79"/>
      <path class="cls-2" d="M342.85,118.09c-1.18.67-2.29,1.09-3.8.84-1.96-.33-4.02-.09-6.04-.07-.35,0-.76-.17-1.01.25-.63-1.61-1.81-2.36-3.53-2.27.04-.68-.17-1.37.74-1.8.95-.45.66-1.15.01-1.74"/>
      <path class="cls-2" d="M319.63,118.34c1.89,1.17,3.87-.15,5.81.23.92.18,1.94-.18,2.77.53"/>
      <path class="cls-2" d="M170.99,369.23c1.33,1.29,1.3,2.89,1.01,4.54"/>
      <path class="cls-2" d="M62.48,118.34c-.02,1.62.13,3.22.5,4.8"/>
      <path class="cls-2" d="M168.22,366.96c-1.25,2.24-.49,4.4.25,6.56"/>
      <path class="cls-2" d="M178.56,112.79c1.21,1.05,1.88,2.51,2.75,3.8,1.38,2.05-.35,2.47-1.74,3.01"/>
      <path class="cls-2" d="M175.53,213.5c.59,1.7,1.23,3.35,3.28,3.79"/>
      <path class="cls-2" d="M171.75,361.66c-1.39,1.3-1.79,2.97-1.77,4.8"/>
      <path class="cls-2" d="M225.5,369.23c-1.52-.15-3.11.39-4.54-.5"/>
      <path class="cls-2" d="M51.88,66.86c.37,4.41,2.86,6.99,7.07,7.02,1.57.01,2.61.83,3.79,1.56"/>
      <path class="cls-2" d="M164.93,79.98c-.21-.55.08-1.21.3-1.47.75-.87,1.26-1.66-.06-2.28-1.03-.49-2.19-.71-2.52.97-.05.28-.56.35-.49.76"/>
      <path class="cls-2" d="M105.13,335.15c-.08,1.57-1.19,2.91-1.01,4.54"/>
      <path class="cls-2" d="M194.46,100.68c-.88,1.76-2.41,2.82-4.04,3.79"/>
      <path class="cls-2" d="M175.79,98.66c.96.89,2.29,1.35,2.83,2.76.18.47.38.6-.03,1.05-.52.58-.95.39-1.27-.03-.9-1.2-1.75-2.43-3.55-2.01"/>
      <path class="cls-2" d="M203.8,82.76c-.06-.94.9-1.74.69-2.51-.41-1.5-1.14-2.98-3.22-2.54"/>
      <path class="cls-2" d="M45.82,79.73c1.56-1.93,3.69-.78,5.56-.97.44-.05,1.22.4.96.95-.51,1.07.29,2.38-.71,3.3"/>
      <path class="cls-2" d="M182.85,222.58c.49,1.88-.32,3.69-.25,5.55"/>
      <path class="cls-2" d="M264.11,121.63c-.49,2-.78,4.01-.25,6.06"/>
      <path class="cls-2" d="M197.99,292.25c-.08,1.61.96,2.96,1.01,4.54"/>
      <path class="cls-2" d="M163.17,103.2c-.93.09-1.73-.03-1.5-1.26.14-.76.52-1.46.52-2.27,0-.41-.95-3-1.28-3.29-1.43-1.27-2.05-2.94-2.14-4.87-1.08.67-1.75,1.77-1.52,2.58.17.62.95,2.09,2.39,1.3"/>
      <path class="cls-2" d="M307.77,85.79c-1.55.39-2.96,1.22-4.54,1.51"/>
      <path class="cls-2" d="M159.89,296.28c-.35,1.5-.24,3.03-.25,4.54"/>
      <path class="cls-2" d="M210.86,85.79c.15.84-.48,1.96.53,2.48.69.35,1.25-.24,1.49-.96"/>
      <path class="cls-2" d="M176.54,208.96c1.08,1.28,1.75,2.96,3.53,3.53"/>
      <path class="cls-2" d="M230.04,292.25c1.17,1.38,2.69,2.36,4.04,3.53"/>
      <path class="cls-2" d="M174.27,169.83c-.81.25-1.2.99-1.76,1.53-1,.97-.64,1.72.49,2.26"/>
      <path class="cls-2" d="M114.72,98.66c-1.37.59-2.97-.1-4.29.76"/>
      <path class="cls-2" d="M189.92,103.45c.48.34.75,1.09.24,1.19-1.17.22-1.44,1.75-2.76,1.6-.9-.1-1.88.14-2.52-.78"/>
      <path class="cls-2" d="M169.22,369.48c-.21,1.6,1.65,2.72,1.01,4.42"/>
      <path class="cls-2" d="M320.64,69.63c-2.24.26-4.5.42-6.31,2.02"/>
      <path class="cls-2" d="M221.97,281.39c1.78.8,2.87,2.34,4.04,3.79"/>
      <path class="cls-2" d="M195.97,141.06c.03,1.66.66,2.31,2.5,2.64,2.66.48,5.23.63,7.84.12,3.78-.74,5.68-3.65,7.02-6.82,1.48-3.51,4.44-5.54,7.23-7.66.54-.41,1.33-.87,1.89-1.42.67-.67.9-1.94,2.29-1.5"/>
      <path class="cls-2" d="M154.34,135.76c.36,1.43.22,2.97,1.01,4.29"/>
      <path class="cls-2" d="M158.12,141.82c.89,1.23-.56,2.89.76,4.04"/>
      <path class="cls-2" d="M232.57,368.72c1.27,1.43.8,2.86,0,4.29"/>
      <path class="cls-2" d="M198.25,143.33c.87-1.01,2.02-1.71,3.26-1.2,1.34.54,1.49-.45,1.74-1.09.25-.63-.39-1.29-.95-1.19-.97.18-1.43.92-1.02,1.97"/>
      <path class="cls-2" d="M176.04,68.12c-1.07.38-2.39.66-2.96,1.56-1.01,1.58-2.24,1.27-3.6.97"/>
      <path class="cls-2" d="M188.91,104.97c-.89-.43-1.88-.37-2.77-.22-2.83.49-5.46.17-7.83-1.55"/>
      <path class="cls-2" d="M171.24,76.19c1.69-.68,2.83-.29,3.58,1.5.38.91,0,1.33-.55,1.78-.65.53-.82.05-1.32-.43-.87-.85-2.5,0-3.47-1.07"/>
      <path class="cls-2" d="M325.18,119.35c.17,1.31.92,2.69-.5,3.79"/>
      <path class="cls-2" d="M161.4,188.26c1.5.37,2.24,2.25,4.04,2.02"/>
      <path class="cls-2" d="M330.99,118.6c-3.21.42-3.87,1.56-2.78,4.8"/>
      <path class="cls-2" d="M38.75,120.36c2.07-.4,4.02.54,6.06.5"/>
      <path class="cls-2" d="M163.93,96.64c1.18-.18,2.26.18,3,1.04.59.68,1.27.98,2.05,1.23"/>
      <path class="cls-2" d="M112.19,120.36c-.9,1.37-2.43,1.67-3.79,2.27"/>
      <path class="cls-2" d="M210.11,94.87c-.48-2.36-2.08-1-2.98-.64-.47.19.84.55.96,1.14"/>
      <path class="cls-2" d="M190.17,83.01c-2.39-1.25-2.37-1.25-2.78,1.26-.17,1.03-.38,2.05-.75,3.03"/>
      <path class="cls-2" d="M46.83,126.93c.09-1.94-.63-2.93-2.78-2.82-2.2.11-4.34.78-6.56.54"/>
      <path class="cls-2" d="M250.23,330.61c.08,1.41,1.46,2.5,1.01,4.04"/>
      <path class="cls-2" d="M324.68,66.86c-1.13.81-2.31,1.48-3.79,1.01"/>
      <path class="cls-2" d="M45.06,69.38c1.06,1.06,2.3,1.77,3.79,2.02"/>
      <path class="cls-2" d="M211.12,83.26c-1.23-.69-2.48-1.61-3.53.25"/>
      <path class="cls-2" d="M183.86,82.76c.69,1.25.75,2.02-.98,2.62-1.22.42-1.79,2.15-3.31,2.43"/>
      <path class="cls-2" d="M201.27,89.32c.17-.08.34.22.5.22,1.01-.04,1.65-1.38,2.77-.95,1.19.46.94,1.99,1.78,2.75"/>
      <path class="cls-2" d="M196.73,358.37c-.03,1.41-.07,2.82,1.51,3.53"/>
      <path class="cls-2" d="M287.08,344.24c.1-.54-.32-.95-.29-1.52.05-.89.47-1.9-.71-2.54-1.35-.74-2.01.3-2.49,1.06-.72,1.14-1.94-.23-2.57.73"/>
      <path class="cls-2" d="M207.58,88.81c-.48-.84-1.28-2.54-1.65-2.16-1.35,1.38-4.02-.77-4.75,2.14-.39,1.57-1.18,3.26-2.68,4.31"/>
      <path class="cls-2" d="M189.67,96.39c-2.69-1.62-5.38-1.34-8.08,0"/>
      <path class="cls-2" d="M236.86,284.93c-1.06-1.05-2.1-2.14-3.79-2.02"/>
      <path class="cls-2" d="M311.81,117.08c.8,3.49.76,7.05.76,10.6"/>
      <path class="cls-2" d="M190.42,208.45c-.03,1.26.66,2.52,0,3.79"/>
      <path class="cls-2" d="M309.79,121.88c-1.24.33-2.56.07-3.79.5"/>
      <path class="cls-2" d="M318.12,122.38c-1.21-.79-2.52-.21-3.79-.25"/>
      <path class="cls-2" d="M200.77,147.88c1.36.81,2.31,1.91,2.52,3.53"/>
      <path class="cls-2" d="M152.32,129.2c-.11,1.5,1.13,2.11,2.05,2.72.93.61,1.71,1.32,2.49,2.07"/>
      <path class="cls-2" d="M170.23,141.82c-.98-1.67-1.52-1.73-2.52-.25"/>
      <path class="cls-2" d="M187.39,173.87c-1.61,1.19-.38,2.88-.76,4.29"/>
      <path class="cls-2" d="M198.75,120.62c2.37-.4,4.73-1.21,7.09.21.54.32,1.28-.23.95-.95-.48-1.06-.63-1.91.25-2.83.17-.18-.58-.36-.72-.72"/>
      <path class="cls-2" d="M167.96,190.28c-1.32-.17-2.11-1.59-3.53-1.51"/>
      <path class="cls-2" d="M167.96,118.6c1.13.77,1.81,1.91,2.52,3.03"/>
      <path class="cls-2" d="M280.51,343.74c.85-2.03-.63-2-1.75-1.7-1.01.27-2.06.53-3.05.95"/>
      <path class="cls-2" d="M169.73,86.29c-.79-.15-1.85-.19-2.2-.8-.52-.88-1.87-1.85-1.01-2.94.8-1.02,1.86-.13,2.71.45"/>
      <path class="cls-2" d="M170.74,94.62c-.25,0-.51,0-.76,0-1.49-.07-2.66-.01-1.06,1.81.19.21.4.93.31,1.47"/>
      <path class="cls-2" d="M183.86,89.82c-.08-.59-.52-.96-.99-.72-.52.27-1.04.93-.96,1.46.07.5.47,1.35,1.19,1.24,2.68-.41,3.07,1.34,3.29,3.31"/>
      <path class="cls-2" d="M162.92,88.56c-.4,1.21-.49,2.4.25,3.53"/>
      <path class="cls-2" d="M170.49,88.06c2.28-.54,2.98,1.77,4.52,2.56.1.05.15.68-.23.98-.88.71-1.48,1.73-2.53,2.26"/>
      <path class="cls-2" d="M198.25,363.42c-.39,1.15-.79,2.29-.76,3.53"/>
      <path class="cls-2" d="M306.26,82.25c-1.19.49-2.39.92-3.53,1.51"/>
      <path class="cls-2" d="M321.65,76.19c-.98-2.55-1.75-2.95-4.04-2.29-.97.28-1.99.93-1.68,1.75.76,2.04-1.02,2.34-1.85,3.31"/>
      <path class="cls-2" d="M199,100.93c.58.88,1.19,1.69,2.27,2.03,1.33.42,2.16,1.25,1.76,2.76-.47,1.79-1.86.44-2.77.76"/>
      <path class="cls-2" d="M181.34,103.2c-.7,1.69-.88,3.33.5,4.8"/>
      <path class="cls-2" d="M215.66,106.99c1.04.51,2.24,0,3.28.5"/>
      <path class="cls-2" d="M168.09,100.68c-.12.33-.41.52-.63.76-.91.96-1.82,1.98-1.78-.5,0-.45-.24-.86-.74-1.01"/>
      <path class="cls-2" d="M189.92,91.09c1.02.91,1.69,2.07,2.27,3.28"/>
      <path class="cls-2" d="M161.15,142.83c-.83,1.25.59,2.15.5,3.28"/>
      <path class="cls-2" d="M186.13,152.92c-.85-.82-1.86-1.33-3.03-1.51"/>
      <path class="cls-2" d="M180.58,71.4c-1.69.2-3.71-.63-4.79,1.51"/>
      <path class="cls-2" d="M208.34,187.75c-1.13.49-2.46.68-3.03,2.02"/>
      <path class="cls-2" d="M183.86,83.77c-.67.33-1.64-.79-1.97.02-1.17,2.96-3.38.96-5.1,1.24"/>
      <path class="cls-2" d="M142.22,256.41c-1.18.82-2.24,1.78-3.28,2.78"/>
      <path class="cls-2" d="M98.82,335.15c-1.24.43-1.64,2.23-3.28,2.02"/>
      <path class="cls-2" d="M263.86,338.18c.75,1.1,1.43,2.25,2.27,3.28"/>
      <path class="cls-2" d="M284.05,338.18c-.74.84-1.02,2.66-2.78,1.26"/>
      <path class="cls-2" d="M322.15,78.21c-.48,1.09-.32,2.19,0,3.28"/>
      <path class="cls-2" d="M198.75,112.54c-2.06-1.33-2.28-3.96-3.99-5.61-.76-.73.35-1.66.71-2.47"/>
      <path class="cls-2" d="M198.75,68.62c.58.86-.21,2.33,1.26,2.78"/>
      <path class="cls-2" d="M189.16,69.63c-1.41-.73-1.83-.07-1.77,1.26"/>
      <path class="cls-2" d="M189.16,118.09c.29,1.15.87,2.06,2.02,2.52"/>
      <path class="cls-2" d="M56.42,78.72h4.04"/>
      <path class="cls-2" d="M89.73,342.22c-2.07.11-1.91,2.46-3.28,3.28"/>
      <path class="cls-2" d="M263.35,341.72c.58.97,1.23,1.91,1.51,3.03"/>
      <path class="cls-2" d="M168.97,89.57c-2.07-.17-3.97-1.08-6.02-1.45-1.82-.32-2.49.13-2.47,1.45.02,1.37-1.25,1.23-1.6,2.02"/>
      <path class="cls-2" d="M204.05,72.16c-.86-.77-1.53-2-3.03-1.26"/>
      <path class="cls-2" d="M159.38,140.05c.73,1.12,1.66,2.04,2.78,2.78"/>
      <path class="cls-2" d="M199.76,72.41c1.22.82.77,1.8.25,2.78"/>
      <path class="cls-2" d="M156.61,138.79c.5,2.13.24,4.22-.25,6.31"/>
      <path class="cls-2" d="M185.12,81.75c-.99,1.12-2.41.63-3.54.66-2.74.09-2.75-.1-2.77,2.74"/>
      <path class="cls-2" d="M160.9,150.9c.32,1.24,1.42,1.97,2.02,3.03"/>
      <path class="cls-2" d="M167.96,157.47q2.42,2.72,4.79,1.26"/>
      <path class="cls-2" d="M168.97,165.04c.91.64,1.84,1.21,3.03,1.01"/>
      <path class="cls-2" d="M188.66,216.02c.89,2.49,1.21,2.63,3.54,2.03,1.85-.48,3.74-.82,5.29-2.05.27-.21.91-.48.26-1"/>
      <path class="cls-2" d="M175.53,209.46c.5,1.01,1.01,2.02,1.51,3.03"/>
      <path class="cls-2" d="M193.7,65.09c.2-1.43-1.06-1.31-1.78-1.47-1.17-.26-.93.75-1.03,1.46-.03.2-.31.58-.72.51"/>
      <path class="cls-2" d="M185.38,210.72c.89.91,1.79,1.8,2.28,3.03.72,1.79-.94,2.84-1.27,4.29-1.46-.61-3.12,1.25-4.58-.48-.88-1.04-1.75-2.11-2.74-3.06"/>
      <path class="cls-2" d="M187.9,180.94c-.57-1.01-1.14-2.18-2.25-.49-.37.56-.95,1.02-1.03,1.76"/>
      <path class="cls-2" d="M186.64,169.58c.63,1.05,1.47,1.89,2.52,2.52"/>
      <path class="cls-2" d="M165.94,87.05c-.81-.78-1.83-.43-2.78-.5"/>
      <path class="cls-2" d="M309.79,125.66c-.95-.37-1.84-.45-2.52.5"/>
      <path class="cls-2" d="M266.38,337.68c.63.95,1.06,2.06,2.02,2.78"/>
      <path class="cls-2" d="M95.79,345c-1.07-.14-1.95.17-2.25,1.27-.31,1.14-1.3,1.57-2.04,2.27"/>
      <path class="cls-2" d="M208.59,122.64c.68.98,2,.94,2.78,1.77"/>
      <path class="cls-2" d="M324.43,118.85c-1.26,1.77.34,3.53,0,5.3"/>
      <path class="cls-2" d="M274.71,350.8c-1.6-1.36-3.2.47-4.79,0"/>
      <path class="cls-2" d="M56.17,67.87c.03-.88-.64-1.54-1.25-1.45-1.85.26-3.79-.66-5.56.44"/>
      <path class="cls-2" d="M175.03,283.16c1.24.39,1.16,1.83,2.02,2.52"/>
      <path class="cls-2" d="M203.55,102.95c.6-.45.95-1.54,2.02-.76.94.68.09,1.38.12,2.02.08,1.72-.83,2.63-1.92,3.51-.35.28-.94,0-1.24-.47"/>
      <path class="cls-2" d="M113.45,101.43c-.8-.38-1.55-.93-2.52-.76"/>
      <path class="cls-2" d="M196.23,109.76c-.8.68-.78,1.6-.76,2.52"/>
      <path class="cls-2" d="M262.85,97.4c-.78.49-1.74.52-2.52,1.01"/>
      <path class="cls-2" d="M204.3,93.61c-.47,2.27,1.59,2.56,2.78,3.53"/>
      <path class="cls-2" d="M202.03,90.08c.56,1.85,2.32,3.7,0,5.55"/>
      <path class="cls-2" d="M189.67,88.81c.3,2.31-1.13,3.95-3.53,4.04"/>
      <path class="cls-2" d="M169.48,90.83c-2.29.74-.74,2.51-1.01,3.79"/>
      <path class="cls-2" d="M47.59,121.88c.21-1.6-.81-1.79-2.02-1.77"/>
      <path class="cls-2" d="M324.17,124.65c-.79.67-1.26,1.53-1.51,2.52"/>
      <path class="cls-2" d="M190.93,141.06c1.58.87,3.28,1.41,5.05,1.77"/>
      <path class="cls-2" d="M176.16,82c-.15,1.18-1.86,2.43.13,3.53"/>
      <path class="cls-2" d="M178.31,256.41c.82.65.57,1.72,1.01,2.52"/>
      <path class="cls-2" d="M208.34,80.74c1.05-.42,2.09-1.66,3.24-.71,1.2.98.11,2.14-.15,3.25-.14.62-.36,1.18-.57,1.75"/>
      <path class="cls-2" d="M264.11,346.26c-.2.87.27,1.67.25,2.52"/>
      <path class="cls-2" d="M101.09,348.03c-3.13-.65-5.04.42-5.55,3.28"/>
      <path class="cls-2" d="M201.78,357.36c.48.78.72,1.67,1.01,2.52"/>
      <path class="cls-2" d="M182.09,369.73c-1.9.76-.02,1.59.11,2.25.14.72.65,1.5.9,2.29"/>
      <path class="cls-2" d="M47.34,74.18c.49.9,1.64.61,2.27,1.26"/>
      <path class="cls-2" d="M170.49,69.38c-1.38.45-1.64,2.69-3.82,2.15-.65-.16-1.47,1.32-.47,2.39"/>
      <path class="cls-2" d="M101.84,337.68c-.67.18-1.35-1.26-2.02,0"/>
      <path class="cls-2" d="M184.37,64.58c.12,1.34.89,1.18,1.77.76"/>
      <path class="cls-2" d="M198.5,100.17c.72,1.2,2.31-.19,3.03,1.01"/>
      <path class="cls-2" d="M183.86,370.74c1.55-.48,2.95-.36,4.04,1.01"/>
      <path class="cls-2" d="M177.05,368.97c2.09.94,1.12,2.78,1.26,4.29"/>
      <path class="cls-2" d="M189.41,372c-1.09.08-2.18-.15-3.3.19-.5.15-1.63-.25-.48-1.2"/>
      <path class="cls-2" d="M177.3,110.52c.73,1.13,1.79,2.24.25,3.53"/>
      <path class="cls-2" d="M181.84,212.24c.34.8,1.26,1.28,1.26,2.27"/>
      <path class="cls-2" d="M163.67,84.27c-1.79.07-1.91,1.97-3.03,2.78"/>
      <path class="cls-2" d="M48.6,78.21c.48-.3.49-1.05,1.02-1.24,1.42-.53,2.41-.45,1.76,1.5"/>
      <path class="cls-2" d="M187.9,83.77h2.27"/>
      <path class="cls-2" d="M165.19,76.95c-.86.25-1.71.52-2.02,1.51"/>
      <path class="cls-2" d="M188.66,120.11c-.87.48-1.54,1.15-2.02,2.02"/>
      <path class="cls-2" d="M159.13,80.99c.45.81,1.46.88,2.01,1.52,1.08,1.26,1.41-.14,2.03-.51"/>
      <path class="cls-2" d="M312.82,120.87c.64.76,1.01,1.49-.25,2.02"/>
      <path class="cls-2" d="M53.64,76.45c1.72.29,2.79,1.06,2.27,3.03l1.26,3.53"/>
      <path class="cls-2" d="M217.93,138.28c-.86.67-.84,1.44-.25,2.27"/>
      <path class="cls-2" d="M66.51,80.23c-.53.58.03,1.44-.5,2.02"/>
      <path class="cls-2" d="M291.62,126.93c-.71-.19-1.32.38-2.02.25"/>
      <path class="cls-2" d="M57.18,78.97c.08.69,1.17,1.14.5,2.02"/>
      <path class="cls-2" d="M192.69,78.97c-.71-.19-1.32.38-2.02.25"/>
      <path class="cls-2" d="M60.46,122.13c.76.5.76,1.01,0,1.51"/>
      <path class="cls-2" d="M185.63,171.1c-.88.22-1.14,1.29-2.02,1.51"/>
      <path class="cls-2" d="M159.38,85.28c-.06,1.21,1.14,1.89,1.26,3.03"/>
      <path class="cls-2" d="M197.24,211.48c.6.54-.19,1.61.76,2.02"/>
      <path class="cls-2" d="M198.25,214c.09,1.15-2.71.38-1.51,2.27"/>
      <path class="cls-2" d="M157.87,91.84c-.45-.78-2.01-1.12-.78-2.55,1.14-1.33,2.05.19,3.06.02"/>
      <path class="cls-2" d="M165.69,89.07c-.51.88-2.14,1.26-1.26,2.78"/>
      <path class="cls-2" d="M178.06,358.37c0,.84,1.01,1.18,1.01,2.02"/>
      <path class="cls-2" d="M90.74,345.5c.31.45,1.22.13,1.2.5-.04.95-1.2.92-1.71,1.52"/>
      <path class="cls-2" d="M167.96,95.12c-.75-.26-1.61-.36-2.25-.79-1.02-.68-3.34-1.25-.53-2.77.68-.37.08-.99.01-1.49"/>
      <path class="cls-2" d="M175.53,95.88c-.54,1.03-.3,2.78-2.27,2.52"/>
      <path class="cls-2" d="M199.26,359.38c.27.7.8,1.2,1.26,1.77"/>
      <path class="cls-2" d="M172.76,72.41c-.55-.36-1.17-.22-1.77-.25"/>
      <path class="cls-2" d="M197.49,90.33c.56.48-.05,1.29.5,1.77"/>
      <path class="cls-2" d="M199.76,209.96c-1.9.65-.48,2.49-1.26,3.53"/>
      <path class="cls-2" d="M189.92,105.22c-.03.64.22,1.56-1.01,1.01"/>
      <path class="cls-2" d="M186.89,186.49c.46-.09.76-.39,1.01-.76-.47-.28-.69-1.28-1.52-.51-.31.29-1.15.4-.26,1.02.95.66.36,1.67.51,2.52"/>
      <path class="cls-2" d="M182.85,110.02c.83-.09,1.05.9,1.77,1.01"/>
      <path class="cls-2" d="M183.1,142.57c.46.55,1.19.65,1.77,1.01"/>
      <path class="cls-2" d="M158.12,139.29c-.3.27-.78.69-.48.98,1.04,1.01.11,1.2-.53,1.54"/>
      <path class="cls-2" d="M330.73,116.58c.54.01.28-1.29.98-.72.57.47.36,1.21-.22,1.73"/>
      <path class="cls-2" d="M308.53,79.98c.07-.84.42-1.45,1.23-.72.51.46-.23,1.37.28,1.98-.52.08-1.14,0-1.23-.51-.2-1.11-1.97.23-1.8-1.26"/>
      <path class="cls-2" d="M159.38,135.26c2.09-.03,1.45,1.68,1.77,2.78"/>
      <path class="cls-2" d="M166.2,82.76c-.35-.34-.9-.25-1.25-.52-.56-.42-1.05-1.14-.7-1.71.23-.37,1.06-.87,1.68-.52,1.43.8,3.16.09,4.55.99"/>
      <path class="cls-2" d="M160.9,83.01c-.61.45-.95,1.1-1.26,1.77"/>
      <path class="cls-2" d="M46.07,120.62c.35,1.04,1.69,1.66,1.26,3.03"/>
      <path class="cls-2" d="M187.65,209.96c.55.98.08,1.77-.5,2.52"/>
      <path class="cls-2" d="M191.68,211.98c.42.08,1.09-.26,1.22.26.17.68-.95.78-.97,1.5"/>
      <path class="cls-2" d="M169.73,73.92c.21,1.31-.1,2.58-.55,3.77-.27.72-.43-.26-.72-.24"/>
      <path class="cls-2" d="M209.1,88.56c1.06,1.09.16,2.19,0,3.28"/>
      <path class="cls-2" d="M207.58,91.09c.69.93,1.64,1.3,2.78,1.26"/>
      <path class="cls-2" d="M209.1,98.91c-.66-.41-1.29-.36-1.75.26-.26.34-.24.76.24,1"/>
      <path class="cls-2" d="M161.65,97.14c.13.67-1.18,1.35,0,2.02"/>
      <path class="cls-2" d="M86.96,340.96c.91,1.5-.12,1.91-1.26,2.27"/>
      <path class="cls-2" d="M52.89,68.87c.7-.56,1.52-.12,2.27-.25"/>
      <path class="cls-2" d="M145.25,272.05c-.48.03-1.04-.03-.76.76"/>
      <path class="cls-2" d="M134.65,261.45c-.96-.1-.44,1.87-1.77,1.26"/>
      <path class="cls-2" d="M175.03,373.77c-.07-.54-.91-.95-.47-1.49.45-.57,1.15-.26,1.74-.02"/>
      <path class="cls-2" d="M156.1,138.79c-.4.93-1.02,1.85,0,2.78"/>
      <path class="cls-2" d="M188.4,97.65c.78-.75,1.46-1.74,2.78-1.01"/>
      <path class="cls-2" d="M166.45,102.7c.05.96.5,1.71,1.26,2.27"/>
      <path class="cls-2" d="M177.3,111.78c-.47.34-.17.84-.25,1.26"/>
      <path class="cls-2" d="M201.02,98.66c.37.89.81,1.36,1.51.25"/>
      <path class="cls-2" d="M201.53,98.15c.68.4,1.53.55,2.02,1.26"/>
      <path class="cls-2" d="M177.3,91.09c-.34-.63-.67.1-1.01,0"/>
      <path class="cls-2" d="M263.61,128.95c-.06.39-.27.71-.5,1.01"/>
      <path class="cls-2" d="M193.2,139.8c-.64.67.13,1.35,0,2.02"/>
      <path class="cls-2" d="M172.51,83.89c-.32.16-.58.51-1.01.38"/>
      <path class="cls-2" d="M199.26,182.71c.3.27.62.53.5,1.01"/>
      <path class="cls-2" d="M187.14,79.73c-.58.76-.03,1.37.25,2.02"/>
      <path class="cls-2" d="M189.16,209.96c.64.67-.13,1.35,0,2.02"/>
      <path class="cls-2" d="M169.98,75.44c.2.53.88.49,1.09,1.24.32,1.11,1.34.95,2.19.28"/>
      <path class="cls-2" d="M101.34,349.04c.22.7.23,1.34-.5,1.77"/>
      <path class="cls-2" d="M92.51,348.53c.41.25.2.66.25,1.01"/>
      <path class="cls-2" d="M329.22,71.9c-.27-.3-.85-.75-.95-.48-.37.95-.74,2-.06,3.01"/>
      <path class="cls-2" d="M186.64,66.86c.34-.53.59-.44,1.03-.02.63.6-.15.71-.28.75-.8.25-.94,1.1-1.5,1.54"/>
      <path class="cls-2" d="M319.13,66.35c.32.15.19.61.5.76"/>
      <path class="cls-2" d="M174.78,72.66c-1.1.59-.14,1.18,0,1.77"/>
      <path class="cls-2" d="M184.37,80.49c.46-.55.49.21.76.25"/>
      <path class="cls-2" d="M162.92,95.38c-.13.33.39.43.25.76"/>
      <path class="cls-2" d="M259.82,99.41c-.36-.02-.53.14-.5.5"/>
      <path class="cls-2" d="M176.8,110.52c-.32.15-.19.61-.5.76"/>
      <path class="cls-2" d="M204.81,112.03c.42,1.61.84.2,1.26,0"/>
      <path class="cls-2" d="M165.94,124.15c-.02.36.14.53.5.5"/>
      <path class="cls-2" d="M185.12,132.23c-.36-.02-.53.14-.5.5"/>
      <path class="cls-2" d="M184.62,207.95c.36-.02.53.14.5.5"/>
      <path class="cls-2" d="M198.25,209.46c-.36-.02-.53.14-.5.5"/>
      <path class="cls-2" d="M288.09,338.43v.76"/>
      <g>
        <g>
          <rect class="cls-1" x="26.31" y="345.72" width="9.6" height="8.46"/>
          <rect class="cls-11" x="30.77" y="346.35" width=".96" height="1.57"/>
          <rect class="cls-11" x="30.77" y="349.17" width=".96" height="1.57"/>
          <rect class="cls-11" x="30.77" y="351.97" width=".96" height="1.57"/>
        </g>
        <g>
          <rect class="cls-1" x="26.31" y="320.33" width="9.6" height="8.46"/>
          <rect class="cls-11" x="30.77" y="320.96" width=".96" height="1.57"/>
          <rect class="cls-11" x="30.77" y="323.78" width=".96" height="1.57"/>
          <rect class="cls-11" x="30.77" y="326.58" width=".96" height="1.57"/>
        </g>
        <g>
          <rect class="cls-1" x="26.31" y="294.95" width="9.6" height="8.46"/>
          <rect class="cls-11" x="30.77" y="295.57" width=".96" height="1.57"/>
          <rect class="cls-11" x="30.77" y="298.39" width=".96" height="1.57"/>
          <rect class="cls-11" x="30.77" y="301.2" width=".96" height="1.57"/>
        </g>
        <g>
          <rect class="cls-1" x="26.31" y="269.56" width="9.6" height="8.46"/>
          <rect class="cls-11" x="30.77" y="270.18" width=".96" height="1.57"/>
          <rect class="cls-11" x="30.77" y="273" width=".96" height="1.57"/>
          <rect class="cls-11" x="30.77" y="275.81" width=".96" height="1.57"/>
        </g>
        <g>
          <rect class="cls-1" x="26.31" y="244.17" width="9.6" height="8.46"/>
          <rect class="cls-11" x="30.77" y="244.79" width=".96" height="1.57"/>
          <rect class="cls-11" x="30.77" y="247.61" width=".96" height="1.57"/>
          <rect class="cls-11" x="30.77" y="250.42" width=".96" height="1.57"/>
        </g>
        <g>
          <rect class="cls-1" x="26.31" y="218.78" width="9.6" height="8.46"/>
          <rect class="cls-11" x="30.77" y="219.4" width=".96" height="1.57"/>
          <rect class="cls-11" x="30.77" y="222.22" width=".96" height="1.57"/>
          <rect class="cls-11" x="30.77" y="225.03" width=".96" height="1.57"/>
        </g>
        <g>
          <rect class="cls-1" x="26.31" y="193.39" width="9.6" height="8.46"/>
          <rect class="cls-11" x="30.77" y="194.02" width=".96" height="1.57"/>
          <rect class="cls-11" x="30.77" y="196.83" width=".96" height="1.57"/>
          <rect class="cls-11" x="30.77" y="199.64" width=".96" height="1.57"/>
        </g>
        <g>
          <rect class="cls-1" x="26.31" y="168" width="9.6" height="8.46"/>
          <rect class="cls-11" x="30.77" y="168.63" width=".96" height="1.57"/>
          <rect class="cls-11" x="30.77" y="171.45" width=".96" height="1.57"/>
          <rect class="cls-11" x="30.77" y="174.25" width=".96" height="1.57"/>
        </g>
        <g>
          <rect class="cls-1" x="26.31" y="142.61" width="9.6" height="8.46"/>
          <rect class="cls-11" x="30.77" y="143.24" width=".96" height="1.57"/>
          <rect class="cls-11" x="30.77" y="146.06" width=".96" height="1.57"/>
          <rect class="cls-11" x="30.77" y="148.86" width=".96" height="1.57"/>
        </g>
        <g>
          <rect class="cls-1" x="26.31" y="117.23" width="9.6" height="8.46"/>
          <rect class="cls-11" x="30.77" y="117.85" width=".96" height="1.57"/>
          <rect class="cls-11" x="30.77" y="120.67" width=".96" height="1.57"/>
          <rect class="cls-11" x="30.77" y="123.48" width=".96" height="1.57"/>
        </g>
        <g>
          <rect class="cls-1" x="26.31" y="91.84" width="9.6" height="8.46"/>
          <rect class="cls-11" x="30.77" y="92.46" width=".96" height="1.57"/>
          <rect class="cls-11" x="30.77" y="95.28" width=".96" height="1.57"/>
          <rect class="cls-11" x="30.77" y="98.09" width=".96" height="1.57"/>
        </g>
        <g>
          <rect class="cls-1" x="53.26" y="65.31" width="8.68" height="9.6"/>
          <rect class="cls-11" x="59.69" y="69.77" width="1.61" height=".96"/>
          <rect class="cls-11" x="56.8" y="69.77" width="1.61" height=".96"/>
          <rect class="cls-11" x="53.92" y="69.77" width="1.61" height=".96"/>
        </g>
        <g>
          <rect class="cls-1" x="79.29" y="65.31" width="8.68" height="9.6"/>
          <rect class="cls-11" x="85.72" y="69.77" width="1.61" height=".96"/>
          <rect class="cls-11" x="82.83" y="69.77" width="1.61" height=".96"/>
          <rect class="cls-11" x="79.95" y="69.77" width="1.61" height=".96"/>
        </g>
        <g>
          <rect class="cls-1" x="105.32" y="65.31" width="8.68" height="9.6"/>
          <rect class="cls-11" x="111.75" y="69.77" width="1.61" height=".96"/>
          <rect class="cls-11" x="108.86" y="69.77" width="1.61" height=".96"/>
          <rect class="cls-11" x="105.98" y="69.77" width="1.61" height=".96"/>
        </g>
        <g>
          <rect class="cls-1" x="131.35" y="65.31" width="8.68" height="9.6"/>
          <rect class="cls-11" x="137.78" y="69.77" width="1.61" height=".96"/>
          <rect class="cls-11" x="134.89" y="69.77" width="1.61" height=".96"/>
          <rect class="cls-11" x="132.01" y="69.77" width="1.61" height=".96"/>
        </g>
        <g>
          <rect class="cls-1" x="157.39" y="65.31" width="8.68" height="9.6"/>
          <rect class="cls-11" x="163.81" y="69.77" width="1.61" height=".96"/>
          <rect class="cls-11" x="160.92" y="69.77" width="1.61" height=".96"/>
          <rect class="cls-11" x="158.04" y="69.77" width="1.61" height=".96"/>
        </g>
        <g>
          <rect class="cls-1" x="183.42" y="65.31" width="8.68" height="9.6"/>
          <rect class="cls-11" x="189.84" y="69.77" width="1.61" height=".96"/>
          <rect class="cls-11" x="186.95" y="69.77" width="1.61" height=".96"/>
          <rect class="cls-11" x="184.07" y="69.77" width="1.61" height=".96"/>
        </g>
        <g>
          <rect class="cls-1" x="209.45" y="65.31" width="8.68" height="9.6"/>
          <rect class="cls-11" x="215.87" y="69.77" width="1.61" height=".96"/>
          <rect class="cls-11" x="212.98" y="69.77" width="1.61" height=".96"/>
          <rect class="cls-11" x="210.1" y="69.77" width="1.61" height=".96"/>
        </g>
        <g>
          <rect class="cls-1" x="235.48" y="65.31" width="8.68" height="9.6"/>
          <rect class="cls-11" x="241.9" y="69.77" width="1.61" height=".96"/>
          <rect class="cls-11" x="239.01" y="69.77" width="1.61" height=".96"/>
          <rect class="cls-11" x="236.13" y="69.77" width="1.61" height=".96"/>
        </g>
        <g>
          <rect class="cls-1" x="261.51" y="65.31" width="8.68" height="9.6"/>
          <rect class="cls-11" x="267.93" y="69.77" width="1.61" height=".96"/>
          <rect class="cls-11" x="265.04" y="69.77" width="1.61" height=".96"/>
          <rect class="cls-11" x="262.16" y="69.77" width="1.61" height=".96"/>
        </g>
        <g>
          <rect class="cls-1" x="287.54" y="65.31" width="8.68" height="9.6"/>
          <rect class="cls-11" x="293.96" y="69.77" width="1.61" height=".96"/>
          <rect class="cls-11" x="291.07" y="69.77" width="1.61" height=".96"/>
          <rect class="cls-11" x="288.19" y="69.77" width="1.61" height=".96"/>
        </g>
        <g>
          <rect class="cls-1" x="313.57" y="65.31" width="8.68" height="9.6"/>
          <rect class="cls-11" x="319.99" y="69.77" width="1.61" height=".96"/>
          <rect class="cls-11" x="317.1" y="69.77" width="1.61" height=".96"/>
          <rect class="cls-11" x="314.23" y="69.77" width="1.61" height=".96"/>
        </g>
        <g>
          <rect class="cls-1" x="339.6" y="91.84" width="9.6" height="8.46"/>
          <rect class="cls-11" x="343.78" y="98.1" width=".96" height="1.57"/>
          <rect class="cls-11" x="343.78" y="95.29" width=".96" height="1.57"/>
          <rect class="cls-11" x="343.78" y="92.48" width=".96" height="1.57"/>
        </g>
        <g>
          <rect class="cls-1" x="339.6" y="117.23" width="9.6" height="8.46"/>
          <rect class="cls-11" x="343.78" y="123.49" width=".96" height="1.57"/>
          <rect class="cls-11" x="343.78" y="120.67" width=".96" height="1.57"/>
          <rect class="cls-11" x="343.78" y="117.87" width=".96" height="1.57"/>
        </g>
        <g>
          <rect class="cls-1" x="339.6" y="142.61" width="9.6" height="8.46"/>
          <rect class="cls-11" x="343.78" y="148.88" width=".96" height="1.57"/>
          <rect class="cls-11" x="343.78" y="146.06" width=".96" height="1.57"/>
          <rect class="cls-11" x="343.78" y="143.25" width=".96" height="1.57"/>
        </g>
        <g>
          <rect class="cls-1" x="339.6" y="168" width="9.6" height="8.46"/>
          <rect class="cls-11" x="343.78" y="174.27" width=".96" height="1.57"/>
          <rect class="cls-11" x="343.78" y="171.45" width=".96" height="1.57"/>
          <rect class="cls-11" x="343.78" y="168.64" width=".96" height="1.57"/>
        </g>
        <g>
          <rect class="cls-1" x="339.6" y="193.39" width="9.6" height="8.46"/>
          <rect class="cls-11" x="343.78" y="199.66" width=".96" height="1.57"/>
          <rect class="cls-11" x="343.78" y="196.84" width=".96" height="1.57"/>
          <rect class="cls-11" x="343.78" y="194.03" width=".96" height="1.57"/>
        </g>
        <g>
          <rect class="cls-1" x="339.6" y="218.78" width="9.6" height="8.46"/>
          <rect class="cls-11" x="343.78" y="225.05" width=".96" height="1.57"/>
          <rect class="cls-11" x="343.78" y="222.23" width=".96" height="1.57"/>
          <rect class="cls-11" x="343.78" y="219.42" width=".96" height="1.57"/>
        </g>
        <g>
          <rect class="cls-1" x="339.6" y="244.17" width="9.6" height="8.46"/>
          <rect class="cls-11" x="343.78" y="250.44" width=".96" height="1.57"/>
          <rect class="cls-11" x="343.78" y="247.62" width=".96" height="1.57"/>
          <rect class="cls-11" x="343.78" y="244.81" width=".96" height="1.57"/>
        </g>
        <g>
          <rect class="cls-1" x="339.6" y="269.56" width="9.6" height="8.46"/>
          <rect class="cls-11" x="343.78" y="275.82" width=".96" height="1.57"/>
          <rect class="cls-11" x="343.78" y="273.01" width=".96" height="1.57"/>
          <rect class="cls-11" x="343.78" y="270.2" width=".96" height="1.57"/>
        </g>
        <g>
          <rect class="cls-1" x="339.6" y="294.95" width="9.6" height="8.46"/>
          <rect class="cls-11" x="343.78" y="301.21" width=".96" height="1.57"/>
          <rect class="cls-11" x="343.78" y="298.39" width=".96" height="1.57"/>
          <rect class="cls-11" x="343.78" y="295.59" width=".96" height="1.57"/>
        </g>
        <g>
          <rect class="cls-1" x="339.6" y="320.33" width="9.6" height="8.46"/>
          <rect class="cls-11" x="343.78" y="326.6" width=".96" height="1.57"/>
          <rect class="cls-11" x="343.78" y="323.78" width=".96" height="1.57"/>
          <rect class="cls-11" x="343.78" y="320.98" width=".96" height="1.57"/>
        </g>
        <g>
          <rect class="cls-1" x="339.6" y="345.72" width="9.6" height="8.46"/>
          <rect class="cls-11" x="343.78" y="351.99" width=".96" height="1.57"/>
          <rect class="cls-11" x="343.78" y="349.17" width=".96" height="1.57"/>
          <rect class="cls-11" x="343.78" y="346.36" width=".96" height="1.57"/>
        </g>
        <g>
          <rect class="cls-1" x="313.57" y="371.11" width="8.68" height="9.6"/>
          <rect class="cls-11" x="314.21" y="375.29" width="1.61" height=".96"/>
          <rect class="cls-11" x="317.1" y="375.29" width="1.61" height=".96"/>
          <rect class="cls-11" x="319.98" y="375.29" width="1.61" height=".96"/>
        </g>
        <g>
          <rect class="cls-1" x="287.54" y="371.11" width="8.68" height="9.6"/>
          <rect class="cls-11" x="288.18" y="375.29" width="1.61" height=".96"/>
          <rect class="cls-11" x="291.07" y="375.29" width="1.61" height=".96"/>
          <rect class="cls-11" x="293.95" y="375.29" width="1.61" height=".96"/>
        </g>
        <g>
          <rect class="cls-1" x="261.51" y="371.11" width="8.68" height="9.6"/>
          <rect class="cls-11" x="262.15" y="375.29" width="1.61" height=".96"/>
          <rect class="cls-11" x="265.04" y="375.29" width="1.61" height=".96"/>
          <rect class="cls-11" x="267.92" y="375.29" width="1.61" height=".96"/>
        </g>
        <g>
          <rect class="cls-1" x="235.48" y="371.11" width="8.68" height="9.6"/>
          <rect class="cls-11" x="236.12" y="375.29" width="1.61" height=".96"/>
          <rect class="cls-11" x="239.01" y="375.29" width="1.61" height=".96"/>
          <rect class="cls-11" x="241.89" y="375.29" width="1.61" height=".96"/>
        </g>
        <g>
          <rect class="cls-1" x="209.45" y="371.11" width="8.68" height="9.6"/>
          <rect class="cls-11" x="210.09" y="375.29" width="1.61" height=".96"/>
          <rect class="cls-11" x="212.98" y="375.29" width="1.61" height=".96"/>
          <rect class="cls-11" x="215.85" y="375.29" width="1.61" height=".96"/>
        </g>
        <g>
          <rect class="cls-1" x="183.42" y="371.11" width="8.68" height="9.6"/>
          <rect class="cls-11" x="184.06" y="375.29" width="1.61" height=".96"/>
          <rect class="cls-11" x="186.95" y="375.29" width="1.61" height=".96"/>
          <rect class="cls-11" x="189.82" y="375.29" width="1.61" height=".96"/>
        </g>
        <g>
          <rect class="cls-1" x="157.39" y="371.11" width="8.68" height="9.6"/>
          <rect class="cls-11" x="158.03" y="375.29" width="1.61" height=".96"/>
          <rect class="cls-11" x="160.91" y="375.29" width="1.61" height=".96"/>
          <rect class="cls-11" x="163.79" y="375.29" width="1.61" height=".96"/>
        </g>
        <g>
          <rect class="cls-1" x="131.35" y="371.11" width="8.68" height="9.6"/>
          <rect class="cls-11" x="132" y="375.29" width="1.61" height=".96"/>
          <rect class="cls-11" x="134.88" y="375.29" width="1.61" height=".96"/>
          <rect class="cls-11" x="137.76" y="375.29" width="1.61" height=".96"/>
        </g>
        <g>
          <rect class="cls-1" x="105.32" y="371.11" width="8.68" height="9.6"/>
          <rect class="cls-11" x="105.97" y="375.29" width="1.61" height=".96"/>
          <rect class="cls-11" x="108.85" y="375.29" width="1.61" height=".96"/>
          <rect class="cls-11" x="111.73" y="375.29" width="1.61" height=".96"/>
        </g>
        <g>
          <rect class="cls-1" x="79.29" y="371.11" width="8.68" height="9.6"/>
          <rect class="cls-11" x="79.93" y="375.29" width="1.61" height=".96"/>
          <rect class="cls-11" x="82.82" y="375.29" width="1.61" height=".96"/>
          <rect class="cls-11" x="85.7" y="375.29" width="1.61" height=".96"/>
        </g>
        <g>
          <rect class="cls-1" x="53.26" y="371.11" width="8.68" height="9.6"/>
          <rect class="cls-11" x="53.9" y="375.29" width="1.61" height=".96"/>
          <rect class="cls-11" x="56.79" y="375.29" width="1.61" height=".96"/>
          <rect class="cls-11" x="59.67" y="375.29" width="1.61" height=".96"/>
        </g>
        <g>
          <rect class="cls-11" x="30.7" y="72.65" width=".96" height="1.6"/>
          <polygon class="cls-12" points="30.7 69.77 30.7 71.37 31.67 71.37 31.67 70.73 32.3 70.73 32.3 69.77 30.7 69.77"/>
          <rect class="cls-11" x="33.58" y="69.77" width="1.6" height=".96"/>
        </g>
        <g>
          <rect class="cls-11" x="340.26" y="69.7" width="1.6" height=".96"/>
          <polygon class="cls-12" points="344.74 69.7 343.14 69.7 343.14 70.67 343.78 70.67 343.78 71.3 344.74 71.3 344.74 69.7"/>
          <rect class="cls-11" x="343.78" y="72.58" width=".96" height="1.6"/>
        </g>
        <g>
          <rect class="cls-11" x="343.84" y="371.77" width=".96" height="1.6"/>
          <polygon class="cls-12" points="344.81 376.25 344.81 374.65 343.84 374.65 343.84 375.29 343.21 375.29 343.21 376.25 344.81 376.25"/>
          <rect class="cls-11" x="340.33" y="375.29" width="1.6" height=".96"/>
        </g>
        <g>
          <rect class="cls-11" x="33.65" y="375.35" width="1.6" height=".96"/>
          <polygon class="cls-12" points="30.77 376.32 32.37 376.32 32.37 375.35 31.73 375.35 31.73 374.72 30.77 374.72 30.77 376.32"/>
          <rect class="cls-11" x="30.77" y="371.84" width=".96" height="1.6"/>
        </g>
      </g>
      <g>
        <g>
          <path class="cls-1" d="M6.11,170.79c.08-1.41.27-2.82.45-4.22l.54-4.21-9.51-1.32-.56,4.43c-.19,1.48-.39,2.95-.47,4.44l9.56.88Z"/>
          <polygon class="cls-12" points="1.72 163.89 2.68 164.02 2.88 162.42 1.93 162.29 1.72 163.89"/>
          <polygon class="cls-12" points="1.36 166.78 2.31 166.88 2.51 165.28 1.56 165.17 1.36 166.78"/>
          <path class="cls-12" d="M1.05,169.66l.96.09c.04-.54.07-1.07.15-1.61l-.95-.1c-.08.53-.11,1.07-.15,1.61Z"/>
        </g>
        <g>
          <path class="cls-1" d="M10.23,145.67c.33-1.38.6-2.77.98-4.13l1.16-4.08-9.23-2.64-1.22,4.3c-.4,1.44-.69,2.9-1.04,4.35l9.34,2.21Z"/>
          <polygon class="cls-12" points="6.82 138.23 7.74 138.48 8.18 136.93 7.26 136.67 6.82 138.23"/>
          <path class="cls-12" d="M6.03,141.03l.93.24c.13-.52.29-1.04.43-1.55l-.93-.25c-.14.52-.3,1.04-.44,1.56Z"/>
          <polygon class="cls-12" points="5.38 143.85 6.31 144.07 6.68 142.5 5.74 142.27 5.38 143.85"/>
        </g>
        <g>
          <path class="cls-1" d="M17.81,121.38l1.56-3.95c.51-1.32,1.15-2.59,1.72-3.88l-8.77-3.91c-.6,1.36-1.26,2.7-1.81,4.09l-1.64,4.16,8.94,3.49Z"/>
          <polygon class="cls-12" points="15.45 113.52 16.33 113.9 17 112.43 16.12 112.05 15.45 113.52"/>
          <polygon class="cls-12" points="14.32 116.2 15.21 116.57 15.8 115.07 14.92 114.69 14.32 116.2"/>
          <polygon class="cls-12" points="13.26 118.9 14.15 119.25 14.75 117.75 13.86 117.39 13.26 118.9"/>
        </g>
        <g>
          <path class="cls-1" d="M28.7,98.39c1.44-2.44,2.75-4.95,4.33-7.3l-8.14-5.09c-1.66,2.47-3.05,5.12-4.56,7.68l8.36,4.71Z"/>
          <polygon class="cls-12" points="27.46 90.27 28.28 90.76 29.15 89.41 28.33 88.9 27.46 90.27"/>
          <polygon class="cls-12" points="26 92.78 26.82 93.27 27.63 91.87 26.81 91.37 26 92.78"/>
          <polygon class="cls-12" points="24.55 95.29 25.39 95.76 26.19 94.37 25.36 93.89 24.55 95.29"/>
        </g>
        <g>
          <path class="cls-1" d="M42.7,77.13l2.62-3.34c.87-1.11,1.73-2.24,2.68-3.29l-7.35-6.17c-1,1.11-1.9,2.29-2.82,3.46l-2.76,3.51,7.63,5.83Z"/>
          <path class="cls-12" d="M42.61,68.92l.74.61c.32-.43.68-.83,1.03-1.24l-.74-.61c-.35.41-.71.81-1.04,1.24Z"/>
          <polygon class="cls-12" points="40.81 71.21 41.56 71.8 42.56 70.54 41.81 69.93 40.81 71.21"/>
          <polygon class="cls-12" points="39.02 73.49 39.78 74.07 40.78 72.8 40.02 72.21 39.02 73.49"/>
        </g>
        <g>
          <path class="cls-1" d="M59.51,58.01c2.06-1.94,4.07-3.94,6.17-5.83l-6.43-7.13c-2.21,2-4.33,4.09-6.5,6.14l6.75,6.83Z"/>
          <path class="cls-12" d="M60.57,49.89l.65.71c.39-.37.77-.75,1.17-1.11l-.65-.71c-.4.36-.79.74-1.18,1.11Z"/>
          <polygon class="cls-12" points="58.47 51.9 59.13 52.59 60.3 51.48 59.64 50.78 58.47 51.9"/>
          <polygon class="cls-12" points="56.37 53.9 57.05 54.58 58.21 53.47 57.55 52.78 56.37 53.9"/>
        </g>
        <g>
          <polygon class="cls-1" points="78.8 41.39 85.72 36.47 80.35 28.52 73.06 33.7 78.8 41.39"/>
          <polygon class="cls-12" points="81 33.53 81.55 34.32 82.86 33.38 82.32 32.59 81 33.53"/>
          <polygon class="cls-12" points="78.63 35.21 79.19 35.99 80.5 35.06 79.95 34.27 78.63 35.21"/>
          <polygon class="cls-12" points="76.27 36.89 76.84 37.66 78.15 36.73 77.59 35.95 76.27 36.89"/>
        </g>
        <g>
          <path class="cls-1" d="M100.23,27.64c2.49-1.35,5.03-2.59,7.54-3.9l-4.21-8.62c-2.65,1.37-5.32,2.69-7.94,4.1l4.61,8.42Z"/>
          <polygon class="cls-12" points="103.5 20.16 103.93 21.02 105.36 20.28 104.94 19.42 103.5 20.16"/>
          <polygon class="cls-12" points="100.91 21.48 101.35 22.33 102.79 21.6 102.35 20.75 100.91 21.48"/>
          <polygon class="cls-12" points="98.33 22.81 98.79 23.65 100.22 22.91 99.77 22.07 98.33 22.81"/>
        </g>
        <g>
          <path class="cls-1" d="M123.36,17.03c1.31-.55,2.65-1,3.99-1.44l4.02-1.36-2.96-9.13-4.23,1.43c-1.41.47-2.83.95-4.2,1.52l3.39,8.98Z"/>
          <polygon class="cls-12" points="127.64 10.06 127.94 10.97 129.47 10.45 129.17 9.54 127.64 10.06"/>
          <polygon class="cls-12" points="124.88 10.99 125.2 11.9 126.73 11.38 126.42 10.47 124.88 10.99"/>
          <path class="cls-12" d="M122.16,11.98l.34.9c.5-.19.99-.41,1.51-.57l-.33-.9c-.52.16-1.01.38-1.52.57Z"/>
        </g>
        <g>
          <path class="cls-1" d="M147.74,9.75c1.38-.3,2.75-.68,4.15-.91l4.18-.75-1.66-9.46-4.4.79c-1.47.24-2.91.64-4.37.96l2.1,9.37Z"/>
          <polygon class="cls-12" points="152.95 3.44 153.13 4.38 154.71 4.1 154.55 3.15 152.95 3.44"/>
          <polygon class="cls-12" points="150.09 3.95 150.28 4.89 151.87 4.6 151.68 3.66 150.09 3.95"/>
          <polygon class="cls-12" points="147.26 4.59 147.47 5.53 149.04 5.17 148.84 4.23 147.26 4.59"/>
        </g>
        <g>
          <path class="cls-1" d="M172.91,5.95c2.82-.21,5.64-.48,8.48-.49l-.33-9.59c-2.98.01-5.95.3-8.92.52l.77,9.57Z"/>
          <polygon class="cls-12" points="178.94 .38 178.99 1.34 180.6 1.3 180.56 .34 178.94 .38"/>
          <polygon class="cls-12" points="176.04 .56 176.1 1.52 177.71 1.4 177.66 .44 176.04 .56"/>
          <polygon class="cls-12" points="173.15 .78 173.23 1.74 174.83 1.62 174.77 .66 173.15 .78"/>
        </g>
        <g>
          <path class="cls-1" d="M198.37,5.63c2.82.23,5.65.41,8.47.66l.99-9.55c-2.97-.27-5.94-.47-8.91-.7l-.55,9.58Z"/>
          <polygon class="cls-12" points="205.11 .99 205.02 1.95 206.63 2.07 206.72 1.11 205.11 .99"/>
          <polygon class="cls-12" points="202.21 .77 202.14 1.73 203.74 1.85 203.83 .89 202.21 .77"/>
          <polygon class="cls-12" points="199.32 .55 199.26 1.51 200.87 1.63 200.94 .67 199.32 .55"/>
        </g>
        <g>
          <path class="cls-1" d="M223.62,8.84c2.78.55,5.52,1.25,8.28,1.86l2.32-9.32c-2.91-.65-5.8-1.39-8.72-1.96l-1.88,9.41Z"/>
          <polygon class="cls-12" points="230.93 5.21 230.71 6.15 232.28 6.51 232.51 5.58 230.93 5.21"/>
          <polygon class="cls-12" points="228.1 4.56 227.9 5.5 229.47 5.86 229.68 4.92 228.1 4.56"/>
          <path class="cls-12" d="M225.28,3.92l-.19.94c.53.09,1.05.23,1.57.35l.2-.94c-.53-.12-1.05-.26-1.58-.35Z"/>
        </g>
        <g>
          <path class="cls-1" d="M248.16,15.58c2.7.84,5.3,1.99,7.94,3l3.6-8.9c-2.78-1.06-5.52-2.27-8.36-3.16l-3.18,9.06Z"/>
          <polygon class="cls-12" points="255.92 12.99 255.57 13.88 257.07 14.47 257.43 13.58 255.92 12.99"/>
          <polygon class="cls-12" points="253.21 11.92 252.88 12.82 254.38 13.41 254.72 12.52 253.21 11.92"/>
          <polygon class="cls-12" points="250.49 10.95 250.17 11.85 251.69 12.37 252.02 11.47 250.49 10.95"/>
        </g>
        <g>
          <path class="cls-1" d="M271.52,25.68c1.25.66,2.54,1.26,3.76,1.96l3.68,2.12,4.81-8.31-3.88-2.23c-1.29-.74-2.64-1.38-3.96-2.07l-4.41,8.52Z"/>
          <polygon class="cls-12" points="279.57 24.18 279.1 25.02 280.5 25.82 280.98 24.99 279.57 24.18"/>
          <polygon class="cls-12" points="277.05 22.74 276.59 23.58 277.99 24.38 278.46 23.54 277.05 22.74"/>
          <polygon class="cls-12" points="274.47 21.42 274.03 22.27 275.46 23 275.91 22.16 274.47 21.42"/>
        </g>
        <g>
          <path class="cls-1" d="M293.24,38.93l3.46,2.46c1.13.86,2.23,1.74,3.35,2.61l5.91-7.56c-1.17-.92-2.34-1.85-3.52-2.75l-3.64-2.59-5.56,7.83Z"/>
          <polygon class="cls-12" points="301.44 38.56 300.85 39.33 302.12 40.32 302.71 39.56 301.44 38.56"/>
          <path class="cls-12" d="M299.12,36.81l-.57.77c.44.31.88.61,1.3.96l.58-.77c-.42-.34-.87-.65-1.31-.96Z"/>
          <polygon class="cls-12" points="296.76 35.13 296.2 35.91 297.51 36.84 298.08 36.07 296.76 35.13"/>
        </g>
        <g>
          <path class="cls-1" d="M312.93,55.08c2.05,1.95,4.13,3.88,6.04,5.97l6.9-6.67c-2.02-2.2-4.2-4.22-6.36-6.28l-6.59,6.98Z"/>
          <polygon class="cls-12" points="321.1 55.84 320.42 56.51 321.53 57.68 322.22 57.01 321.1 55.84"/>
          <polygon class="cls-12" points="319.03 53.8 318.36 54.48 319.52 55.59 320.2 54.91 319.03 53.8"/>
          <polygon class="cls-12" points="316.93 51.8 316.27 52.49 317.44 53.6 318.1 52.91 316.93 51.8"/>
        </g>
        <g>
          <path class="cls-1" d="M330.19,73.79l2.62,3.34c.43.56.89,1.11,1.3,1.68l1.23,1.73,7.76-5.65-1.3-1.82c-.44-.6-.91-1.18-1.37-1.77l-2.76-3.51-7.49,6Z"/>
          <polygon class="cls-12" points="338.18 75.66 337.42 76.24 338.35 77.55 339.12 76.98 338.18 75.66"/>
          <polygon class="cls-12" points="336.4 73.37 335.64 73.96 336.63 75.23 337.4 74.65 336.4 73.37"/>
          <polygon class="cls-12" points="334.61 71.09 333.85 71.69 334.85 72.96 335.61 72.37 334.61 71.09"/>
        </g>
        <g>
          <path class="cls-1" d="M344.69,94.7l2.12,3.68c.7,1.23,1.44,2.44,2.05,3.71l8.47-4.51c-.65-1.34-1.42-2.62-2.16-3.91l-2.23-3.87-8.25,4.9Z"/>
          <path class="cls-12" d="M352.33,97.68l-.84.46c.28.46.53.94.77,1.42l.85-.45c-.24-.48-.49-.96-.77-1.43Z"/>
          <polygon class="cls-12" points="350.88 95.16 350.05 95.64 350.85 97.04 351.69 96.57 350.88 95.16"/>
          <polygon class="cls-12" points="349.44 92.65 348.61 93.14 349.41 94.54 350.25 94.06 349.44 92.65"/>
        </g>
        <g>
          <path class="cls-1" d="M356.15,117.43l3.1,7.9,9.02-3.28c-1.06-2.78-2.18-5.55-3.26-8.32l-8.86,3.7Z"/>
          <polygon class="cls-12" points="363.26 121.47 362.36 121.8 362.95 123.3 363.85 122.97 363.26 121.47"/>
          <polygon class="cls-12" points="362.19 118.76 361.3 119.11 361.89 120.61 362.79 120.27 362.19 118.76"/>
          <polygon class="cls-12" points="361.13 116.07 360.24 116.43 360.83 117.93 361.72 117.57 361.13 116.07"/>
        </g>
        <g>
          <path class="cls-1" d="M364.29,141.55c.7,2.74,1.29,5.51,1.94,8.27l9.39-1.99c-.68-2.9-1.31-5.82-2.04-8.7l-9.29,2.42Z"/>
          <polygon class="cls-12" points="370.75 146.54 369.81 146.75 370.18 148.32 371.11 148.12 370.75 146.54"/>
          <polygon class="cls-12" points="370.1 143.71 369.16 143.93 369.53 145.5 370.46 145.29 370.1 143.71"/>
          <polygon class="cls-12" points="369.44 140.88 368.51 141.12 368.88 142.69 369.81 142.46 369.44 140.88"/>
        </g>
        <g>
          <path class="cls-1" d="M368.94,166.57c.43,2.8.53,5.64.77,8.46l9.58-.66c-.25-2.97-.37-5.95-.81-8.9l-9.54,1.1Z"/>
          <polygon class="cls-12" points="374.67 172.41 373.71 172.49 373.84 174.1 374.79 174.03 374.67 172.41"/>
          <polygon class="cls-12" points="374.45 169.51 373.49 169.6 373.62 171.21 374.57 171.13 374.45 169.51"/>
          <polygon class="cls-12" points="374.13 166.63 373.18 166.74 373.38 168.34 374.34 168.24 374.13 166.63"/>
        </g>
        <g>
          <path class="cls-1" d="M370.1,192l-.11,4.25c-.02,1.42-.19,2.82-.28,4.24l9.58.66c.09-1.49.27-2.97.29-4.46l.11-4.47-9.6-.22Z"/>
          <polygon class="cls-12" points="375.01 198.58 374.06 198.52 373.93 200.13 374.89 200.19 375.01 198.58"/>
          <polygon class="cls-12" points="375.15 195.68 374.19 195.64 374.15 197.25 375.11 197.3 375.15 195.68"/>
          <polygon class="cls-12" points="375.22 192.78 374.26 192.75 374.22 194.37 375.18 194.4 375.22 192.78"/>
        </g>
        <g>
          <path class="cls-1" d="M367.78,217.35l-.75,4.18c-.27,1.39-.45,2.8-.8,4.17l9.39,1.99c.37-1.45.57-2.92.85-4.39l.79-4.4-9.47-1.55Z"/>
          <path class="cls-12" d="M371.72,224.54l-.94-.19c-.1.53-.18,1.06-.31,1.58l.94.2c.13-.52.22-1.06.31-1.59Z"/>
          <polygon class="cls-12" points="372.23 221.68 371.28 221.51 371 223.1 371.94 223.28 372.23 221.68"/>
          <polygon class="cls-12" points="372.74 218.83 371.79 218.67 371.51 220.26 372.45 220.42 372.74 218.83"/>
        </g>
        <g>
          <polygon class="cls-1" points="361.97 242.13 359.25 250.17 368.27 253.45 371.13 244.99 361.97 242.13"/>
          <polygon class="cls-12" points="364.8 249.78 363.89 249.47 363.38 250.99 364.28 251.32 364.8 249.78"/>
          <polygon class="cls-12" points="365.73 247.03 364.82 246.73 364.3 248.25 365.21 248.56 365.73 247.03"/>
          <polygon class="cls-12" points="366.66 244.28 365.75 244 365.23 245.52 366.14 245.82 366.66 244.28"/>
        </g>
        <g>
          <path class="cls-1" d="M352.68,265.83c-1.19,2.57-2.55,5.05-3.82,7.58l8.47,4.51c1.34-2.66,2.77-5.28,4.02-7.98l-8.67-4.11Z"/>
          <polygon class="cls-12" points="354.43 273.81 353.58 273.37 352.84 274.8 353.69 275.25 354.43 273.81"/>
          <polygon class="cls-12" points="355.75 271.22 354.89 270.79 354.16 272.23 355.02 272.66 355.75 271.22"/>
          <path class="cls-12" d="M357.05,268.63l-.87-.41c-.21.5-.47.97-.71,1.45l.86.42c.24-.48.51-.96.72-1.45Z"/>
        </g>
        <g>
          <polygon class="cls-1" points="340.18 288 339.03 289.78 337.8 291.51 335.34 294.98 343.1 300.62 345.69 296.98 346.99 295.16 348.2 293.28 340.18 288"/>
          <polygon class="cls-12" points="340.81 296.15 340.03 295.6 339.09 296.91 339.87 297.47 340.81 296.15"/>
          <polygon class="cls-12" points="342.5 293.78 341.7 293.24 340.77 294.55 341.56 295.1 342.5 293.78"/>
          <polygon class="cls-12" points="344.12 291.38 343.32 290.85 342.44 292.21 343.24 292.74 344.12 291.38"/>
        </g>
        <g>
          <path class="cls-1" d="M324.72,308.22c-1.81,2.18-3.81,4.18-5.76,6.24l6.9,6.67c2.05-2.16,4.15-4.28,6.06-6.57l-7.21-6.34Z"/>
          <polygon class="cls-12" points="324.23 316.39 323.53 315.73 322.41 316.9 323.11 317.57 324.23 316.39"/>
          <polygon class="cls-12" points="326.23 314.29 325.52 313.64 324.41 314.81 325.11 315.46 326.23 314.29"/>
          <polygon class="cls-12" points="328.15 312.12 327.43 311.48 326.37 312.7 327.09 313.34 328.15 312.12"/>
        </g>
        <g>
          <path class="cls-1" d="M306.62,326.11c-1.08.92-2.12,1.87-3.23,2.76l-3.34,2.62,5.91,7.56,3.51-2.76c1.16-.93,2.26-1.94,3.4-2.9l-6.26-7.28Z"/>
          <polygon class="cls-12" points="305 334.15 304.4 333.4 303.13 334.39 303.73 335.15 305 334.15"/>
          <path class="cls-12" d="M307.28,332.34l-.61-.74c-.41.35-.84.67-1.26,1.01l.61.74c.42-.34.86-.66,1.27-1.01Z"/>
          <polygon class="cls-12" points="309.47 330.44 308.84 329.71 307.62 330.77 308.24 331.5 309.47 330.44"/>
        </g>
        <g>
          <path class="cls-1" d="M286.21,341.33l-3.57,2.29c-1.21.73-2.45,1.42-3.67,2.13l4.81,8.31c1.29-.75,2.59-1.47,3.87-2.24l3.76-2.41-5.19-8.08Z"/>
          <polygon class="cls-12" points="283.5 349.07 283.01 348.24 281.61 349.05 282.1 349.87 283.5 349.07"/>
          <path class="cls-12" d="M285.99,347.57l-.5-.82c-.46.29-.9.59-1.37.85l.5.82c.47-.26.92-.57,1.38-.86Z"/>
          <polygon class="cls-12" points="288.43 346.01 287.91 345.2 286.56 346.07 287.07 346.88 288.43 346.01"/>
        </g>
        <g>
          <path class="cls-1" d="M263.89,353.56c-2.58,1.15-5.13,2.39-7.79,3.37l3.6,8.9c2.8-1.04,5.48-2.33,8.2-3.55l-4.01-8.72Z"/>
          <polygon class="cls-12" points="260.13 360.86 259.76 359.97 258.26 360.56 258.63 361.45 260.13 360.86"/>
          <polygon class="cls-12" points="262.8 359.69 262.41 358.81 260.94 359.48 261.32 360.36 262.8 359.69"/>
          <polygon class="cls-12" points="265.44 358.5 265.04 357.62 263.57 358.29 263.96 359.16 265.44 358.5"/>
        </g>
        <g>
          <path class="cls-1" d="M240.09,362.55l-4.08,1.16c-1.36.38-2.72.8-4.1,1.09l2.32,9.32c1.46-.31,2.89-.74,4.32-1.14l4.3-1.22-2.75-9.2Z"/>
          <path class="cls-12" d="M235.34,369.24l-.24-.93c-.51.16-1.04.28-1.56.4l.23.93c.53-.12,1.05-.24,1.57-.4Z"/>
          <polygon class="cls-12" points="238.14 368.45 237.88 367.52 236.33 367.96 236.58 368.89 238.14 368.45"/>
          <polygon class="cls-12" points="240.92 367.66 240.65 366.74 239.1 367.18 239.36 368.1 240.92 367.66"/>
        </g>
        <g>
          <polygon class="cls-1" points="215.26 368.14 206.83 369.21 207.83 378.76 216.69 377.63 215.26 368.14"/>
          <polygon class="cls-12" points="209.61 374.04 209.5 373.08 207.9 373.29 208 374.24 209.61 374.04"/>
          <polygon class="cls-12" points="212.5 373.67 212.37 372.72 210.77 372.92 210.89 373.88 212.5 373.67"/>
          <polygon class="cls-12" points="215.37 373.31 215.23 372.36 213.63 372.56 213.76 373.51 215.37 373.31"/>
        </g>
        <g>
          <polygon class="cls-1" points="189.88 370.15 187.75 370.21 185.63 370.15 181.38 370.05 181.05 379.64 185.52 379.75 187.75 379.81 189.99 379.75 189.88 370.15"/>
          <polygon class="cls-12" points="183.47 375.24 183.49 374.28 181.88 374.24 181.85 375.2 183.47 375.24"/>
          <polygon class="cls-12" points="186.38 375.31 186.39 374.35 184.77 374.31 184.76 375.27 186.38 375.31"/>
          <polygon class="cls-12" points="189.27 375.31 189.27 374.35 187.66 374.38 187.65 375.34 189.27 375.31"/>
        </g>
        <g>
          <path class="cls-1" d="M164.46,368.68l-4.21-.53c-1.4-.22-2.79-.49-4.18-.73l-1.66,9.46c1.47.26,2.93.54,4.4.77l4.43.56,1.21-9.52Z"/>
          <polygon class="cls-12" points="157.41 372.87 157.57 371.92 155.98 371.64 155.82 372.58 157.41 372.87"/>
          <path class="cls-12" d="M160.28,373.33l.14-.95c-.53-.07-1.07-.12-1.6-.23l-.15.95c.53.11,1.07.16,1.6.23Z"/>
          <polygon class="cls-12" points="163.16 373.69 163.28 372.74 161.68 372.54 161.55 373.49 163.16 373.69"/>
        </g>
        <g>
          <polygon class="cls-1" points="139.5 363.71 135.42 362.55 133.38 361.97 131.37 361.29 128.4 370.42 130.52 371.13 132.67 371.75 136.97 372.97 139.5 363.71"/>
          <polygon class="cls-12" points="131.93 366.9 132.21 365.98 130.69 365.47 130.39 366.38 131.93 366.9"/>
          <polygon class="cls-12" points="134.72 367.7 134.99 366.77 133.44 366.33 133.16 367.25 134.72 367.7"/>
          <polygon class="cls-12" points="137.51 368.49 137.77 367.56 136.22 367.12 135.95 368.04 137.51 368.49"/>
        </g>
        <g>
          <path class="cls-1" d="M115.48,355.31c-2.57-1.19-5.18-2.29-7.72-3.54l-4.21,8.62c2.67,1.32,5.42,2.48,8.12,3.73l3.81-8.81Z"/>
          <path class="cls-12" d="M107.55,357.36l.41-.87c-.49-.23-.99-.43-1.46-.68l-.42.86c.48.26.98.45,1.47.68Z"/>
          <polygon class="cls-12" points="110.2 358.56 110.6 357.68 109.13 357.02 108.73 357.89 110.2 358.56"/>
          <polygon class="cls-12" points="112.84 359.75 113.23 358.87 111.76 358.21 111.37 359.08 112.84 359.75"/>
        </g>
        <g>
          <polygon class="cls-1" points="92.87 343.62 85.72 339.03 80.35 346.99 87.87 351.81 92.87 343.62"/>
          <polygon class="cls-12" points="84.75 344.52 85.28 343.72 83.92 342.84 83.39 343.64 84.75 344.52"/>
          <polygon class="cls-12" points="87.2 346.09 87.71 345.28 86.36 344.41 85.83 345.21 87.2 346.09"/>
          <polygon class="cls-12" points="89.64 347.65 90.14 346.83 88.78 345.96 88.27 346.77 89.64 347.65"/>
        </g>
        <g>
          <path class="cls-1" d="M72.12,328.87c-2.17-1.81-4.29-3.7-6.44-5.54l-6.43,7.13c2.26,1.94,4.49,3.92,6.77,5.83l6.09-7.42Z"/>
          <polygon class="cls-12" points="63.95 328.64 64.59 327.91 63.37 326.86 62.73 327.57 63.95 328.64"/>
          <polygon class="cls-12" points="66.15 330.54 66.77 329.81 65.55 328.75 64.93 329.48 66.15 330.54"/>
          <polygon class="cls-12" points="68.34 332.44 68.95 331.7 67.73 330.64 67.12 331.37 68.34 332.44"/>
        </g>
        <g>
          <path class="cls-1" d="M53.61,311.39c-1-1-1.89-2.11-2.83-3.17l-2.78-3.21-7.35,6.17,2.93,3.38c.98,1.12,1.92,2.28,2.98,3.33l7.06-6.51Z"/>
          <polygon class="cls-12" points="45.55 310.03 46.28 309.4 45.22 308.18 44.49 308.8 45.55 310.03"/>
          <polygon class="cls-12" points="47.46 312.23 48.17 311.59 47.12 310.37 46.39 311 47.46 312.23"/>
          <path class="cls-12" d="M49.38,314.39l.71-.65c-.38-.38-.73-.79-1.08-1.2l-.71.64c.35.41.71.82,1.09,1.2Z"/>
        </g>
        <g>
          <polygon class="cls-1" points="37.7 291.51 36.47 289.78 35.33 288 33.04 284.42 24.9 289.52 27.31 293.28 28.52 295.16 29.81 296.98 37.7 291.51"/>
          <polygon class="cls-12" points="29.9 289.06 30.71 288.54 29.84 287.18 29.03 287.69 29.9 289.06"/>
          <polygon class="cls-12" points="31.47 291.5 32.27 290.97 31.4 289.62 30.6 290.14 31.47 291.5"/>
          <polygon class="cls-12" points="33.1 293.9 33.89 293.36 32.96 292.04 32.16 292.58 33.1 293.9"/>
        </g>
        <g>
          <path class="cls-1" d="M24.71,269.63c-1.34-2.49-2.47-5.09-3.63-7.67l-8.77,3.91c1.23,2.71,2.42,5.45,3.83,8.08l8.57-4.31Z"/>
          <polygon class="cls-12" points="17.32 266.11 18.19 265.71 17.52 264.24 16.65 264.64 17.32 266.11"/>
          <polygon class="cls-12" points="18.51 268.76 19.38 268.35 18.72 266.88 17.85 267.29 18.51 268.76"/>
          <polygon class="cls-12" points="19.82 271.35 20.68 270.92 19.94 269.49 19.08 269.91 19.82 271.35"/>
        </g>
        <g>
          <polygon class="cls-1" points="14.9 246.15 13.54 242.13 12.38 238.05 3.15 240.69 4.38 244.99 5.81 249.22 14.9 246.15"/>
          <polygon class="cls-12" points="8.06 241.64 8.97 241.36 8.53 239.81 7.61 240.08 8.06 241.64"/>
          <path class="cls-12" d="M8.89,244.42l.92-.29c-.18-.51-.35-1.02-.48-1.54l-.92.28c.14.52.31,1.03.49,1.55Z"/>
          <polygon class="cls-12" points="9.82 247.17 10.73 246.86 10.22 245.34 9.3 245.63 9.82 247.17"/>
        </g>
        <g>
          <path class="cls-1" d="M8.47,221.53l-.75-4.18c-.12-.7-.26-1.39-.36-2.09l-.27-2.11-9.51,1.32.28,2.22c.1.74.25,1.47.38,2.2l.79,4.4,9.44-1.77Z"/>
          <polygon class="cls-12" points="2.29 216.11 3.24 215.96 3.04 214.37 2.09 214.5 2.29 216.11"/>
          <polygon class="cls-12" points="2.8 218.97 3.74 218.81 3.46 217.23 2.51 217.38 2.8 218.97"/>
          <polygon class="cls-12" points="3.3 221.82 4.25 221.65 3.97 220.06 3.02 220.23 3.3 221.82"/>
        </g>
        <g>
          <polygon class="cls-1" points="5.51 196.25 5.3 187.75 -4.3 187.75 -4.07 196.69 5.51 196.25"/>
          <polygon class="cls-12" points=".22 190.02 1.18 190.01 1.14 188.4 .18 188.4 .22 190.02"/>
          <polygon class="cls-12" points=".29 192.92 1.25 192.9 1.21 191.29 .25 191.3 .29 192.92"/>
          <polygon class="cls-12" points=".36 195.82 1.32 195.78 1.28 194.17 .32 194.2 .36 195.82"/>
        </g>
      </g>
      <path class="cls-2" d="M212.53,154.8l-2.67,13.81c-.21,1.06-.41,2.14-.32,3.22.1,1.2.55,2.33.89,3.48.74,2.5.93,5.16.56,7.75"/>
    </g>
  </g>
  <g id="Layer_6" data-name="Layer 6">
    <g>
      <g class="cls-4">
        <polygon class="cls-9" points="319.19 141.89 319.19 156.5 325.81 149.2 319.19 141.89"/>
        <polygon class="cls-9" points="225.62 156.5 225.62 141.89 219 149.19 225.62 156.5"/>
        <polyline class="cls-3" points="220.03 121.5 220.03 148.41 324.67 148.41 324.67 121.5"/>
      </g>
      <text class="cls-10" transform="translate(267.39 166.55)"><tspan x="0" y="0">E</tspan></text>
    </g>
  </g>
  <g id="Layer_5" data-name="Layer 5">
    <g>
      <g class="cls-6">
        <path class="cls-9" d="M236.1,374.8h-49.46c-.55,0-1-.45-1-1s.45-1,1-1h48.46v-139.85h-48.46c-.55,0-1-.45-1-1s.45-1,1-1h49.46c.55,0,1,.45,1,1v141.85c0,.55-.45,1-1,1Z"/>
        <polyline class="cls-9" points="229.36 237.26 242.57 237.26 235.97 230.66"/>
        <polygon class="cls-9" points="242.57 367.96 229.36 367.96 235.97 374.57 242.57 367.96"/>
      </g>
      <text class="cls-10" transform="translate(239.63 308.78)"><tspan x="0" y="0">C</tspan></text>
    </g>
  </g>
  <g id="Layer_3" data-name="Layer 3">
    <g>
      <text class="cls-10" transform="translate(42.68 221.24)"><tspan x="0" y="0">A</tspan></text>
      <g class="cls-5">
        <polyline class="cls-9" points="54.36 70.29 67.57 70.29 60.96 63.69"/>
        <polygon class="cls-9" points="67.63 368.2 54.42 368.2 61.02 374.8 67.63 368.2"/>
        <polyline class="cls-3" points="186.26 63.84 60.96 63.84 60.96 373.65 110.42 373.65"/>
      </g>
    </g>
  </g>
  <g id="Layer_2" data-name="Layer 2">
    <g>
      <g>
        <text class="cls-13" transform="translate(157.62 261.96) scale(1.19 1)"><tspan x="0" y="0">A</tspan></text>
        <g class="cls-8">
          <polyline class="cls-9" points="160.27 233.18 163.27 233.18 161.77 231.92"/>
          <polygon class="cls-9" points="163.28 289.98 160.28 289.98 161.78 291.24 163.28 289.98"/>
          <polyline class="cls-3" points="190.22 231.95 161.77 231.95 161.77 291.02 173 291.02"/>
        </g>
      </g>
      <polygon class="cls-9" points="168.76 284.4 155.55 284.4 162.16 291.01 168.76 284.4"/>
      <polyline class="cls-9" points="154.8 237.26 168.01 237.26 161.4 230.66"/>
    </g>
    <text class="cls-10" transform="translate(144.42 268.27)"><tspan x="0" y="0">D</tspan></text>
  </g>
  <g id="Layer_4" data-name="Layer 4">
    <g>
      <g class="cls-7">
        <g>
          <polyline class="cls-3" points="156.88 122.9 111.69 122.9 111.69 374.03 156.88 374.03"/>
          <polyline class="cls-9" points="105.59 128.48 118.8 128.48 112.19 121.87"/>
        </g>
        <polygon class="cls-9" points="118.8 368.2 105.59 368.2 112.19 374.8 118.8 368.2"/>
      </g>
      <text class="cls-10" transform="translate(92.28 250.33)"><tspan x="0" y="0">B</tspan></text>
    </g>
  </g>
  <g id="Layer_9" data-name="Layer 9">
    <g>
      <g class="cls-14">
        <polyline class="cls-3" points="220.03 122.9 220.03 29.22 157.07 29.22 157.07 122.9"/>
        <polyline class="cls-9" points="163.19 35.82 163.19 22.61 156.59 29.22"/>
        <polyline class="cls-9" points="214 22.61 214 35.82 220.6 29.22"/>
      </g>
      <text class="cls-10" transform="translate(183.74 24.58)"><tspan x="0" y="0">F</tspan></text>
    </g>
  </g>
</svg>
